<?xml version="1.0" standalone="no"?>
<!DOCTYPE svg PUBLIC "-//W3C//DTD SVG 1.1//EN" "http://www.w3.org/Graphics/SVG/1.1/DTD/svg11.dtd" >
<svg xmlns="http://www.w3.org/2000/svg" xmlns:xlink="http://www.w3.org/1999/xlink" version="1.1">
<metadata>
Created by FontForge 20170731 at Sun Mar 22 17:41:22 2020
 By Aleksey,,,
Copyright 2017 The Exo Project Authors (https://github.com/NDISCOVER/Exo-1.0)
</metadata>
<defs>
<font id="Exo-MediumItalic" horiz-adv-x="0" >
  <font-face 
    font-family="Exo Medium"
    font-weight="500"
    font-style="italic"
    font-stretch="normal"
    units-per-em="1000"
    panose-1="0 0 0 0 0 0 0 0 0 0"
    ascent="800"
    descent="-200"
    x-height="535"
    cap-height="737"
    bbox="-489 -270 1382 1100"
    underline-thickness="50"
    underline-position="-175"
    slope="-9"
    unicode-range="U+000D-FB05"
  />
<missing-glyph horiz-adv-x="655" 
d="M85 -5v544h544v-544h-544zM137 47h441v441h-441v-441zM235 100l-44 44l123 123l-123 123l44 44l123 -123l123 123l44 -44l-123 -123l123 -123l-44 -44l-123 123z" />
    <glyph glyph-name="f_f" unicode="ff" horiz-adv-x="761" 
d="M102 0l71 452h-79l10 65l82 18l14 81q5 31 15.5 58.5t30 49t50.5 33.5t77 12q32 0 64 -2t55 -6l-11 -73h-92q-33 0 -51.5 -11t-28 -32.5t-13.5 -53.5l-9 -56h335l-13 -83h-335l-71 -452h-101zM480 0l72 452h-80l11 65l82 18l13 81q6 31 16.5 58.5t29.5 49t50.5 33.5
t77.5 12q32 0 63.5 -2t55.5 -6l-12 -73h-92q-32 0 -51 -11t-28 -32.5t-14 -53.5l-9 -56h153l-13 -83h-153l-71 -452h-101z" />
    <glyph glyph-name="fi" unicode="fi" horiz-adv-x="606" 
d="M102 0l71 452h-79l10 65l82 18l14 81q5 31 15.5 58.5t30 49t50.5 33.5t77 12q32 0 64 -2t55 -6l-11 -73h-92q-33 0 -51.5 -11t-28 -32.5t-13.5 -53.5l-9 -56h291l-13 -83h-291l-71 -452h-101zM442 0l85 535h100l-84 -535h-101zM555 625q-7 0 -11.5 5t-3.5 12l13 84
q4 18 21 18h74q8 0 11.5 -5t1.5 -13l-13 -84q-3 -17 -19 -17h-74z" />
    <glyph glyph-name="fl" unicode="fl" horiz-adv-x="711" 
d="M102 0l71 452h-79l10 65l82 18l14 81q8 50 30 84.5t63.5 51.5t110.5 17q44 0 84 -2t82.5 -6.5t91.5 -11.5l-14 -61h-237q-41 0 -65 -11t-35 -32.5t-15 -53.5l-9 -56h152l-13 -83h-152l-71 -452h-101zM601 0q-67 0 -101.5 30t-34.5 81q0 20 2 38.5t4 34.5l90 565h101
l-85 -534q-1 -9 -3.5 -22.5t-4 -27.5t-1.5 -27q0 -32 15.5 -44.5t42.5 -15.5l47 -6l-11 -72h-61z" />
    <glyph glyph-name="f_f_i" unicode="ffi" horiz-adv-x="984" 
d="M102 0l71 452h-79l10 65l82 18l14 81q5 31 15.5 58.5t30 49t50.5 33.5t77 12q32 0 64 -2t55 -6l-11 -73h-92q-33 0 -51.5 -11t-28 -32.5t-13.5 -53.5l-9 -56h330l-13 -83h-330l-71 -452h-101zM821 0l84 535h101l-85 -535h-100zM933 625q-7 0 -11.5 5t-2.5 12l13 84
q3 18 20 18h75q8 0 11 -5t2 -13l-13 -84q-3 -17 -19 -17h-75zM480 0l72 452h-80l11 65l82 18l13 81q6 31 16.5 58.5t29.5 49t50.5 33.5t77.5 12q32 0 63.5 -2t55.5 -6l-12 -73h-92q-32 0 -51 -11t-28 -32.5t-14 -53.5l-9 -56h291l-13 -83h-291l-71 -452h-101z" />
    <glyph glyph-name="f_f_l" unicode="ffl" horiz-adv-x="1059" 
d="M102 0l71 452h-79l10 65l82 18l14 81q5 31 15.5 58.5t30 49t50.5 33.5t77 12q32 0 64 -2t55 -6l-11 -73h-92q-33 0 -51.5 -11t-28 -32.5t-13.5 -53.5l-9 -56h335l-13 -83h-335l-71 -452h-101zM480 0l72 452h-80l11 65l82 18l13 81q9 50 30.5 84.5t63.5 51.5t111 17
q44 0 84 -2t82 -6.5t91 -11.5l-14 -61h-237q-41 0 -65 -11t-34.5 -32.5t-15.5 -53.5l-9 -56h153l-13 -83h-153l-71 -452h-101zM979 0q-66 0 -101 30t-35 81q0 20 2 38.5t5 34.5l89 565h101l-85 -534q-1 -9 -3 -22.5t-3.5 -27.5t-1.5 -27q0 -32 15 -44.5t42 -15.5l48 -6
l-12 -72h-61z" />
    <glyph glyph-name=".notdef" horiz-adv-x="655" 
d="M85 -5v544h544v-544h-544zM137 47h441v441h-441v-441zM235 100l-44 44l123 123l-123 123l44 44l123 -123l123 123l44 -44l-123 -123l123 -123l-44 -44l-123 123z" />
    <glyph glyph-name=".null" 
 />
    <glyph glyph-name="nonmarkingreturn" horiz-adv-x="333" 
 />
    <glyph glyph-name="NULL" 
 />
    <glyph glyph-name="NULL" 
 />
    <glyph glyph-name="CR" unicode="&#xd;" horiz-adv-x="241" 
 />
    <glyph glyph-name="space" unicode=" " horiz-adv-x="241" 
 />
    <glyph glyph-name="exclam" unicode="!" horiz-adv-x="268" 
d="M127 201l72 535h101l-100 -535h-73zM103 -1q-15 0 -15 14v1.5v1.5l15 87q2 18 20 18h57q15 0 15 -13v-2.5v-2.5l-14 -87q-2 -9 -7.5 -13t-13.5 -4h-57z" />
    <glyph glyph-name="quotedbl" unicode="&#x22;" horiz-adv-x="320" 
d="M127 504l19 178l10 67h98l-10 -67l-36 -178h-81zM270 504l19 178l10 67h98l-10 -67l-36 -178h-81z" />
    <glyph glyph-name="numbersign" unicode="#" horiz-adv-x="697" 
d="M143 0l74 223h-162l21 66h164l49 152h-165l21 66h168l74 225h66l-74 -225h142l73 225h66l-73 -225h173l-21 -66h-174l-49 -152h174l-20 -66h-179l-73 -223h-66l73 223h-142l-73 -223h-67zM306 289h144l49 152h-144z" />
    <glyph glyph-name="dollar" unicode="$" horiz-adv-x="609" 
d="M394 726l-2 48l56 50l2 -48zM255 -89l15 96h58l-14 -96h-59zM302 -6q-44 0 -88 3t-81 7t-64 10l12 78q43 -4 103.5 -6t118.5 -2q46 0 80 8t54.5 30t26.5 62l7 41q1 8 1.5 14.5t0.5 12.5q0 36 -23 52.5t-75 16.5h-80q-77 0 -118.5 35.5t-41.5 101.5q0 19 3 40l10 62
q11 72 43.5 111.5t83.5 55.5t117 16q21 0 49 -1.5t58.5 -4.5t59.5 -7t53 -9l-12 -78q-34 3 -74 4.5t-78.5 2.5t-65.5 1q-40 0 -69 -8t-46.5 -30t-24.5 -63l-6 -41q-1 -8 -2 -14.5t-1 -13.5q0 -36 21 -50.5t64 -14.5h82q86 0 128.5 -37.5t42.5 -103.5q0 -18 -3 -40l-10 -68
q-10 -64 -41.5 -102t-85 -54.5t-129.5 -16.5z" />
    <glyph glyph-name="percent" unicode="%" horiz-adv-x="960" 
d="M219 0l562 732h67l-558 -732h-71zM229 349q-62 0 -88 23.5t-26 68.5q0 18 3 38l20 123q10 64 44 97t110 33h101q62 0 88 -23.5t26 -68.5q0 -8 -0.5 -17.5t-2.5 -20.5l-20 -123q-10 -64 -44 -97t-110 -33h-101zM251 414h78q44 0 64.5 17t27.5 61l15 97q2 8 2 14.5v12.5
q0 28 -15.5 39.5t-51.5 11.5h-79q-39 0 -61.5 -14.5t-29.5 -63.5l-16 -97q-1 -7 -1.5 -13.5t-0.5 -12.5q0 -29 16 -40.5t52 -11.5zM684 3q-61 0 -87 23.5t-26 68.5q0 17 3 38l20 123q10 64 43.5 97t109.5 33h102q62 0 88 -23.5t26 -68.5q0 -8 -0.5 -17.5t-2.5 -20.5
l-20 -123q-10 -64 -44 -97t-110 -33h-102zM707 68h78q43 0 64 17t28 61l15 97q2 8 2.5 14.5t0.5 12.5q0 28 -16 39.5t-52 11.5h-78q-40 0 -62.5 -14.5t-29.5 -63.5l-16 -97q-1 -7 -1.5 -13.5t-0.5 -12.5q0 -29 16 -40.5t52 -11.5z" />
    <glyph glyph-name="ampersand" unicode="&#x26;" horiz-adv-x="681" 
d="M226 -6q-75 0 -121 45t-46 120q0 54 14.5 95.5t44.5 75t80 62.5l71 41l-14 25q-18 34 -24.5 63.5t-6.5 54.5q0 48 22.5 83.5t68 55.5t111.5 20q35 0 63.5 -2.5t51.5 -6.5t41 -7l-12 -73h-140q-50 0 -78.5 -18.5t-28.5 -60.5q0 -20 8 -44t25 -55l142 -246l170 137l29 -44
l-80 -101l-75 -64l88 -150h-105l-60 99l-40 -30q-53 -43 -100 -59t-99 -16zM256 87q30 0 62 10t69 42l35 28l-116 197l-46 -26q-39 -22 -60.5 -45.5t-29.5 -50t-8 -60.5q0 -43 25 -69t69 -26z" />
    <glyph glyph-name="quotesingle" unicode="'" horiz-adv-x="177" 
d="M127 504l19 178l10 67h98l-10 -67l-36 -178h-81z" />
    <glyph glyph-name="parenleft" unicode="(" horiz-adv-x="359" 
d="M214 -210q-31 52 -53.5 111t-34.5 127t-12 145q0 73 12.5 148.5t36.5 150.5t57.5 145t74.5 131.5t88 111.5h92q-58 -68 -105.5 -149t-82 -170.5t-53.5 -180.5t-19 -178q0 -107 23 -203t68 -189h-92z" />
    <glyph glyph-name="parenright" unicode=")" horiz-adv-x="359" 
d="M-13 -210q59 73 107 156t82 171.5t52.5 179t18.5 177.5q0 104 -22 196.5t-69 189.5h92q32 -55 54.5 -113.5t34.5 -123.5t12 -142q0 -73 -13 -148t-36.5 -148.5t-56.5 -143.5t-74.5 -133.5t-89.5 -117.5h-92z" />
    <glyph glyph-name="asterisk" unicode="*" horiz-adv-x="453" 
d="M365 517l-30 44l129 82l18 -33zM386 410l-112 69l37 48l103 -86zM204 401l-35 12l50 136l54 -13zM129 580l6 40l143 10l-6 -55zM314 589l-28 134l39 12l44 -125z" />
    <glyph glyph-name="plus" unicode="+" horiz-adv-x="609" 
d="M284 132l70 448h83l-70 -448h-83zM130 315l13 82h448l-13 -82h-448z" />
    <glyph glyph-name="comma" unicode="," horiz-adv-x="210" 
d="M82 -82q-13 0 -22 2.5l-9 2.5l5 31q12 0 18 4t7 14l6 34h-9q-15 0 -15 15q0 2 0.5 5t1.5 7l11 68q2 20 21 20h55q15 0 15 -14q0 -2 -0.5 -6t-1.5 -8l-19 -118q-4 -24 -14.5 -36.5t-23.5 -16.5t-26 -4z" />
    <glyph glyph-name="hyphen" unicode="-" horiz-adv-x="341" 
d="M62 249l13 82h297l-13 -82h-297z" />
    <glyph glyph-name="period" unicode="." horiz-adv-x="210" 
d="M77 -1q-15 0 -15 14v1.5v1.5l14 87q2 18 20 18h57q15 0 15 -13v-2.5v-2.5l-14 -87q-1 -9 -6.5 -13t-13.5 -4h-57z" />
    <glyph glyph-name="slash" unicode="/" horiz-adv-x="421" 
d="M9 -72l414 842h100l-414 -842h-100z" />
    <glyph glyph-name="zero" unicode="0" horiz-adv-x="653" 
d="M255 -3q-48 0 -84.5 15t-56.5 46t-20 78q0 9 1 19.5t3 21.5l60 381q10 61 40 102t75.5 62t100.5 21h147q80 0 117 -38t37 -102q0 -11 -1 -22t-3 -23l-60 -381q-14 -91 -70 -135.5t-139 -44.5h-147zM291 88h101q55 0 84 27t37 76l56 358q2 8 2 14.5v12.5q0 39 -22 58
t-64 19h-108q-48 0 -80 -27t-40 -77l-56 -358l-2 -12t-1 -12q0 -40 24.5 -59.5t68.5 -19.5z" />
    <glyph glyph-name="one" unicode="1" horiz-adv-x="365" 
d="M185 0l102 644l-151 -38l10 64l166 67h91l-117 -737h-101z" />
    <glyph glyph-name="two" unicode="2" horiz-adv-x="591" 
d="M52 0l12 81l295 257q76 66 110 122.5t34 101.5q0 26 -11 45t-37 30t-72 11h-206l13 78q45 6 100.5 11.5t116.5 5.5q73 0 116 -20t61.5 -54.5t18.5 -79.5q0 -69 -39.5 -143.5t-129.5 -153.5l-228 -200h356l-15 -92h-495z" />
    <glyph glyph-name="three" unicode="3" horiz-adv-x="583" 
d="M313 -6q-80 0 -149 4t-121 11l12 75h237q42 0 74.5 8.5t53.5 31t28 62.5q5 25 7 39.5t2 19.5q0 29 -16.5 47t-43 27t-56.5 10l-175 7l12 71l184 8q51 2 85 23t42 66q4 26 5.5 38t2 17t0.5 8q0 44 -32.5 65t-89.5 21h-208l12 74q48 7 109 11.5t133 4.5q60 0 99.5 -15.5
t60 -46t20.5 -78.5q0 -5 -0.5 -13.5t-3 -27.5t-8.5 -55q-5 -33 -18.5 -56.5t-31.5 -40t-37.5 -25.5t-36.5 -14q15 -3 31 -12t30 -23.5t22.5 -36t8.5 -48.5q0 -10 -2.5 -29.5t-7.5 -51.5q-14 -86 -75.5 -131t-158.5 -45z" />
    <glyph glyph-name="four" unicode="4" horiz-adv-x="602" 
d="M386 1l29 177h-340l-14 52l347 507h103l-326 -473h243l28 181l33 73h79l-40 -254h93l-11 -69l-95 -17l-28 -177h-101z" />
    <glyph glyph-name="five" unicode="5" horiz-adv-x="623" 
d="M329 -5q-61 0 -123 3.5t-113 8.5l13 79h241q42 0 73.5 13.5t51 38.5t24.5 57l11 72q2 7 2.5 14t0.5 12q0 37 -23 57.5t-72 20.5h-72q-42 0 -68 -18t-38 -57h-96l90 441h426l-15 -90h-330l-48 -236q15 19 44 32.5t68 13.5h86q76 0 113.5 -38t37.5 -98q0 -9 -0.5 -18
t-1.5 -19l-18 -109q-9 -61 -44.5 -101t-91 -59.5t-128.5 -19.5z" />
    <glyph glyph-name="six" unicode="6" horiz-adv-x="618" 
d="M273 -3q-51 0 -88 18t-57 63.5t-20 128.5q0 87 12 167t37 147t65.5 116.5t96.5 77.5t130 28q45 0 94.5 -3t88.5 -9l-13 -78h-179q-52 0 -94.5 -27t-72 -80t-42.5 -134q28 5 62 8t68.5 4t63.5 1q60 0 100 -12.5t60.5 -39t20.5 -69.5q0 -9 -1 -18.5t-3 -19.5l-17 -104
q-9 -61 -37.5 -97t-71 -52t-91.5 -16h-112zM306 87h73q27 0 49.5 8t38.5 28t21 56l11 69q2 7 2.5 13t0.5 12q0 27 -14 41t-39.5 19.5t-62.5 5.5h-167q-5 -37 -8 -67t-3 -55q0 -50 11 -78.5t33 -40t54 -11.5z" />
    <glyph glyph-name="seven" unicode="7" horiz-adv-x="547" 
d="M138 0l351 636h-353l16 101h452l22 -48l-370 -689h-118z" />
    <glyph glyph-name="eight" unicode="8" horiz-adv-x="638" 
d="M253 -3q-59 0 -94 15t-50 41t-15 58q0 9 1 17.5t2 16.5l17 107q6 34 23 59.5t40.5 41.5t46.5 21q-32 16 -45.5 40t-13.5 52q0 9 1 18.5t3 19.5l13 85q9 59 36.5 92t67.5 47t86 14h145q64 0 97 -25.5t33 -84.5q0 -10 -1 -20.5t-3 -22.5l-13 -85q-3 -16 -9.5 -34.5t-18 -36
t-27.5 -30.5t-36 -18q37 -8 53 -35.5t16 -60.5q0 -9 -1 -16.5t-2 -15.5l-17 -109q-9 -57 -35.5 -89.5t-66.5 -47t-89 -14.5h-144zM287 83h98q50 0 74.5 20.5t30.5 60.5l13 84q1 7 1.5 12.5t0.5 10.5q0 32 -19.5 47t-64.5 15h-95q-15 0 -33 -4.5t-34 -14.5t-28.5 -26.5
t-16.5 -39.5l-13 -84q-1 -5 -1.5 -9.5t-0.5 -8.5q0 -34 24.5 -48.5t63.5 -14.5zM340 419h94q33 0 53 12.5t31 32t14 39.5l9 63q2 8 2.5 15.5t0.5 13.5q0 35 -17.5 48t-50.5 13h-98q-46 0 -69.5 -20t-32.5 -70l-9 -63q-1 -5 -1.5 -10.5t-0.5 -10.5q0 -29 18 -46t57 -17z" />
    <glyph glyph-name="nine" unicode="9" horiz-adv-x="618" 
d="M461 741q51 0 88 -18t57 -63.5t20 -128.5q0 -87 -12 -167t-37 -147t-65.5 -116.5t-96.5 -77.5t-130 -28q-45 0 -94.5 3t-88.5 9l13 78h179q52 0 94.5 27t72 80t42.5 134q-28 -5 -62 -8t-68.5 -4t-63.5 -1q-60 0 -100 12.5t-60.5 39t-20.5 69.5q0 9 1 18.5t3 19.5l17 104
q9 61 37.5 97t71 52t91.5 16h112zM428 651h-73q-27 0 -49.5 -8t-38.5 -28t-21 -56l-11 -69q-2 -7 -2.5 -13t-0.5 -12q0 -27 14 -41t39.5 -19.5t62.5 -5.5h167q5 37 8 67t3 55q0 50 -11 78.5t-33 40t-54 11.5z" />
    <glyph glyph-name="colon" unicode=":" horiz-adv-x="210" 
d="M77 -1q-15 0 -15 14v1.5v1.5l14 87q2 18 20 18h57q15 0 15 -13v-2.5v-2.5l-14 -87q-1 -9 -6.5 -13t-13.5 -4h-57zM143 414q-15 0 -15 14v1.5v1.5l14 87q2 18 20 18h57q15 0 15 -13v-2.5v-2.5l-14 -87q-1 -9 -6.5 -13t-13.5 -4h-57z" />
    <glyph glyph-name="semicolon" unicode=";" horiz-adv-x="210" 
d="M143 414q-15 0 -15 14v1.5v1.5l14 87q2 18 20 18h57q15 0 15 -13v-2.5v-2.5l-14 -87q-1 -9 -6.5 -13t-13.5 -4h-57zM82 -82q-13 0 -22 2.5l-9 2.5l5 31q12 0 18 4t7 14l6 34h-9q-15 0 -15 15q0 2 0.5 5t1.5 7l11 68q2 20 21 20h55q15 0 15 -14q0 -2 -0.5 -6t-1.5 -8
l-19 -118q-4 -24 -14.5 -36.5t-23.5 -16.5t-26 -4z" />
    <glyph glyph-name="less" unicode="&#x3c;" horiz-adv-x="609" 
d="M527 168l-393 136l14 90l436 134l-14 -88l-333 -90l304 -94z" />
    <glyph glyph-name="equal" unicode="=" horiz-adv-x="609" 
d="M111 195l14 82h448l-14 -82h-448zM149 435l14 82h448l-14 -82h-448z" />
    <glyph glyph-name="greater" unicode="&#x3e;" horiz-adv-x="609" 
d="M131 168l14 88l333 95l-304 89l14 88l394 -134l-14 -90z" />
    <glyph glyph-name="question" unicode="?" horiz-adv-x="530" 
d="M195 200l27 170h56q48 0 80 9.5t50.5 32t24.5 62.5l8 51q2 11 2.5 20t0.5 17q0 47 -28 67t-85 20q-48 0 -93 -9.5t-97 -27.5l12 72q53 27 108.5 41t115.5 14q89 0 130 -40.5t41 -107.5q0 -24 -4 -52l-11 -67q-14 -90 -73 -135t-174 -45l-14 -92h-77zM176 -1q-15 0 -15 14
v1.5v1.5l14 87q3 18 21 18h57q14 0 14 -13v-2.5v-2.5l-14 -87q-1 -9 -6.5 -13t-13.5 -4h-57z" />
    <glyph glyph-name="at" unicode="@" horiz-adv-x="919" 
d="M238 -188q-65 0 -106 23t-60 62.5t-19 86.5q0 12 1.5 23.5t2.5 24.5l79 489q8 51 26.5 87.5t49 61t72.5 36t97 11.5h377q58 0 95.5 -20.5t56.5 -57.5t19 -86q0 -28 -5 -59l-47 -313q-4 -31 -18 -63t-39 -59t-62.5 -43t-88.5 -16h-68l-14 58q-10 -11 -29.5 -23t-44 -21
t-52 -14.5t-52.5 -5.5q-41 0 -76 18t-56 59t-21 111q0 115 37.5 195t99.5 122t135 42q62 0 113 -17.5t86 -48.5l-61 -406q18 0 38 3.5t40 15.5t34.5 36.5t20.5 65.5l47 313q2 12 3 22.5t1 20.5q0 54 -32 75.5t-81 21.5h-370q-54 0 -86 -20t-47 -52t-21 -68l-77 -480
q-3 -17 -3 -33q0 -48 29 -76t84 -28h385l-9 -56q-25 -4 -69 -8.5t-101.5 -7t-120.5 -2.5h-93zM433 73q39 0 82 10.5t80 40.5l47 314q-34 15 -62.5 20.5t-56.5 5.5q-53 0 -95.5 -32.5t-67.5 -93t-25 -145.5q0 -45 13 -71t35 -37.5t50 -11.5z" />
    <glyph glyph-name="A" unicode="A" horiz-adv-x="682" 
d="M31 0l367 737h128l126 -737h-104l-33 193h-284l-96 -193h-104zM270 283h234l-57 365z" />
    <glyph glyph-name="B" unicode="B" horiz-adv-x="620" 
d="M70 0l116 737h266q67 0 107 -18t57 -50.5t17 -76.5q0 -13 -1 -25.5t-3 -25.5q-10 -63 -47 -103.5t-89 -52.5q27 -7 51.5 -25t40 -48t15.5 -76q0 -10 -0.5 -24t-5.5 -35q-16 -90 -77.5 -133.5t-171.5 -43.5h-275zM184 90h175q46 0 74.5 14t44.5 41t24 65q2 10 2.5 19
t0.5 16q0 46 -28.5 71t-78.5 25h-174zM236 420h173q52 0 80.5 28t38.5 75q3 13 4.5 23.5t1.5 20.5q0 43 -26.5 61.5t-76.5 18.5h-159z" />
    <glyph glyph-name="C" unicode="C" horiz-adv-x="590" 
d="M323 -6q-115 0 -168.5 62t-53.5 176q0 36 4.5 76.5t10.5 77.5q18 116 54 195.5t97 120.5t152 41q80 0 136 -11.5t93 -22.5l-13 -78q-46 9 -96.5 15.5t-104.5 6.5q-46 0 -81 -14.5t-61 -47.5t-44.5 -88t-32.5 -137q-5 -35 -9 -71t-4 -64q0 -77 33 -112t114 -35
q72 0 115.5 3.5t85.5 9.5l-13 -78q-49 -14 -105.5 -19.5t-108.5 -5.5z" />
    <glyph glyph-name="D" unicode="D" horiz-adv-x="678" 
d="M69 0l117 737h269q91 0 142 -30.5t72 -88t21 -138.5q0 -31 -3 -64t-8 -66q-13 -83 -39.5 -148t-67.5 -110t-99 -68.5t-134 -23.5h-270zM184 90h164q53 0 92 20.5t66.5 57.5t45 88t27.5 113q5 33 8 61t3 48q0 57 -14.5 94.5t-49 56t-95.5 18.5h-160z" />
    <glyph glyph-name="E" unicode="E" horiz-adv-x="583" 
d="M232 -6q-27 0 -54.5 5.5t-49.5 22t-33 47.5t-3 79l69 436q9 59 35.5 92.5t63.5 47.5t79 13q75 -1 149.5 -3.5t150.5 -6.5l-13 -83h-275q-39 0 -62.5 -19.5t-30.5 -65.5l-23 -146l308 -8l-13 -78l-310 -5l-24 -152q-4 -32 4 -50t26 -25t44 -7h269l-13 -83
q-71 -3 -144 -6.5t-150 -4.5z" />
    <glyph glyph-name="F" unicode="F" horiz-adv-x="557" 
d="M69 0l92 582q10 64 37.5 97.5t64 46t75.5 11.5q81 -1 154.5 -3.5t145.5 -7.5l-13 -82h-276q-41 0 -62.5 -20t-28.5 -64l-26 -161l309 -7l-13 -78l-309 -6l-50 -308h-100z" />
    <glyph glyph-name="G" unicode="G" horiz-adv-x="650" 
d="M291 -6q-104 0 -147.5 55.5t-43.5 173.5q0 40 4.5 82.5t11.5 86.5q18 111 56 190t101 120.5t156 41.5q86 0 142 -9.5t101 -23.5l-12 -77q-38 8 -93.5 14t-128.5 6q-71 0 -115 -31.5t-68.5 -94.5t-39.5 -160q-13 -85 -13 -141q0 -71 28.5 -105.5t94.5 -34.5q22 0 48.5 3.5
t52.5 8.5t47.5 11t33.5 10l31 196h-164l13 79q26 3 68 5t100 2q14 0 31.5 -0.5t34 -1t28.5 -0.5l-64 -400h-74l-7 51q-14 -7 -38.5 -17t-55 -19t-61.5 -15t-58 -6z" />
    <glyph glyph-name="H" unicode="H" horiz-adv-x="674" 
d="M69 0l117 737h100l-52 -331h339l53 331h101l-117 -737h-101l50 316h-340l-50 -316h-100z" />
    <glyph glyph-name="I" unicode="I" horiz-adv-x="238" 
d="M69 0l117 737h100l-117 -737h-100z" />
    <glyph glyph-name="J" unicode="J" horiz-adv-x="363" 
d="M142 -6q-32 0 -61.5 7t-48.5 16l13 79q20 -6 41.5 -8t40.5 -2q49 0 77 26.5t37 82.5l86 542h101l-89 -561q-16 -97 -63 -139.5t-134 -42.5z" />
    <glyph glyph-name="K" unicode="K" horiz-adv-x="611" 
d="M69 0l117 737h100l-51 -322h120l234 322h104l-264 -369l162 -368h-101l-144 324h-126l-51 -324h-100z" />
    <glyph glyph-name="L" unicode="L" horiz-adv-x="526" 
d="M225 0q-61 0 -97.5 26.5t-36.5 91.5q0 10 1 20.5t2 20.5l92 578h100l-90 -566q-1 -7 -1.5 -12.5t-0.5 -12.5q0 -33 19.5 -44.5t50.5 -11.5h254l-15 -90h-278z" />
    <glyph glyph-name="M" unicode="M" horiz-adv-x="831" 
d="M53 0l203 737h94l96 -610l290 610h93l-30 -737h-98l25 555l-253 -555h-94l-78 551l-148 -551h-100z" />
    <glyph glyph-name="N" unicode="N" horiz-adv-x="676" 
d="M69 0l117 737h81l271 -566l90 566h101l-117 -737h-82l-271 567l-90 -567h-100z" />
    <glyph glyph-name="O" unicode="O" horiz-adv-x="690" 
d="M342 -6q-55 0 -100 9t-77 33t-49 68t-17 113q0 35 4 76.5t11 88.5q18 108 45.5 178.5t69.5 110t99.5 56t134.5 16.5q54 0 98.5 -9.5t77 -35.5t50 -71.5t17.5 -116.5q0 -33 -4 -75.5t-12 -88.5q-17 -110 -45.5 -179t-70 -107t-99 -52t-133.5 -14zM359 85q52 0 90 12.5
t64.5 43t45 84t31.5 136.5q7 45 11 83t4 65q0 61 -18 91.5t-53 41.5t-86 11q-50 0 -88 -12t-65.5 -43t-46.5 -87t-33 -145q-7 -43 -11.5 -80.5t-4.5 -63.5q0 -56 17 -86t52.5 -40.5t90.5 -10.5z" />
    <glyph glyph-name="P" unicode="P" horiz-adv-x="603" 
d="M69 0l117 737h284q49 0 89 -16t63.5 -54.5t23.5 -107.5q0 -14 -2.5 -35t-5.5 -38q-10 -67 -33.5 -111t-55 -69.5t-68 -36.5t-72.5 -11q-49 0 -103 4.5t-94 9.5l-43 -272h-100zM224 349h173q34 0 63 14t49.5 47t28.5 86q2 14 4 30t2 24q0 53 -24.5 75t-69.5 22h-179z" />
    <glyph glyph-name="Q" unicode="Q" horiz-adv-x="690" 
d="M490 -178q-45 0 -81 14t-57.5 45.5t-22.5 81.5h69q7 -38 29.5 -53.5t62.5 -15.5q19 0 38.5 3t36.5 8l-12 -76q-28 -7 -63 -7zM342 -6q-55 0 -100 9t-77 33t-49 68t-17 113q0 35 4 76.5t11 88.5q18 108 45.5 178.5t69.5 110t99.5 56t134.5 16.5q54 0 98.5 -9.5t77 -35.5
t50 -71.5t17.5 -116.5q0 -33 -4 -75.5t-12 -88.5q-17 -110 -45.5 -179t-70 -107t-99 -52t-133.5 -14zM359 85q52 0 90 12.5t64.5 43t45 84t31.5 136.5q7 45 11 83t4 65q0 61 -18 91.5t-53 41.5t-86 11q-50 0 -88 -12t-65.5 -43t-46.5 -87t-33 -145q-7 -43 -11.5 -80.5
t-4.5 -63.5q0 -56 17 -86t52.5 -40.5t90.5 -10.5z" />
    <glyph glyph-name="R" unicode="R" horiz-adv-x="622" 
d="M69 0l117 737h272q37 0 70.5 -8.5t59 -28t40.5 -53t15 -84.5q0 -14 -1.5 -29t-4.5 -32q-9 -56 -27.5 -92t-42 -56.5t-47.5 -30t-43 -14.5l98 -309h-102l-89 294q-15 0 -36.5 0.5t-45.5 1t-46.5 1t-39.5 0.5l-47 -297h-100zM229 375h169q36 0 63.5 11t46.5 39.5t28 83.5
q2 12 2.5 22t0.5 19q0 39 -14.5 59.5t-37 29t-49.5 8.5h-167z" />
    <glyph glyph-name="S" unicode="S" horiz-adv-x="570" 
d="M302 -6q-44 0 -88 3t-81 7t-64 10l12 78q43 -4 103.5 -6t118.5 -2q46 0 80 8t54.5 30t26.5 62l7 41q1 8 1.5 14.5t0.5 12.5q0 36 -23 52.5t-75 16.5h-80q-77 0 -118.5 35.5t-41.5 101.5q0 19 3 40l10 62q11 72 43.5 111.5t83.5 55.5t117 16q21 0 49 -1.5t58.5 -4.5
t59.5 -7t53 -9l-12 -78q-34 3 -74 4.5t-78.5 2.5t-65.5 1q-40 0 -69 -8t-46.5 -30t-24.5 -63l-6 -41q-1 -8 -2 -14.5t-1 -13.5q0 -36 21 -50.5t64 -14.5h82q86 0 128.5 -37.5t42.5 -103.5q0 -18 -3 -40l-10 -68q-10 -64 -41.5 -102t-85 -54.5t-129.5 -16.5z" />
    <glyph glyph-name="T" unicode="T" horiz-adv-x="607" 
d="M248 0l102 647h-222l14 90h546l-15 -90h-222l-102 -647h-101z" />
    <glyph glyph-name="U" unicode="U" horiz-adv-x="680" 
d="M341 -6q-114 0 -173 48.5t-59 162.5q0 26 3.5 60t9.5 69l64 403h100l-66 -417q-4 -30 -7.5 -58t-3.5 -50q0 -70 35.5 -99t107.5 -29q43 0 76.5 9t59 33.5t44 71t30.5 122.5l66 417h100l-68 -431q-16 -100 -44 -162t-68 -94.5t-91.5 -44t-115.5 -11.5z" />
    <glyph glyph-name="V" unicode="V" horiz-adv-x="683" 
d="M274 0l-126 737h104l103 -628l310 628h103l-366 -737h-128z" />
    <glyph glyph-name="W" unicode="W" horiz-adv-x="1012" 
d="M236 0l-88 737h105l70 -592l242 592h97l48 -592l265 592h104l-327 -737h-106l-55 590l-249 -590h-106z" />
    <glyph glyph-name="X" unicode="X" horiz-adv-x="628" 
d="M491 0l-155 332l-193 405h111l157 -339l190 -398h-110zM30 0l302 394l40 -89l-229 -305h-113zM411 337l-39 86l237 314h114z" />
    <glyph glyph-name="Y" unicode="Y" horiz-adv-x="622" 
d="M252 0l37 233l-151 504h110l108 -393l247 393h114l-327 -504l-37 -233h-101z" />
    <glyph glyph-name="Z" unicode="Z" horiz-adv-x="562" 
d="M38 0l14 86l449 561h-361l15 90h476l-14 -86l-449 -561h370l-14 -90h-486z" />
    <glyph glyph-name="bracketleft" unicode="[" horiz-adv-x="335" 
d="M215 -210q-56 0 -85.5 21t-40.5 53t-11 66q0 14 1.5 28t2.5 27l107 671q5 36 18 68.5t35 59.5t56.5 42.5t82.5 15.5h68l-13 -81h-41q-39 0 -68 -27t-40 -91l-104 -654l-2 -18t-1 -18q0 -38 18 -60t56 -22h41l-12 -81h-68z" />
    <glyph glyph-name="backslash" unicode="\" horiz-adv-x="421" 
d="M290 -72l-148 842h100l148 -842h-100z" />
    <glyph glyph-name="bracketright" unicode="]" horiz-adv-x="335" 
d="M-13 -210l12 81h41q32 0 54 14.5t35.5 41.5t18.5 62l104 654q2 11 2.5 20t0.5 17q0 43 -20 62t-54 19h-41l13 81h68q52 0 82 -18t43 -48t13 -68q0 -13 -1 -26t-3 -26l-107 -671q-4 -29 -15.5 -63t-32.5 -64t-56.5 -49t-88.5 -19h-68z" />
    <glyph glyph-name="asciicircum" unicode="^" horiz-adv-x="394" 
d="M134 531l139 135h70l86 -135h-60l-71 86l-104 -86h-60z" />
    <glyph glyph-name="underscore" unicode="_" horiz-adv-x="609" 
d="M-27 -173l13 83h609l-13 -83h-609z" />
    <glyph glyph-name="grave" unicode="`" horiz-adv-x="220" 
d="M242 631l-100 138h83l76 -138h-59z" />
    <glyph glyph-name="a" unicode="a" horiz-adv-x="566" 
d="M234 -6q-43 0 -78 18.5t-55.5 59t-20.5 104.5q0 27 3.5 56t7.5 50q13 88 46 145.5t89.5 85.5t141.5 28q39 0 79 -7t74.5 -20.5t57.5 -33.5l-76 -480h-87l-4 56q-14 -11 -43.5 -25.5t-65 -25.5t-69.5 -11zM278 76q43 0 77.5 14.5t66.5 30.5l49 313q-13 8 -41 16.5t-67 8.5
q-56 0 -90.5 -20.5t-54 -62t-29.5 -104.5q-4 -25 -6.5 -45t-2.5 -34q0 -57 26 -87t72 -30z" />
    <glyph glyph-name="b" unicode="b" horiz-adv-x="574" 
d="M345 -6q-32 0 -64 8t-59.5 21.5t-48.5 29.5l-22 -53h-87l121 763h100l-43 -272q42 24 89.5 37t80.5 13q74 0 119.5 -46.5t45.5 -135.5q0 -23 -3.5 -54t-8.5 -65q-12 -76 -41.5 -131t-74 -85t-104.5 -30zM317 76q64 0 100.5 47t51.5 143q3 23 5 42t2 36q0 63 -27 89
t-68 26q-36 0 -75 -11t-75 -28l-47 -303q25 -16 57 -28.5t76 -12.5z" />
    <glyph glyph-name="c" unicode="c" horiz-adv-x="479" 
d="M273 -6q-57 0 -100 17.5t-67 59.5t-24 120q0 18 3 42.5t7 51.5q14 93 48 149t85 81.5t115 25.5q40 0 88 -6t89 -14l-10 -59h-147q-46 0 -79.5 -18.5t-56.5 -61.5t-35 -116q-3 -22 -5 -38.5t-2 -28.5q0 -49 14 -77t41 -39.5t67 -11.5h152l-9 -57q-33 -9 -75.5 -14.5
t-98.5 -5.5z" />
    <glyph glyph-name="d" unicode="d" horiz-adv-x="569" 
d="M236 -6q-71 0 -112.5 46.5t-41.5 133.5q0 56 11 111q15 79 41.5 136t80 88.5t145.5 31.5q36 0 67 -5.5t59 -18.5l39 246h101l-121 -763h-87l-5 56q-21 -16 -49.5 -30t-61 -23t-66.5 -9zM276 76q43 0 79 13.5t68 31.5l50 313q-22 12 -48 18.5t-61 6.5q-53 0 -87 -18.5
t-54.5 -60.5t-32.5 -113q-4 -21 -6 -39.5t-2 -35.5q0 -43 13 -68.5t34 -36.5t47 -11z" />
    <glyph glyph-name="e" unicode="e" horiz-adv-x="548" 
d="M298 -6q-77 0 -124.5 22t-69 65t-21.5 104q0 30 3 57t7 53q13 83 46.5 138t90 82.5t137.5 27.5q42 0 77.5 -7.5t61.5 -24.5t41.5 -46t15.5 -73q0 -54 -20 -89t-54.5 -54t-78.5 -26.5t-91 -7.5q-44 0 -79.5 4.5t-54.5 9.5q-2 -13 -2.5 -27t-0.5 -27q0 -55 35.5 -80
t117.5 -25h165l-9 -60q-34 -6 -85.5 -11t-107.5 -5zM288 275q57 0 97 9.5t61.5 33t21.5 64.5q0 44 -26.5 63.5t-81.5 19.5q-54 0 -88 -21.5t-53 -62t-27 -98.5q19 -3 44.5 -5.5t51.5 -2.5z" />
    <glyph glyph-name="f" unicode="f" horiz-adv-x="378" 
d="M102 0l71 452h-79l10 65l82 18l14 81q5 31 15.5 58.5t30 49t50.5 33.5t77 12q32 0 64 -2t55 -6l-11 -73h-92q-33 0 -51.5 -11t-28 -32.5t-13.5 -53.5l-9 -56h152l-13 -83h-152l-71 -452h-101z" />
    <glyph glyph-name="g" unicode="g" horiz-adv-x="569" 
d="M188 -235l-142 8l11 69h165q43 0 80 10.5t62 35t32 65.5l17 103q-27 -19 -59.5 -33t-65.5 -21.5t-62 -7.5q-44 0 -76.5 22.5t-50.5 63t-18 93.5q0 26 4 58t8 61q11 67 33.5 114.5t57 76.5t81.5 43.5t106 14.5q71 0 127 -8.5t88 -17.5l-92 -577q-9 -54 -35.5 -89.5
t-67.5 -55t-93 -26t-110 -2.5zM273 76q40 0 75 11.5t75 33.5l52 331q-27 3 -54.5 4.5t-54.5 2.5q-51 2 -86 -16.5t-56.5 -58.5t-32.5 -104q-4 -30 -6.5 -50.5t-2.5 -40.5q0 -58 26 -85.5t65 -27.5z" />
    <glyph glyph-name="h" unicode="h" horiz-adv-x="580" 
d="M64 0l121 763h100l-45 -286q38 27 90 46t114 19q65 0 99.5 -32t34.5 -99q0 -24 -4 -55l-57 -356h-100l54 343q1 9 1.5 16.5t0.5 15.5q0 43 -22.5 60t-61.5 17q-47 0 -84 -13.5t-77 -39.5l-64 -399h-100z" />
    <glyph glyph-name="i" unicode="i" horiz-adv-x="227" 
d="M176 625q-7 0 -11.5 5t-2.5 12l13 84q3 18 20 18h75q8 0 11 -5t2 -13l-13 -84q-3 -17 -19 -17h-75zM64 0l84 535h101l-85 -535h-100z" />
    <glyph glyph-name="j" unicode="j" horiz-adv-x="227" 
d="M176 625q-7 0 -11.5 5t-2.5 12l13 84q3 18 20 18h75q8 0 11 -5t2 -13l-13 -84q-3 -17 -19 -17h-75zM26 -237l122 772h101l-86 -539q-9 -60 -26.5 -120t-37.5 -113h-73z" />
    <glyph glyph-name="k" unicode="k" horiz-adv-x="538" 
d="M64 0l121 763h100l-69 -435q56 5 102 27t80 66t54 114h100q-20 -73 -49.5 -120.5t-63 -76.5t-67.5 -45l152 -293h-105l-132 262q-20 -5 -43 -8t-40 -3l-40 -251h-100z" />
    <glyph glyph-name="l" unicode="l" horiz-adv-x="302" 
d="M222 0q-66 0 -101 30t-35 81q0 20 2 38.5t5 34.5l92 579h100l-87 -548q-1 -9 -3 -22.5t-3.5 -27.5t-1.5 -27q0 -32 15 -44.5t42 -15.5l48 -6l-12 -72h-61z" />
    <glyph glyph-name="m" unicode="m" horiz-adv-x="933" 
d="M64 0l84 535h82l10 -58q41 27 91 46t111 19q55 0 85 -20t47 -60q47 39 104.5 59.5t110.5 20.5q72 0 107 -32.5t35 -96.5q0 -16 -1.5 -33t-4.5 -32l-55 -348h-101l55 346q2 6 2.5 13.5t0.5 14.5q0 78 -87 78q-47 0 -86.5 -16t-79.5 -43q1 -10 0.5 -23.5t-3.5 -30.5
l-54 -339h-100l54 340q1 11 2 18t1 17q0 36 -20 56.5t-66 20.5q-49 0 -85 -15t-75 -38l-64 -399h-100z" />
    <glyph glyph-name="n" unicode="n" horiz-adv-x="580" 
d="M64 0l84 535h82l10 -58q40 28 91.5 46.5t109.5 18.5q48 0 78.5 -16t44.5 -44t14 -64q0 -14 -1.5 -33t-8.5 -66l-51 -319h-100l50 316q4 28 5.5 39.5t1.5 19.5q0 34 -19 55.5t-67 21.5q-47 0 -83.5 -14t-76.5 -39l-64 -399h-100z" />
    <glyph glyph-name="o" unicode="o" horiz-adv-x="569" 
d="M284 -6q-63 0 -108.5 19t-69.5 59t-24 105q0 26 2 50t6 49q13 80 35 131.5t55 80.5t79.5 41t110.5 12q77 0 121 -21t61.5 -63.5t17.5 -105.5q0 -24 -2.5 -51t-6.5 -56q-15 -98 -48.5 -152.5t-89 -76t-139.5 -21.5zM295 76q37 0 64 7.5t46 27t32.5 56t23.5 93.5
q4 28 6.5 51.5t2.5 43.5q0 58 -26.5 82t-88.5 24q-38 0 -65 -9t-46 -30.5t-32 -61t-23 -100.5q-4 -23 -5.5 -42.5t-1.5 -36.5q0 -43 14 -65.5t39.5 -31t59.5 -8.5z" />
    <glyph glyph-name="p" unicode="p" horiz-adv-x="567" 
d="M26 -237l120 758q55 9 116 14.5t135 5.5q89 0 131 -46t42 -140q0 -25 -2.5 -52t-7.5 -52q-13 -83 -44.5 -140t-82.5 -87t-122 -30q-41 0 -76.5 6.5t-66.5 21.5l-42 -259h-100zM301 80q50 0 82 21t51.5 63.5t29.5 106.5q2 15 4.5 33t2.5 35q0 60 -23.5 90t-76.5 30
l-135 -1l-57 -357q24 -7 42 -12t36.5 -7t43.5 -2z" />
    <glyph glyph-name="q" unicode="q" horiz-adv-x="566" 
d="M365 -237l46 293q-41 -30 -92 -46t-93 -16q-70 0 -107.5 48t-37.5 130q0 26 3 53t7 57q11 69 33.5 118.5t56.5 80t81.5 45.5t109.5 15q59 0 118.5 -7.5t94.5 -18.5l-120 -752h-100zM272 76q40 0 76.5 13t73.5 32l52 331q-25 3 -49.5 4.5t-49.5 2.5q-60 2 -97.5 -18
t-57 -62t-30.5 -106q-4 -25 -6.5 -46t-2.5 -38q0 -55 25.5 -84t65.5 -29z" />
    <glyph glyph-name="r" unicode="r" horiz-adv-x="403" 
d="M64 0l85 535h87l3 -67q31 29 70.5 51t87.5 22q19 0 34.5 -1.5t27.5 -5.5l-15 -101q-15 3 -32 4t-35 1q-47 0 -84.5 -15t-66.5 -34l-61 -389h-101z" />
    <glyph glyph-name="s" unicode="s" horiz-adv-x="508" 
d="M271 -6q-27 0 -57 1t-60 3.5t-55 6t-41 6.5l9 60h226q41 0 66.5 14t30.5 47l6 33q1 5 1 7.5v5.5q0 47 -61 47h-93q-44 0 -76 10t-49 31.5t-17 54.5q0 10 1 21t3 23l7 41q7 40 28 70.5t62.5 47.5t109.5 17q29 0 66.5 -2.5t74 -6.5t61.5 -9l-11 -60h-210q-44 0 -64.5 -15.5
t-26.5 -47.5l-5 -27q-2 -10 -2.5 -16.5t-0.5 -12.5q0 -19 15.5 -27.5t52.5 -8.5h98q59 0 95 -27t36 -77q0 -8 -0.5 -17t-1.5 -18l-8 -48q-11 -70 -66.5 -98.5t-143.5 -28.5z" />
    <glyph glyph-name="t" unicode="t" horiz-adv-x="392" 
d="M272 0q-71 0 -107 29.5t-36 86.5q0 20 2.5 42t6.5 47l43 248h-84l10 65l89 17l39 150h79l-24 -150h145l-13 -82h-145l-40 -249q-2 -13 -4.5 -30.5t-2.5 -32.5q0 -29 15.5 -43.5t47.5 -17.5l63 -6l-12 -74h-72z" />
    <glyph glyph-name="u" unicode="u" horiz-adv-x="580" 
d="M222 -6q-70 0 -103 33.5t-33 91.5q0 18 1.5 32.5t3.5 26.5l56 357h101l-55 -348q-1 -7 -1.5 -14t-0.5 -15q0 -37 21 -55.5t64 -18.5q47 0 84 14t77 37l63 400h101l-85 -535h-87l-4 57q-30 -19 -60 -33t-64.5 -22t-78.5 -8z" />
    <glyph glyph-name="v" unicode="v" horiz-adv-x="542" 
d="M202 0l-111 535h103l81 -438l162 308q17 34 27 66t15 72h90q-1 -46 -17.5 -92t-39.5 -90l-196 -361h-114z" />
    <glyph glyph-name="w" unicode="w" horiz-adv-x="830" 
d="M187 0l-96 535h103l69 -437l181 437h70l77 -438l138 324q6 13 12.5 34t12.5 44.5t8 43.5h95q0 -26 -6.5 -55t-16 -56.5t-19.5 -49.5l-183 -382h-107l-68 374l-163 -374h-107z" />
    <glyph glyph-name="x" unicode="x" horiz-adv-x="537" 
d="M412 0l-136 233l-174 302h102l146 -250l165 -285h-103zM22 0l252 295l28 -92l-175 -203h-105zM345 233l-36 84l176 218h110z" />
    <glyph glyph-name="y" unicode="y" horiz-adv-x="563" 
d="M97 -237v73q52 12 100.5 48.5t86.5 115.5q-37 4 -63 16.5t-42 40t-23 74.5l-60 404h103l47 -383q4 -27 14.5 -41.5t25.5 -19.5t31 -7l151 343q10 25 19.5 55t11.5 61h91q0 -42 -10 -86.5t-34 -95.5l-170 -356q-40 -85 -83 -135.5t-91 -75t-105 -31.5z" />
    <glyph glyph-name="z" unicode="z" horiz-adv-x="499" 
d="M50 1l11 73l342 379h-295l13 82h410l-11 -75l-342 -378h293l-1 -8.5t-3.5 -20.5t-4 -24t-3 -20l-1.5 -8h-408z" />
    <glyph glyph-name="braceleft" unicode="{" horiz-adv-x="312" 
d="M278 -210q-66 0 -104 15t-54 42.5t-16 64.5q0 16 4.5 50.5t12 76t14.5 82.5t12 71.5t5 38.5q0 30 -15.5 42.5t-52.5 12.5l15 95q17 2 35.5 7.5t33 18.5t17.5 38l34 211q10 66 35 107t71.5 60t119.5 19l-14 -81q-33 0 -55.5 -9.5t-36.5 -36t-23 -78.5l-32 -208
q-7 -45 -36.5 -67.5t-70.5 -27.5q39 -6 59 -27.5t20 -52.5q0 -8 -3.5 -31.5t-9 -55.5t-11.5 -68l-11.5 -69t-9 -56.5t-3.5 -33.5q0 -40 20 -56.5t62 -16.5z" />
    <glyph glyph-name="bar" unicode="|" horiz-adv-x="252" 
d="M74 -72l133 842h82l-133 -842h-82z" />
    <glyph glyph-name="braceright" unicode="}" horiz-adv-x="312" 
d="M-12 -210l12 77q36 0 58.5 11.5t36 36t19.5 62.5l39 245q6 37 33 61t72 31q-35 4 -56.5 22.5t-21.5 53.5q0 12 4 42t10.5 69t12.5 77.5t10 67t4 38.5q0 43 -20 60t-59 17l13 81q62 0 99.5 -17t54 -48t16.5 -72q0 -5 -3 -26.5t-7.5 -52t-10 -65t-10 -66t-7.5 -53.5t-3 -28
q0 -20 10.5 -31t26 -15.5t30.5 -6.5l-15 -95q-31 0 -55 -14t-31 -50l-38 -240q-6 -40 -19.5 -72t-38.5 -54.5t-65.5 -34t-100.5 -11.5z" />
    <glyph glyph-name="asciitilde" unicode="~" horiz-adv-x="442" 
d="M369 536q-16 0 -30.5 9t-28 19.5t-27.5 19t-27 8.5q-28 0 -52.5 -12t-52.5 -31l-8 35q26 25 57 45t66 20q15 0 29.5 -8.5t29 -19.5t27.5 -19.5t25 -8.5q20 0 38.5 7.5t34.5 18.5t29 21l9 -37q-25 -25 -54.5 -46t-64.5 -21z" />
    <glyph glyph-name="uni00A0" unicode="&#xa0;" horiz-adv-x="241" 
 />
    <glyph glyph-name="exclamdown" unicode="&#xa1;" horiz-adv-x="268" 
d="M226 335l-72 -535h-101l100 535h73zM250 537q15 0 15 -14v-1.5v-1.5l-15 -87q-2 -18 -20 -18h-57q-15 0 -15 13v2.5v2.5l14 87q2 9 7.5 13t13.5 4h57z" />
    <glyph glyph-name="cent" unicode="&#xa2;" horiz-adv-x="487" 
d="M220 -88l13 83q-45 3 -81.5 18.5t-57.5 54.5t-21 112q0 76 18.5 141t52 112.5t79 74.5t98.5 28l14 89h58l-14 -90q33 -3 70.5 -10.5t70.5 -19.5l-9 -59q-23 5 -64 9t-97 4q-42 0 -74.5 -22t-55 -60.5t-34.5 -88.5t-12 -106q0 -45 13 -68.5t38 -32.5t60 -9q42 0 74 2.5
t57 6t44 7.5l-9 -60q-44 -17 -81 -23.5t-78 -9.5l-13 -83h-59z" />
    <glyph glyph-name="sterling" unicode="&#xa3;" horiz-adv-x="609" 
d="M62 0l12 76l106 14l38 238l-103 8l8 51l107 14l17 110q14 88 47.5 137.5t86 70.5t123.5 21q44 0 84 -3.5t67 -7.5l-13 -79h-148q-41 0 -70.5 -10t-47.5 -38t-27 -81l-19 -120l203 -9l-9 -56l-206 -8l-38 -238h283l-14 -90h-487z" />
    <glyph glyph-name="currency" unicode="&#xa4;" horiz-adv-x="609" 
d="M339 187q-42 0 -75.5 20t-53 53.5t-19.5 73.5q0 53 25.5 96t69 69t97.5 26q43 0 76 -20.5t53 -53.5t20 -73q0 -52 -26 -95.5t-69.5 -69.5t-97.5 -26zM138 125l-37 45l125 108l40 -45zM511 125l-89 106l51 45l89 -106zM343 243q37 0 67 15.5t48 44.5t18 70t-27.5 68.5
t-69.5 27.5q-36 0 -65.5 -16t-47.5 -45t-18 -69t27 -68t68 -28zM247 438l-87 104l51 45l88 -104zM498 436l-37 45l123 106l37 -45z" />
    <glyph glyph-name="yen" unicode="&#xa5;" horiz-adv-x="609" 
d="M101 260l9 56h451l-8 -56h-452zM81 130l9 56h451l-9 -56h-451zM236 0l37 233l-152 504h110l108 -393l247 393h115l-328 -504l-37 -233h-100z" />
    <glyph glyph-name="brokenbar" unicode="&#xa6;" horiz-adv-x="252" 
d="M153 429l54 341h82l-54 -341h-82zM74 -72l52 328h82l-52 -328h-82z" />
    <glyph glyph-name="section" unicode="&#xa7;" horiz-adv-x="547" 
d="M315 -6q-23 0 -53 0.5t-62 2t-60.5 3.5t-46.5 5l11 70h205q40 0 61.5 8t31 21.5t12.5 31.5q5 30 7 45t2 20q0 17 -13.5 23t-52.5 6h-118q-67 0 -102.5 19.5t-35.5 64.5q0 6 1 14t2 19l7 41q8 46 28 66.5t56 30.5q-25 11 -34.5 30t-9.5 44q0 8 0.5 16.5t1.5 19.5l9 55
q8 45 30 74.5t61.5 44.5t97.5 15q21 0 52.5 -0.5t65.5 -2t63 -4t46 -5.5l-11 -69h-215q-27 0 -47 -5.5t-32 -20t-17 -41.5q-4 -27 -6 -39t-2 -17q0 -22 16 -29t48 -7h128q69 0 99.5 -19t30.5 -63q0 -14 -3 -31l-8 -48q-6 -39 -24.5 -62t-56.5 -32q26 -8 36 -25t10 -41
q0 -7 -0.5 -16.5t-3.5 -25.5l-9 -48q-7 -53 -33 -83.5t-67.5 -43t-95.5 -12.5zM274 307h95q36 0 53.5 3.5t25.5 15t12 37.5l8 47q1 5 1 9.5v8.5q0 22 -14 30t-49 8h-107q-45 0 -64 -12t-24 -46l-8 -46q-1 -3 -1 -6v-7q0 -20 16 -31t56 -11z" />
    <glyph glyph-name="dieresis" unicode="&#xa8;" horiz-adv-x="409" 
d="M375 648q-14 0 -14 14q0 1 0.5 5t3.5 22l10 60q2 18 20 18h46q15 0 15 -14l-0.5 -4t-4 -22t-9.5 -62q-2 -17 -20 -17h-47zM172 648q-14 0 -14 14q0 1 0.5 5t3.5 22l10 60q2 18 20 18h46q15 0 15 -14l-0.5 -4t-4 -22t-9.5 -62q-2 -17 -20 -17h-47z" />
    <glyph glyph-name="copyright" unicode="&#xa9;" horiz-adv-x="832" 
d="M325 0q-57 0 -98.5 22t-69 59.5t-40.5 86.5t-13 102q0 65 13.5 131.5t41 126t66.5 105.5t90.5 72.5t112.5 26.5h217q71 0 116 -31t66 -83.5t21 -118.5q0 -97 -24 -186.5t-66 -160t-97.5 -111.5t-117.5 -41h-218zM406 147q-33 0 -61.5 12t-45.5 43t-17 88q0 58 15 111
t42 94t62 64.5t75 23.5q20 0 49.5 -2t62.5 -6.5t59 -11.5l-8 -47q-29 5 -58.5 7.5t-54.5 3.5t-41 1q-32 0 -58.5 -19t-45 -51t-28.5 -72t-10 -84q0 -51 21 -75.5t68 -24.5q48 0 90 4.5t75 11.5l-6 -47q-46 -16 -91 -20t-94 -4zM320 55h226q49 0 92.5 34t78.5 93.5t55 139
t20 168.5q0 54 -14 96t-45 66.5t-83 24.5h-231q-51 0 -98 -31.5t-83 -87t-57 -127.5t-21 -153q0 -46 8.5 -86t27.5 -71t50 -48.5t74 -17.5z" />
    <glyph glyph-name="ordfeminine" unicode="&#xaa;" horiz-adv-x="409" 
d="M82 261l8 50h339l-8 -50h-339zM216 356q-47 0 -80.5 31.5t-33.5 102.5q0 19 3 41t5 37q15 96 63.5 142t143.5 46q46 0 90.5 -11.5t71.5 -33.5l-56 -351h-74l-4 40q-10 -8 -31.5 -18.5t-47 -18t-50.5 -7.5zM254 426q29 0 53 9.5t46 21.5l35 214q-10 4 -29.5 9.5t-45.5 5.5
q-39 0 -63 -14t-36.5 -41.5t-20.5 -69.5q-7 -35 -7 -58q0 -37 17.5 -57t50.5 -20z" />
    <glyph glyph-name="guillemotleft" unicode="&#xab;" horiz-adv-x="614" 
d="M269 64l-185 217l249 212l44 -52l-189 -161l140 -164zM519 64l-185 217l249 212l44 -52l-189 -161l140 -164z" />
    <glyph glyph-name="logicalnot" unicode="&#xac;" horiz-adv-x="609" 
d="M477 195l45 284h82l-45 -284h-82zM149 435l14 82h448l-14 -82h-448z" />
    <glyph glyph-name="uni00AD" unicode="&#xad;" horiz-adv-x="341" 
d="M62 249l13 82h297l-13 -82h-297z" />
    <glyph glyph-name="registered" unicode="&#xae;" horiz-adv-x="832" 
d="M325 0q-57 0 -98.5 22t-69 59.5t-40.5 86.5t-13 102q0 65 13.5 131.5t41 126t66.5 105.5t90.5 72.5t112.5 26.5h217q71 0 116 -31t66 -83.5t21 -118.5q0 -97 -24 -186.5t-66 -160t-97.5 -111.5t-117.5 -41h-218zM287 153l68 427h182q29 0 54.5 -7.5t40.5 -28.5t15 -60
q0 -37 -14 -70t-39 -55.5t-58 -28.5l70 -177h-58l-67 178l-106 3l-29 -181h-59zM320 55h226q49 0 92.5 34t78.5 93.5t55 139t20 168.5q0 54 -14 96t-45 66.5t-83 24.5h-231q-51 0 -98 -31.5t-83 -87t-57 -127.5t-21 -153q0 -46 8.5 -86t27.5 -71t50 -48.5t74 -17.5zM382 377
h124q23 0 41.5 13.5t29.5 35.5t11 46q0 30 -16 41.5t-42 11.5h-124z" />
    <glyph glyph-name="macron" unicode="&#xaf;" horiz-adv-x="369" 
d="M155 664l10 60h270l-10 -60h-270z" />
    <glyph glyph-name="degree" unicode="&#xb0;" horiz-adv-x="326" 
d="M242 492q-52 0 -84.5 32t-32.5 83q0 44 19 79.5t54.5 56.5t86.5 21q53 0 83.5 -32t30.5 -83q0 -44 -18 -80t-53.5 -56.5t-85.5 -20.5zM249 539q45 0 74 29.5t29 76.5q0 32 -20 52t-55 20q-45 0 -74.5 -30.5t-29.5 -75.5q0 -32 21 -52t55 -20z" />
    <glyph glyph-name="plusminus" unicode="&#xb1;" horiz-adv-x="609" 
d="M98 115l14 82h448l-14 -82h-448zM308 282l70 448h83l-70 -448h-83zM154 465l13 82h448l-13 -82h-448z" />
    <glyph glyph-name="uni00B2" unicode="&#xb2;" horiz-adv-x="418" 
d="M102 355l10 64l194 166q47 40 66.5 74t19.5 62q0 23 -16.5 36.5t-60.5 13.5h-133l10 62q31 5 70 9t83 4q73 0 103 -26t30 -71q0 -50 -25 -99t-90 -106l-139 -117h222l-12 -72h-332z" />
    <glyph glyph-name="uni00B3" unicode="&#xb3;" horiz-adv-x="418" 
d="M282 351q-53 0 -100.5 3.5t-83.5 8.5l10 63h157q28 0 48 5t32.5 17t15.5 34l4 25q1 4 1 6.5v4.5q0 17 -9 27t-24 15t-32 5l-124 5l10 61l122 5q33 2 53.5 13t24.5 37l5 27v5.5v5.5q0 23 -18.5 35t-58.5 12h-140l10 62q39 6 82 9.5t92 3.5q58 0 87.5 -24.5t30.5 -69.5
q0 -5 -0.5 -11t-1.5 -13l-6 -38q-4 -28 -17 -46t-29.5 -28.5t-34.5 -15.5q15 -4 28.5 -13.5t22.5 -26t9 -39.5q0 -5 -0.5 -11.5t-2.5 -12.5l-5 -30q-9 -57 -50 -86.5t-108 -29.5z" />
    <glyph glyph-name="acute" unicode="&#xb4;" horiz-adv-x="220" 
d="M120 631l114 138h88l-139 -138h-63z" />
    <glyph glyph-name="uni00B5" unicode="&#xb5;" horiz-adv-x="590" 
d="M259 -6q-34 0 -64 10t-52.5 29.5t-35 47.5t-12.5 63q0 11 1 20.5t2 19.5l55 351h101l-55 -350l-2 -14t-1 -14q0 -43 25.5 -58.5t65.5 -15.5q44 0 80.5 12.5t74.5 34.5l64 405h101l-85 -535h-80l-6 57q-37 -28 -81.5 -45.5t-95.5 -17.5zM26 -269l80 504h101l-80 -504h-101
z" />
    <glyph glyph-name="paragraph" unicode="&#xb6;" horiz-adv-x="573" 
d="M223 -270l94 592q-8 -5 -29.5 -9t-49.5 -4q-69 0 -101.5 35t-32.5 85q0 8 1 16t3 22l21 130q8 48 34.5 79t66 46t82.5 15h367l-11 -71h-71l-106 -666h-69l106 668h-87l-149 -938h-69zM260 378h66l46 290h-66q-50 0 -77.5 -23t-33.5 -64l-16 -105q-2 -10 -3 -17t-1 -12
q0 -30 13 -44.5t32.5 -19.5t39.5 -5z" />
    <glyph glyph-name="periodcentered" unicode="&#xb7;" horiz-adv-x="270" 
d="M136 337q-7 0 -11.5 5t-3.5 12l10 60q2 18 20 18h57q18 0 15 -18l-10 -60q-1 -9 -6.5 -13t-13.5 -4h-57z" />
    <glyph glyph-name="cedilla" unicode="&#xb8;" horiz-adv-x="254" 
d="M20 -192l6 41l22 3q20 2 33 10.5t19 19t6 19.5q0 13 -11 22.5t-43 11.5l44 12q35 0 54 -13.5t19 -42.5q0 -18 -12 -37.5t-36.5 -32.5t-63.5 -13h-37zM52 -65l64 80h47l-65 -80h-46z" />
    <glyph glyph-name="uni00B9" unicode="&#xb9;" horiz-adv-x="418" 
d="M232 355l66 419l-111 -22l9 52l122 43h73l-78 -492h-81zM117 355l12 72h310l-12 -72h-310z" />
    <glyph glyph-name="ordmasculine" unicode="&#xba;" horiz-adv-x="430" 
d="M82 261l8 50h339l-8 -50h-339zM256 356q-48 0 -82 14t-52 44t-18 77q0 19 1.5 37t4.5 36q13 78 37.5 119.5t66.5 57t105 15.5q60 0 92.5 -15.5t46.5 -46.5t14 -79q0 -17 -2 -37t-5 -41q-11 -71 -36 -110.5t-67 -55t-106 -15.5zM266 426q34 0 56.5 9.5t36 36.5t22.5 78
q3 21 4 37t1 30q0 38 -18 54t-61 16q-35 0 -57.5 -10.5t-35 -39t-21.5 -81.5q-3 -21 -4 -34.5t-1 -26.5q1 -27 10 -42.5t26.5 -21t41.5 -5.5z" />
    <glyph glyph-name="guillemotright" unicode="&#xbb;" horiz-adv-x="614" 
d="M103 64l-42 53l190 162l-140 164l60 50l183 -215zM353 64l-42 53l190 162l-140 164l60 50l183 -215z" />
    <glyph glyph-name="onequarter" unicode="&#xbc;" horiz-adv-x="1150" 
d="M321 0l499 770h69l-499 -770h-69zM969 -33l18 110h-224l-10 40l225 336h84l-207 -307h142l18 109l24 51h65l-25 -160h58l-9 -55l-59 -14l-19 -110h-81zM237 355l66 419l-111 -22l9 52l122 43h73l-78 -492h-81zM122 355l12 72h310l-12 -72h-310z" />
    <glyph glyph-name="onehalf" unicode="&#xbd;" horiz-adv-x="1150" 
d="M321 0l499 770h69l-499 -770h-69zM756 -34l10 64l194 166q47 40 66.5 74t19.5 62q0 23 -16.5 36.5t-60.5 13.5h-133l10 62q31 5 70 9t83 4q73 0 103 -26t30 -71q0 -50 -25 -99t-90 -106l-139 -117h222l-12 -72h-332zM237 355l66 419l-111 -22l9 52l122 43h73l-78 -492
h-81zM122 355l12 72h310l-12 -72h-310z" />
    <glyph glyph-name="threequarters" unicode="&#xbe;" horiz-adv-x="1150" 
d="M321 0l499 770h69l-499 -770h-69zM969 -28l18 110h-224l-10 40l225 336h84l-207 -307h142l18 109l24 51h65l-25 -160h58l-9 -55l-59 -14l-19 -110h-81zM292 351q-53 0 -100.5 3.5t-83.5 8.5l10 63h157q28 0 48 5t32.5 17t15.5 34l4 25q1 4 1 6.5v4.5q0 17 -9 27t-24 15
t-32 5l-124 5l10 61l122 5q33 2 53.5 13t24.5 37l5 27v5.5v5.5q0 23 -18.5 35t-58.5 12h-140l10 62q39 6 82 9.5t92 3.5q58 0 87.5 -24.5t30.5 -69.5q0 -5 -0.5 -11t-1.5 -13l-6 -38q-4 -28 -17 -46t-29.5 -28.5t-34.5 -15.5q15 -4 28.5 -13.5t22.5 -26t9 -39.5
q0 -5 -0.5 -11.5t-2.5 -12.5l-5 -30q-9 -57 -50 -86.5t-108 -29.5z" />
    <glyph glyph-name="questiondown" unicode="&#xbf;" horiz-adv-x="530" 
d="M410 336l-27 -170h-56q-48 0 -80 -9.5t-50.5 -32t-24.5 -62.5l-8 -51q-2 -11 -2.5 -20t-0.5 -17q0 -47 28 -67t85 -20q48 0 93 9.5t97 27.5l-12 -72q-53 -27 -108.5 -41t-115.5 -14q-89 0 -130 40.5t-41 107.5q0 24 4 52l11 67q14 90 73 135t174 45l14 92h77zM429 537
q15 0 15 -14v-1.5v-1.5l-14 -87q-3 -18 -21 -18h-57q-14 0 -14 13v2.5v2.5l14 87q1 9 6.5 13t13.5 4h57z" />
    <glyph glyph-name="Agrave" unicode="&#xc0;" horiz-adv-x="682" 
d="M31 0l367 737h128l126 -737h-104l-33 193h-284l-96 -193h-104zM270 283h234l-57 365zM455 791l-100 138h83l76 -138h-59z" />
    <glyph glyph-name="Aacute" unicode="&#xc1;" horiz-adv-x="682" 
d="M31 0l367 737h128l126 -737h-104l-33 193h-284l-96 -193h-104zM270 283h234l-57 365zM423 791l114 138h88l-139 -138h-63z" />
    <glyph glyph-name="Acircumflex" unicode="&#xc2;" horiz-adv-x="682" 
d="M31 0l367 737h128l126 -737h-104l-33 193h-284l-96 -193h-104zM270 283h234l-57 365zM307 791l139 137h70l86 -137h-60l-70 91l-105 -91h-60z" />
    <glyph glyph-name="Atilde" unicode="&#xc3;" horiz-adv-x="682" 
d="M31 0l367 737h128l126 -737h-104l-33 193h-284l-96 -193h-104zM270 283h234l-57 365zM299 805q14 62 46.5 86t69.5 24q23 0 42.5 -8t36.5 -18.5t34 -18.5t34 -8q24 0 40.5 15t20.5 42h51q-12 -57 -40 -85t-74 -28q-22 0 -41 8t-37 18.5t-35.5 18.5t-34.5 8q-23 0 -40 -14
t-22 -40h-51z" />
    <glyph glyph-name="Adieresis" unicode="&#xc4;" horiz-adv-x="682" 
d="M31 0l367 737h128l126 -737h-104l-33 193h-284l-96 -193h-104zM270 283h234l-57 365zM532 808q-14 0 -14 14q0 1 0.5 5t3.5 22l10 60q2 18 20 18h46q15 0 15 -14l-0.5 -4t-4 -22t-9.5 -62q-2 -17 -20 -17h-47zM329 808q-14 0 -14 14q0 1 0.5 5t3.5 22l10 60q2 18 20 18
h46q15 0 15 -14l-0.5 -4t-4 -22t-9.5 -62q-2 -17 -20 -17h-47z" />
    <glyph glyph-name="Aring" unicode="&#xc5;" horiz-adv-x="682" 
d="M31 0l367 737h128l126 -737h-104l-33 193h-284l-96 -193h-104zM270 283h234l-57 365zM465 771q-45 0 -74 20t-29 72q0 34 15.5 62.5t45 46.5t72.5 18q45 0 73 -21t28 -71q0 -52 -33 -89.5t-98 -37.5zM469 811q41 0 59.5 25.5t18.5 59.5q0 31 -17 42.5t-39 11.5
q-42 0 -61.5 -26t-19.5 -60q0 -30 17.5 -41.5t41.5 -11.5z" />
    <glyph glyph-name="AE" unicode="&#xc6;" horiz-adv-x="948" 
d="M637 -4q-33 -1 -61.5 3.5t-48.5 17t-30 36t-6 60.5l11 79h-233l-148 -192h-102l425 573q46 64 92 99.5t96.5 50.5t112.5 14q60 -1 132.5 -3.5t147.5 -7.5l-14 -82h-263q-32 0 -50.5 -6t-27.5 -17.5t-12.5 -29.5t-7.5 -42l-22 -137l302 -6l-13 -78l-303 -7l-24 -151
q-6 -37 6 -54t33 -21.5t42 -4.5h253l-13 -82q-28 -2 -60 -4t-63.5 -3t-61 -2.5t-52.5 -2t-37 -0.5zM329 278h187l51 323z" />
    <glyph glyph-name="Ccedilla" unicode="&#xc7;" horiz-adv-x="590" 
d="M323 -6q-115 0 -168.5 62t-53.5 176q0 36 4.5 76.5t10.5 77.5q18 116 54 195.5t97 120.5t152 41q80 0 136 -11.5t93 -22.5l-13 -78q-46 9 -96.5 15.5t-104.5 6.5q-46 0 -81 -14.5t-61 -47.5t-44.5 -88t-32.5 -137q-5 -35 -9 -71t-4 -64q0 -77 33 -112t114 -35
q72 0 115.5 3.5t85.5 9.5l-13 -78q-49 -14 -105.5 -19.5t-108.5 -5.5zM210 -197l6 41l22 3q20 2 33 10.5t19 19t6 19.5q0 13 -11 22.5t-43 11.5l44 12q35 0 54 -13.5t19 -42.5q0 -18 -12 -37.5t-36.5 -32.5t-63.5 -13h-37zM242 -70l64 80h47l-65 -80h-46z" />
    <glyph glyph-name="Egrave" unicode="&#xc8;" horiz-adv-x="583" 
d="M232 -6q-27 0 -54.5 5.5t-49.5 22t-33 47.5t-3 79l69 436q9 59 35.5 92.5t63.5 47.5t79 13q75 -1 149.5 -3.5t150.5 -6.5l-13 -83h-275q-39 0 -62.5 -19.5t-30.5 -65.5l-23 -146l308 -8l-13 -78l-310 -5l-24 -152q-4 -32 4 -50t26 -25t44 -7h269l-13 -83
q-71 -3 -144 -6.5t-150 -4.5zM416 791l-100 138h83l76 -138h-59z" />
    <glyph glyph-name="Eacute" unicode="&#xc9;" horiz-adv-x="583" 
d="M232 -6q-27 0 -54.5 5.5t-49.5 22t-33 47.5t-3 79l69 436q9 59 35.5 92.5t63.5 47.5t79 13q75 -1 149.5 -3.5t150.5 -6.5l-13 -83h-275q-39 0 -62.5 -19.5t-30.5 -65.5l-23 -146l308 -8l-13 -78l-310 -5l-24 -152q-4 -32 4 -50t26 -25t44 -7h269l-13 -83
q-71 -3 -144 -6.5t-150 -4.5zM384 791l114 138h88l-139 -138h-63z" />
    <glyph glyph-name="Ecircumflex" unicode="&#xca;" horiz-adv-x="583" 
d="M232 -6q-27 0 -54.5 5.5t-49.5 22t-33 47.5t-3 79l69 436q9 59 35.5 92.5t63.5 47.5t79 13q75 -1 149.5 -3.5t150.5 -6.5l-13 -83h-275q-39 0 -62.5 -19.5t-30.5 -65.5l-23 -146l308 -8l-13 -78l-310 -5l-24 -152q-4 -32 4 -50t26 -25t44 -7h269l-13 -83
q-71 -3 -144 -6.5t-150 -4.5zM268 791l139 137h70l86 -137h-60l-70 91l-105 -91h-60z" />
    <glyph glyph-name="Edieresis" unicode="&#xcb;" horiz-adv-x="583" 
d="M232 -6q-27 0 -54.5 5.5t-49.5 22t-33 47.5t-3 79l69 436q9 59 35.5 92.5t63.5 47.5t79 13q75 -1 149.5 -3.5t150.5 -6.5l-13 -83h-275q-39 0 -62.5 -19.5t-30.5 -65.5l-23 -146l308 -8l-13 -78l-310 -5l-24 -152q-4 -32 4 -50t26 -25t44 -7h269l-13 -83
q-71 -3 -144 -6.5t-150 -4.5zM493 808q-14 0 -14 14q0 1 0.5 5t3.5 22l10 60q2 18 20 18h46q15 0 15 -14l-0.5 -4t-4 -22t-9.5 -62q-2 -17 -20 -17h-47zM290 808q-14 0 -14 14q0 1 0.5 5t3.5 22l10 60q2 18 20 18h46q15 0 15 -14l-0.5 -4t-4 -22t-9.5 -62q-2 -17 -20 -17
h-47z" />
    <glyph glyph-name="Igrave" unicode="&#xcc;" horiz-adv-x="238" 
d="M69 0l117 737h100l-117 -737h-100zM234 791l-100 138h83l76 -138h-59z" />
    <glyph glyph-name="Iacute" unicode="&#xcd;" horiz-adv-x="238" 
d="M69 0l117 737h100l-117 -737h-100zM202 791l114 138h88l-139 -138h-63z" />
    <glyph glyph-name="Icircumflex" unicode="&#xce;" horiz-adv-x="238" 
d="M69 0l117 737h100l-117 -737h-100zM86 791l139 137h70l86 -137h-60l-70 91l-105 -91h-60z" />
    <glyph glyph-name="Idieresis" unicode="&#xcf;" horiz-adv-x="238" 
d="M69 0l117 737h100l-117 -737h-100zM311 808q-14 0 -14 14q0 1 0.5 5t3.5 22l10 60q2 18 20 18h46q15 0 15 -14l-0.5 -4t-4 -22t-9.5 -62q-2 -17 -20 -17h-47zM108 808q-14 0 -14 14q0 1 0.5 5t3.5 22l10 60q2 18 20 18h46q15 0 15 -14l-0.5 -4t-4 -22t-9.5 -62
q-2 -17 -20 -17h-47z" />
    <glyph glyph-name="Eth" unicode="&#xd0;" horiz-adv-x="678" 
d="M58 339l12 68h324l-12 -68h-324zM69 0l117 737h269q91 0 142 -30.5t72 -88t21 -138.5q0 -31 -3 -64t-8 -66q-13 -83 -39.5 -148t-67.5 -110t-99 -68.5t-134 -23.5h-270zM184 90h164q53 0 92 20.5t66.5 57.5t45 88t27.5 113q5 33 8 61t3 48q0 57 -14.5 94.5t-49 56
t-95.5 18.5h-160z" />
    <glyph glyph-name="Ntilde" unicode="&#xd1;" horiz-adv-x="676" 
d="M69 0l117 737h81l271 -566l90 566h101l-117 -737h-82l-271 567l-90 -567h-100zM286 805q14 62 46.5 86t69.5 24q23 0 42.5 -8t36.5 -18.5t34 -18.5t34 -8q24 0 40.5 15t20.5 42h51q-12 -57 -40 -85t-74 -28q-22 0 -41 8t-37 18.5t-35.5 18.5t-34.5 8q-23 0 -40 -14
t-22 -40h-51z" />
    <glyph glyph-name="Ograve" unicode="&#xd2;" horiz-adv-x="690" 
d="M342 -6q-55 0 -100 9t-77 33t-49 68t-17 113q0 35 4 76.5t11 88.5q18 108 45.5 178.5t69.5 110t99.5 56t134.5 16.5q54 0 98.5 -9.5t77 -35.5t50 -71.5t17.5 -116.5q0 -33 -4 -75.5t-12 -88.5q-17 -110 -45.5 -179t-70 -107t-99 -52t-133.5 -14zM359 85q52 0 90 12.5
t64.5 43t45 84t31.5 136.5q7 45 11 83t4 65q0 61 -18 91.5t-53 41.5t-86 11q-50 0 -88 -12t-65.5 -43t-46.5 -87t-33 -145q-7 -43 -11.5 -80.5t-4.5 -63.5q0 -56 17 -86t52.5 -40.5t90.5 -10.5zM463 791l-100 138h83l76 -138h-59z" />
    <glyph glyph-name="Oacute" unicode="&#xd3;" horiz-adv-x="690" 
d="M342 -6q-55 0 -100 9t-77 33t-49 68t-17 113q0 35 4 76.5t11 88.5q18 108 45.5 178.5t69.5 110t99.5 56t134.5 16.5q54 0 98.5 -9.5t77 -35.5t50 -71.5t17.5 -116.5q0 -33 -4 -75.5t-12 -88.5q-17 -110 -45.5 -179t-70 -107t-99 -52t-133.5 -14zM359 85q52 0 90 12.5
t64.5 43t45 84t31.5 136.5q7 45 11 83t4 65q0 61 -18 91.5t-53 41.5t-86 11q-50 0 -88 -12t-65.5 -43t-46.5 -87t-33 -145q-7 -43 -11.5 -80.5t-4.5 -63.5q0 -56 17 -86t52.5 -40.5t90.5 -10.5zM431 791l114 138h88l-139 -138h-63z" />
    <glyph glyph-name="Ocircumflex" unicode="&#xd4;" horiz-adv-x="690" 
d="M342 -6q-55 0 -100 9t-77 33t-49 68t-17 113q0 35 4 76.5t11 88.5q18 108 45.5 178.5t69.5 110t99.5 56t134.5 16.5q54 0 98.5 -9.5t77 -35.5t50 -71.5t17.5 -116.5q0 -33 -4 -75.5t-12 -88.5q-17 -110 -45.5 -179t-70 -107t-99 -52t-133.5 -14zM359 85q52 0 90 12.5
t64.5 43t45 84t31.5 136.5q7 45 11 83t4 65q0 61 -18 91.5t-53 41.5t-86 11q-50 0 -88 -12t-65.5 -43t-46.5 -87t-33 -145q-7 -43 -11.5 -80.5t-4.5 -63.5q0 -56 17 -86t52.5 -40.5t90.5 -10.5zM315 791l139 137h70l86 -137h-60l-70 91l-105 -91h-60z" />
    <glyph glyph-name="Otilde" unicode="&#xd5;" horiz-adv-x="690" 
d="M342 -6q-55 0 -100 9t-77 33t-49 68t-17 113q0 35 4 76.5t11 88.5q18 108 45.5 178.5t69.5 110t99.5 56t134.5 16.5q54 0 98.5 -9.5t77 -35.5t50 -71.5t17.5 -116.5q0 -33 -4 -75.5t-12 -88.5q-17 -110 -45.5 -179t-70 -107t-99 -52t-133.5 -14zM359 85q52 0 90 12.5
t64.5 43t45 84t31.5 136.5q7 45 11 83t4 65q0 61 -18 91.5t-53 41.5t-86 11q-50 0 -88 -12t-65.5 -43t-46.5 -87t-33 -145q-7 -43 -11.5 -80.5t-4.5 -63.5q0 -56 17 -86t52.5 -40.5t90.5 -10.5zM307 805q14 62 46.5 86t69.5 24q23 0 42.5 -8t36.5 -18.5t34 -18.5t34 -8
q24 0 40.5 15t20.5 42h51q-12 -57 -40 -85t-74 -28q-22 0 -41 8t-37 18.5t-35.5 18.5t-34.5 8q-23 0 -40 -14t-22 -40h-51z" />
    <glyph glyph-name="Odieresis" unicode="&#xd6;" horiz-adv-x="690" 
d="M342 -6q-55 0 -100 9t-77 33t-49 68t-17 113q0 35 4 76.5t11 88.5q18 108 45.5 178.5t69.5 110t99.5 56t134.5 16.5q54 0 98.5 -9.5t77 -35.5t50 -71.5t17.5 -116.5q0 -33 -4 -75.5t-12 -88.5q-17 -110 -45.5 -179t-70 -107t-99 -52t-133.5 -14zM359 85q52 0 90 12.5
t64.5 43t45 84t31.5 136.5q7 45 11 83t4 65q0 61 -18 91.5t-53 41.5t-86 11q-50 0 -88 -12t-65.5 -43t-46.5 -87t-33 -145q-7 -43 -11.5 -80.5t-4.5 -63.5q0 -56 17 -86t52.5 -40.5t90.5 -10.5zM540 808q-14 0 -14 14q0 1 0.5 5t3.5 22l10 60q2 18 20 18h46q15 0 15 -14
l-0.5 -4t-4 -22t-9.5 -62q-2 -17 -20 -17h-47zM337 808q-14 0 -14 14q0 1 0.5 5t3.5 22l10 60q2 18 20 18h46q15 0 15 -14l-0.5 -4t-4 -22t-9.5 -62q-2 -17 -20 -17h-47z" />
    <glyph glyph-name="multiply" unicode="&#xd7;" horiz-adv-x="609" 
d="M203 168l-49 59l367 317l49 -59zM462 168l-267 317l68 59l267 -317z" />
    <glyph glyph-name="Oslash" unicode="&#xd8;" horiz-adv-x="692" 
d="M51 0l644 737h61l-643 -737h-62zM342 -6q-55 0 -100 9t-77 33t-49 68t-17 113q0 35 4 76.5t11 88.5q18 108 45.5 178.5t69.5 110t99.5 56t134.5 16.5q54 0 98.5 -9.5t77 -35.5t50 -71.5t17.5 -116.5q0 -33 -4 -75.5t-12 -88.5q-17 -110 -45.5 -179t-70 -107t-99 -52
t-133.5 -14zM359 85q52 0 90 12.5t64.5 43t45 84t31.5 136.5q7 45 11 83t4 65q0 61 -18 91.5t-53 41.5t-86 11q-50 0 -88 -12t-65.5 -43t-46.5 -87t-33 -145q-7 -43 -11.5 -80.5t-4.5 -63.5q0 -56 17 -86t52.5 -40.5t90.5 -10.5z" />
    <glyph glyph-name="Ugrave" unicode="&#xd9;" horiz-adv-x="680" 
d="M341 -6q-114 0 -173 48.5t-59 162.5q0 26 3.5 60t9.5 69l64 403h100l-66 -417q-4 -30 -7.5 -58t-3.5 -50q0 -70 35.5 -99t107.5 -29q43 0 76.5 9t59 33.5t44 71t30.5 122.5l66 417h100l-68 -431q-16 -100 -44 -162t-68 -94.5t-91.5 -44t-115.5 -11.5zM446 791l-100 138
h83l76 -138h-59z" />
    <glyph glyph-name="Uacute" unicode="&#xda;" horiz-adv-x="680" 
d="M341 -6q-114 0 -173 48.5t-59 162.5q0 26 3.5 60t9.5 69l64 403h100l-66 -417q-4 -30 -7.5 -58t-3.5 -50q0 -70 35.5 -99t107.5 -29q43 0 76.5 9t59 33.5t44 71t30.5 122.5l66 417h100l-68 -431q-16 -100 -44 -162t-68 -94.5t-91.5 -44t-115.5 -11.5zM414 791l114 138h88
l-139 -138h-63z" />
    <glyph glyph-name="Ucircumflex" unicode="&#xdb;" horiz-adv-x="680" 
d="M341 -6q-114 0 -173 48.5t-59 162.5q0 26 3.5 60t9.5 69l64 403h100l-66 -417q-4 -30 -7.5 -58t-3.5 -50q0 -70 35.5 -99t107.5 -29q43 0 76.5 9t59 33.5t44 71t30.5 122.5l66 417h100l-68 -431q-16 -100 -44 -162t-68 -94.5t-91.5 -44t-115.5 -11.5zM298 791l139 137h70
l86 -137h-60l-70 91l-105 -91h-60z" />
    <glyph glyph-name="Udieresis" unicode="&#xdc;" horiz-adv-x="680" 
d="M341 -6q-114 0 -173 48.5t-59 162.5q0 26 3.5 60t9.5 69l64 403h100l-66 -417q-4 -30 -7.5 -58t-3.5 -50q0 -70 35.5 -99t107.5 -29q43 0 76.5 9t59 33.5t44 71t30.5 122.5l66 417h100l-68 -431q-16 -100 -44 -162t-68 -94.5t-91.5 -44t-115.5 -11.5zM523 808
q-14 0 -14 14q0 1 0.5 5t3.5 22l10 60q2 18 20 18h46q15 0 15 -14l-0.5 -4t-4 -22t-9.5 -62q-2 -17 -20 -17h-47zM320 808q-14 0 -14 14q0 1 0.5 5t3.5 22l10 60q2 18 20 18h46q15 0 15 -14l-0.5 -4t-4 -22t-9.5 -62q-2 -17 -20 -17h-47z" />
    <glyph glyph-name="Yacute" unicode="&#xdd;" horiz-adv-x="622" 
d="M252 0l37 233l-151 504h110l108 -393l247 393h114l-327 -504l-37 -233h-101zM386 791l114 138h88l-139 -138h-63z" />
    <glyph glyph-name="Thorn" unicode="&#xde;" horiz-adv-x="556" 
d="M69 0l117 737h99l-116 -737h-100zM342 156q-43 0 -86 5t-83 10l12 76h146q34 0 63 11.5t50 38t28 72.5q2 14 3.5 29.5t1.5 23.5q0 50 -27 70t-76 20h-153l13 90h159q53 0 95 -15t67 -52.5t25 -102.5q0 -14 -3 -35t-5 -38q-10 -60 -33 -99.5t-55 -62t-69 -32t-73 -9.5z
" />
    <glyph glyph-name="germandbls" unicode="&#xdf;" horiz-adv-x="590" 
d="M395 -6q-48 0 -90.5 4t-66.5 10l11 67q29 -1 63.5 -2.5t71.5 -1.5q38 0 58.5 11t30 26.5t11.5 28.5q2 12 3 20t1 14q0 21 -14.5 34t-35 24t-42 24t-35.5 33t-14 51q0 30 15 57t38 51.5t45 48t37.5 48.5t15.5 53q0 40 -28 62.5t-76 22.5q-64 0 -100.5 -36.5t-50.5 -124.5
l-83 -519h-100l88 559q11 65 42 112t84 72.5t129 25.5q67 0 108.5 -22.5t60.5 -58.5t19 -78q0 -35 -14.5 -64.5t-36 -53.5t-43 -45t-36 -41.5t-14.5 -41.5t14 -34.5t35 -25.5t41.5 -25.5t34.5 -34t14 -52.5q0 -6 -0.5 -17.5t-6.5 -43.5q-7 -39 -25 -65.5t-43.5 -42.5
t-56 -22.5t-59.5 -6.5z" />
    <glyph glyph-name="agrave" unicode="&#xe0;" horiz-adv-x="566" 
d="M234 -6q-43 0 -78 18.5t-55.5 59t-20.5 104.5q0 27 3.5 56t7.5 50q13 88 46 145.5t89.5 85.5t141.5 28q39 0 79 -7t74.5 -20.5t57.5 -33.5l-76 -480h-87l-4 56q-14 -11 -43.5 -25.5t-65 -25.5t-69.5 -11zM278 76q43 0 77.5 14.5t66.5 30.5l49 313q-13 8 -41 16.5t-67 8.5
q-56 0 -90.5 -20.5t-54 -62t-29.5 -104.5q-4 -25 -6.5 -45t-2.5 -34q0 -57 26 -87t72 -30zM374 631l-100 138h83l76 -138h-59z" />
    <glyph glyph-name="aacute" unicode="&#xe1;" horiz-adv-x="566" 
d="M234 -6q-43 0 -78 18.5t-55.5 59t-20.5 104.5q0 27 3.5 56t7.5 50q13 88 46 145.5t89.5 85.5t141.5 28q39 0 79 -7t74.5 -20.5t57.5 -33.5l-76 -480h-87l-4 56q-14 -11 -43.5 -25.5t-65 -25.5t-69.5 -11zM278 76q43 0 77.5 14.5t66.5 30.5l49 313q-13 8 -41 16.5t-67 8.5
q-56 0 -90.5 -20.5t-54 -62t-29.5 -104.5q-4 -25 -6.5 -45t-2.5 -34q0 -57 26 -87t72 -30zM347 631l114 138h88l-139 -138h-63z" />
    <glyph glyph-name="acircumflex" unicode="&#xe2;" horiz-adv-x="566" 
d="M234 -6q-43 0 -78 18.5t-55.5 59t-20.5 104.5q0 27 3.5 56t7.5 50q13 88 46 145.5t89.5 85.5t141.5 28q39 0 79 -7t74.5 -20.5t57.5 -33.5l-76 -480h-87l-4 56q-14 -11 -43.5 -25.5t-65 -25.5t-69.5 -11zM278 76q43 0 77.5 14.5t66.5 30.5l49 313q-13 8 -41 16.5t-67 8.5
q-56 0 -90.5 -20.5t-54 -62t-29.5 -104.5q-4 -25 -6.5 -45t-2.5 -34q0 -57 26 -87t72 -30zM236 631l139 137h70l86 -137h-60l-70 91l-105 -91h-60z" />
    <glyph glyph-name="atilde" unicode="&#xe3;" horiz-adv-x="566" 
d="M234 -6q-43 0 -78 18.5t-55.5 59t-20.5 104.5q0 27 3.5 56t7.5 50q13 88 46 145.5t89.5 85.5t141.5 28q39 0 79 -7t74.5 -20.5t57.5 -33.5l-76 -480h-87l-4 56q-14 -11 -43.5 -25.5t-65 -25.5t-69.5 -11zM278 76q43 0 77.5 14.5t66.5 30.5l49 313q-13 8 -41 16.5t-67 8.5
q-56 0 -90.5 -20.5t-54 -62t-29.5 -104.5q-4 -25 -6.5 -45t-2.5 -34q0 -57 26 -87t72 -30zM213 645q14 62 46.5 86t69.5 24q23 0 42.5 -8t36.5 -18.5t34 -18.5t34 -8q24 0 40.5 15t20.5 42h51q-12 -57 -40 -85t-74 -28q-22 0 -41 8t-37 18.5t-35.5 18.5t-34.5 8
q-23 0 -40 -14t-22 -40h-51z" />
    <glyph glyph-name="adieresis" unicode="&#xe4;" horiz-adv-x="566" 
d="M234 -6q-43 0 -78 18.5t-55.5 59t-20.5 104.5q0 27 3.5 56t7.5 50q13 88 46 145.5t89.5 85.5t141.5 28q39 0 79 -7t74.5 -20.5t57.5 -33.5l-76 -480h-87l-4 56q-14 -11 -43.5 -25.5t-65 -25.5t-69.5 -11zM278 76q43 0 77.5 14.5t66.5 30.5l49 313q-13 8 -41 16.5t-67 8.5
q-56 0 -90.5 -20.5t-54 -62t-29.5 -104.5q-4 -25 -6.5 -45t-2.5 -34q0 -57 26 -87t72 -30zM455 648q-14 0 -14 14q0 1 0.5 5t3.5 22l10 60q2 18 20 18h46q15 0 15 -14l-0.5 -4t-4 -22t-9.5 -62q-2 -17 -20 -17h-47zM252 648q-14 0 -14 14q0 1 0.5 5t3.5 22l10 60q2 18 20 18
h46q15 0 15 -14l-0.5 -4t-4 -22t-9.5 -62q-2 -17 -20 -17h-47z" />
    <glyph glyph-name="aring" unicode="&#xe5;" horiz-adv-x="566" 
d="M234 -6q-43 0 -78 18.5t-55.5 59t-20.5 104.5q0 27 3.5 56t7.5 50q13 88 46 145.5t89.5 85.5t141.5 28q39 0 79 -7t74.5 -20.5t57.5 -33.5l-76 -480h-87l-4 56q-14 -11 -43.5 -25.5t-65 -25.5t-69.5 -11zM278 76q43 0 77.5 14.5t66.5 30.5l49 313q-13 8 -41 16.5t-67 8.5
q-56 0 -90.5 -20.5t-54 -62t-29.5 -104.5q-4 -25 -6.5 -45t-2.5 -34q0 -57 26 -87t72 -30zM389 591q-45 0 -74 20t-29 72q0 34 15.5 62.5t45 46.5t72.5 18q45 0 73 -21t28 -71q0 -52 -33 -89.5t-98 -37.5zM393 631q41 0 59.5 25.5t18.5 59.5q0 31 -17 42.5t-39 11.5
q-42 0 -61.5 -26t-19.5 -60q0 -30 17.5 -41.5t41.5 -11.5z" />
    <glyph glyph-name="ae" unicode="&#xe6;" horiz-adv-x="891" 
d="M233 -6q-43 0 -77.5 18t-54 58t-19.5 105q0 86 18.5 153.5t54 115t87.5 72.5t122 25q27 0 59 -5t63 -14.5t54 -25.5q14 12 34 21t43 14.5t45.5 8.5t40.5 3q100 0 150.5 -39t50.5 -119q0 -52 -26.5 -90t-78 -59t-127.5 -21q-31 0 -61.5 2.5t-53.5 6t-31 5.5
q-3 -17 -3.5 -27.5t-0.5 -23.5q0 -35 10.5 -59t37.5 -36.5t75 -12.5h197l-10 -60q-30 -5 -67 -8.5t-77.5 -5.5t-78.5 -2q-41 0 -74 10.5t-56 30t-33 44.5q-28 -21 -62 -40.5t-72.5 -32t-78.5 -12.5zM270 77q31 0 61 10.5t55 27t41 32.5q-1 9 -2 20t-1 22q0 39 6 82t19 84.5
t34 75.5q-16 8 -46.5 18t-64.5 10q-56 0 -92.5 -22.5t-58 -61t-30.5 -85.5t-9 -97q0 -54 21 -85t67 -31zM645 275q80 0 122 25.5t42 73.5q0 43 -26 67t-75 24q-46 0 -77 -12t-50 -35.5t-29.5 -57.5t-18.5 -77q2 -1 18 -3t41 -3.5t53 -1.5z" />
    <glyph glyph-name="ccedilla" unicode="&#xe7;" horiz-adv-x="479" 
d="M273 -6q-57 0 -100 17.5t-67 59.5t-24 120q0 18 3 42.5t7 51.5q14 93 48 149t85 81.5t115 25.5q40 0 88 -6t89 -14l-10 -59h-147q-46 0 -79.5 -18.5t-56.5 -61.5t-35 -116q-3 -22 -5 -38.5t-2 -28.5q0 -49 14 -77t41 -39.5t67 -11.5h152l-9 -57q-33 -9 -75.5 -14.5
t-98.5 -5.5zM140 -197l6 41l22 3q20 2 33 10.5t19 19t6 19.5q0 13 -11 22.5t-43 11.5l44 12q35 0 54 -13.5t19 -42.5q0 -18 -12 -37.5t-36.5 -32.5t-63.5 -13h-37zM172 -70l64 80h47l-65 -80h-46z" />
    <glyph glyph-name="egrave" unicode="&#xe8;" horiz-adv-x="548" 
d="M298 -6q-77 0 -124.5 22t-69 65t-21.5 104q0 30 3 57t7 53q13 83 46.5 138t90 82.5t137.5 27.5q42 0 77.5 -7.5t61.5 -24.5t41.5 -46t15.5 -73q0 -54 -20 -89t-54.5 -54t-78.5 -26.5t-91 -7.5q-44 0 -79.5 4.5t-54.5 9.5q-2 -13 -2.5 -27t-0.5 -27q0 -55 35.5 -80
t117.5 -25h165l-9 -60q-34 -6 -85.5 -11t-107.5 -5zM288 275q57 0 97 9.5t61.5 33t21.5 64.5q0 44 -26.5 63.5t-81.5 19.5q-54 0 -88 -21.5t-53 -62t-27 -98.5q19 -3 44.5 -5.5t51.5 -2.5zM372 631l-100 138h83l76 -138h-59z" />
    <glyph glyph-name="eacute" unicode="&#xe9;" horiz-adv-x="548" 
d="M298 -6q-77 0 -124.5 22t-69 65t-21.5 104q0 30 3 57t7 53q13 83 46.5 138t90 82.5t137.5 27.5q42 0 77.5 -7.5t61.5 -24.5t41.5 -46t15.5 -73q0 -54 -20 -89t-54.5 -54t-78.5 -26.5t-91 -7.5q-44 0 -79.5 4.5t-54.5 9.5q-2 -13 -2.5 -27t-0.5 -27q0 -55 35.5 -80
t117.5 -25h165l-9 -60q-34 -6 -85.5 -11t-107.5 -5zM288 275q57 0 97 9.5t61.5 33t21.5 64.5q0 44 -26.5 63.5t-81.5 19.5q-54 0 -88 -21.5t-53 -62t-27 -98.5q19 -3 44.5 -5.5t51.5 -2.5zM345 631l114 138h88l-139 -138h-63z" />
    <glyph glyph-name="ecircumflex" unicode="&#xea;" horiz-adv-x="548" 
d="M298 -6q-77 0 -124.5 22t-69 65t-21.5 104q0 30 3 57t7 53q13 83 46.5 138t90 82.5t137.5 27.5q42 0 77.5 -7.5t61.5 -24.5t41.5 -46t15.5 -73q0 -54 -20 -89t-54.5 -54t-78.5 -26.5t-91 -7.5q-44 0 -79.5 4.5t-54.5 9.5q-2 -13 -2.5 -27t-0.5 -27q0 -55 35.5 -80
t117.5 -25h165l-9 -60q-34 -6 -85.5 -11t-107.5 -5zM288 275q57 0 97 9.5t61.5 33t21.5 64.5q0 44 -26.5 63.5t-81.5 19.5q-54 0 -88 -21.5t-53 -62t-27 -98.5q19 -3 44.5 -5.5t51.5 -2.5zM234 631l139 137h70l86 -137h-60l-70 91l-105 -91h-60z" />
    <glyph glyph-name="edieresis" unicode="&#xeb;" horiz-adv-x="548" 
d="M298 -6q-77 0 -124.5 22t-69 65t-21.5 104q0 30 3 57t7 53q13 83 46.5 138t90 82.5t137.5 27.5q42 0 77.5 -7.5t61.5 -24.5t41.5 -46t15.5 -73q0 -54 -20 -89t-54.5 -54t-78.5 -26.5t-91 -7.5q-44 0 -79.5 4.5t-54.5 9.5q-2 -13 -2.5 -27t-0.5 -27q0 -55 35.5 -80
t117.5 -25h165l-9 -60q-34 -6 -85.5 -11t-107.5 -5zM288 275q57 0 97 9.5t61.5 33t21.5 64.5q0 44 -26.5 63.5t-81.5 19.5q-54 0 -88 -21.5t-53 -62t-27 -98.5q19 -3 44.5 -5.5t51.5 -2.5zM453 648q-14 0 -14 14q0 1 0.5 5t3.5 22l10 60q2 18 20 18h46q15 0 15 -14l-0.5 -4
t-4 -22t-9.5 -62q-2 -17 -20 -17h-47zM250 648q-14 0 -14 14q0 1 0.5 5t3.5 22l10 60q2 18 20 18h46q15 0 15 -14l-0.5 -4t-4 -22t-9.5 -62q-2 -17 -20 -17h-47z" />
    <glyph glyph-name="igrave" unicode="&#xec;" horiz-adv-x="228" 
d="M64 0l85 535h100l-84 -535h-101zM209 631l-100 138h83l76 -138h-59z" />
    <glyph glyph-name="iacute" unicode="&#xed;" horiz-adv-x="228" 
d="M64 0l85 535h100l-84 -535h-101zM182 631l114 138h88l-139 -138h-63z" />
    <glyph glyph-name="icircumflex" unicode="&#xee;" horiz-adv-x="228" 
d="M64 0l85 535h100l-84 -535h-101zM71 631l139 137h70l86 -137h-60l-70 91l-105 -91h-60z" />
    <glyph glyph-name="idieresis" unicode="&#xef;" horiz-adv-x="228" 
d="M64 0l85 535h100l-84 -535h-101zM290 648q-14 0 -14 14q0 1 0.5 5t3.5 22l10 60q2 18 20 18h46q15 0 15 -14l-0.5 -4t-4 -22t-9.5 -62q-2 -17 -20 -17h-47zM87 648q-14 0 -14 14q0 1 0.5 5t3.5 22l10 60q2 18 20 18h46q15 0 15 -14l-0.5 -4t-4 -22t-9.5 -62
q-2 -17 -20 -17h-47z" />
    <glyph glyph-name="eth" unicode="&#xf0;" horiz-adv-x="569" 
d="M89 267q13 80 33.5 131.5t51.5 80.5t73.5 41t99.5 12q56 0 97 -20.5t63 -58t22 -89.5q8 -28 17 -57t16 -55q-15 -102 -48.5 -158t-89.5 -78t-140 -22q-63 0 -108.5 19t-69.5 59t-24 105q0 23 1.5 45t5.5 45zM188 251q-3 -20 -4.5 -37.5t-1.5 -32.5q0 -43 14 -65.5
t39.5 -31t59.5 -8.5q37 0 64 7.5t46 27t33 56.5t23 96q4 25 6 46t2 40q0 56 -27.5 79.5t-87.5 23.5q-38 0 -65.5 -9t-46.5 -30.5t-31.5 -60.5t-22.5 -101zM238 763q110 -1 186 -33t115.5 -101.5t39.5 -183.5q0 -42 -4 -90t-13 -103l-77 48q6 42 9 79t3 69q0 93 -31.5 146.5
t-91.5 77t-147 23.5zM611 758l9 -34l-357 -139l-10 34z" />
    <glyph glyph-name="ntilde" unicode="&#xf1;" horiz-adv-x="580" 
d="M64 0l84 535h82l10 -58q40 28 91.5 46.5t109.5 18.5q48 0 78.5 -16t44.5 -44t14 -64q0 -14 -1.5 -33t-8.5 -66l-51 -319h-100l50 316q4 28 5.5 39.5t1.5 19.5q0 34 -19 55.5t-67 21.5q-47 0 -83.5 -14t-76.5 -39l-64 -399h-100zM219 645q14 62 46.5 86t69.5 24
q23 0 42.5 -8t36.5 -18.5t34 -18.5t34 -8q24 0 40.5 15t20.5 42h51q-12 -57 -40 -85t-74 -28q-22 0 -41 8t-37 18.5t-35.5 18.5t-34.5 8q-23 0 -40 -14t-22 -40h-51z" />
    <glyph glyph-name="ograve" unicode="&#xf2;" horiz-adv-x="569" 
d="M284 -6q-63 0 -108.5 19t-69.5 59t-24 105q0 26 2 50t6 49q13 80 35 131.5t55 80.5t79.5 41t110.5 12q77 0 121 -21t61.5 -63.5t17.5 -105.5q0 -24 -2.5 -51t-6.5 -56q-15 -98 -48.5 -152.5t-89 -76t-139.5 -21.5zM295 76q37 0 64 7.5t46 27t32.5 56t23.5 93.5
q4 28 6.5 51.5t2.5 43.5q0 58 -26.5 82t-88.5 24q-38 0 -65 -9t-46 -30.5t-32 -61t-23 -100.5q-4 -23 -5.5 -42.5t-1.5 -36.5q0 -43 14 -65.5t39.5 -31t59.5 -8.5zM370 631l-100 138h83l76 -138h-59z" />
    <glyph glyph-name="oacute" unicode="&#xf3;" horiz-adv-x="569" 
d="M284 -6q-63 0 -108.5 19t-69.5 59t-24 105q0 26 2 50t6 49q13 80 35 131.5t55 80.5t79.5 41t110.5 12q77 0 121 -21t61.5 -63.5t17.5 -105.5q0 -24 -2.5 -51t-6.5 -56q-15 -98 -48.5 -152.5t-89 -76t-139.5 -21.5zM295 76q37 0 64 7.5t46 27t32.5 56t23.5 93.5
q4 28 6.5 51.5t2.5 43.5q0 58 -26.5 82t-88.5 24q-38 0 -65 -9t-46 -30.5t-32 -61t-23 -100.5q-4 -23 -5.5 -42.5t-1.5 -36.5q0 -43 14 -65.5t39.5 -31t59.5 -8.5zM343 631l114 138h88l-139 -138h-63z" />
    <glyph glyph-name="ocircumflex" unicode="&#xf4;" horiz-adv-x="569" 
d="M284 -6q-63 0 -108.5 19t-69.5 59t-24 105q0 26 2 50t6 49q13 80 35 131.5t55 80.5t79.5 41t110.5 12q77 0 121 -21t61.5 -63.5t17.5 -105.5q0 -24 -2.5 -51t-6.5 -56q-15 -98 -48.5 -152.5t-89 -76t-139.5 -21.5zM295 76q37 0 64 7.5t46 27t32.5 56t23.5 93.5
q4 28 6.5 51.5t2.5 43.5q0 58 -26.5 82t-88.5 24q-38 0 -65 -9t-46 -30.5t-32 -61t-23 -100.5q-4 -23 -5.5 -42.5t-1.5 -36.5q0 -43 14 -65.5t39.5 -31t59.5 -8.5zM232 631l139 137h70l86 -137h-60l-70 91l-105 -91h-60z" />
    <glyph glyph-name="otilde" unicode="&#xf5;" horiz-adv-x="569" 
d="M284 -6q-63 0 -108.5 19t-69.5 59t-24 105q0 26 2 50t6 49q13 80 35 131.5t55 80.5t79.5 41t110.5 12q77 0 121 -21t61.5 -63.5t17.5 -105.5q0 -24 -2.5 -51t-6.5 -56q-15 -98 -48.5 -152.5t-89 -76t-139.5 -21.5zM295 76q37 0 64 7.5t46 27t32.5 56t23.5 93.5
q4 28 6.5 51.5t2.5 43.5q0 58 -26.5 82t-88.5 24q-38 0 -65 -9t-46 -30.5t-32 -61t-23 -100.5q-4 -23 -5.5 -42.5t-1.5 -36.5q0 -43 14 -65.5t39.5 -31t59.5 -8.5zM209 645q14 62 46.5 86t69.5 24q23 0 42.5 -8t36.5 -18.5t34 -18.5t34 -8q24 0 40.5 15t20.5 42h51
q-12 -57 -40 -85t-74 -28q-22 0 -41 8t-37 18.5t-35.5 18.5t-34.5 8q-23 0 -40 -14t-22 -40h-51z" />
    <glyph glyph-name="odieresis" unicode="&#xf6;" horiz-adv-x="569" 
d="M284 -6q-63 0 -108.5 19t-69.5 59t-24 105q0 26 2 50t6 49q13 80 35 131.5t55 80.5t79.5 41t110.5 12q77 0 121 -21t61.5 -63.5t17.5 -105.5q0 -24 -2.5 -51t-6.5 -56q-15 -98 -48.5 -152.5t-89 -76t-139.5 -21.5zM295 76q37 0 64 7.5t46 27t32.5 56t23.5 93.5
q4 28 6.5 51.5t2.5 43.5q0 58 -26.5 82t-88.5 24q-38 0 -65 -9t-46 -30.5t-32 -61t-23 -100.5q-4 -23 -5.5 -42.5t-1.5 -36.5q0 -43 14 -65.5t39.5 -31t59.5 -8.5zM451 648q-14 0 -14 14q0 1 0.5 5t3.5 22l10 60q2 18 20 18h46q15 0 15 -14l-0.5 -4t-4 -22t-9.5 -62
q-2 -17 -20 -17h-47zM248 648q-14 0 -14 14q0 1 0.5 5t3.5 22l10 60q2 18 20 18h46q15 0 15 -14l-0.5 -4t-4 -22t-9.5 -62q-2 -17 -20 -17h-47z" />
    <glyph glyph-name="divide" unicode="&#xf7;" horiz-adv-x="609" 
d="M293 101q-23 0 -20 23l9 59q5 25 28 25h57q26 0 21 -25l-9 -59q-2 -13 -10 -18t-19 -5h-57zM357 504q-10 0 -16 6.5t-5 16.5l10 59q3 25 28 25h57q24 0 21 -25l-9 -59q-2 -13 -10 -18t-19 -5h-57zM130 315l14 82h448l-14 -82h-448z" />
    <glyph glyph-name="oslash" unicode="&#xf8;" horiz-adv-x="566" 
d="M45 0l510 535h51l-510 -535h-51zM284 -6q-63 0 -108.5 19t-69.5 59t-24 105q0 26 2 50t6 49q13 80 35 131.5t55 80.5t79.5 41t110.5 12q77 0 121 -21t61.5 -63.5t17.5 -105.5q0 -24 -2.5 -51t-6.5 -56q-15 -98 -48.5 -152.5t-89 -76t-139.5 -21.5zM295 76q37 0 64 7.5
t46 27t32.5 56t23.5 93.5q4 28 6.5 51.5t2.5 43.5q0 58 -26.5 82t-88.5 24q-38 0 -65 -9t-46 -30.5t-32 -61t-23 -100.5q-4 -23 -5.5 -42.5t-1.5 -36.5q0 -43 14 -65.5t39.5 -31t59.5 -8.5z" />
    <glyph glyph-name="ugrave" unicode="&#xf9;" horiz-adv-x="580" 
d="M222 -6q-70 0 -103 33.5t-33 91.5q0 18 1.5 32.5t3.5 26.5l56 357h101l-55 -348q-1 -7 -1.5 -14t-0.5 -15q0 -37 21 -55.5t64 -18.5q47 0 84 14t77 37l63 400h101l-85 -535h-87l-4 57q-30 -19 -60 -33t-64.5 -22t-78.5 -8zM384 631l-100 138h83l76 -138h-59z" />
    <glyph glyph-name="uacute" unicode="&#xfa;" horiz-adv-x="580" 
d="M222 -6q-70 0 -103 33.5t-33 91.5q0 18 1.5 32.5t3.5 26.5l56 357h101l-55 -348q-1 -7 -1.5 -14t-0.5 -15q0 -37 21 -55.5t64 -18.5q47 0 84 14t77 37l63 400h101l-85 -535h-87l-4 57q-30 -19 -60 -33t-64.5 -22t-78.5 -8zM357 631l114 138h88l-139 -138h-63z" />
    <glyph glyph-name="ucircumflex" unicode="&#xfb;" horiz-adv-x="580" 
d="M222 -6q-70 0 -103 33.5t-33 91.5q0 18 1.5 32.5t3.5 26.5l56 357h101l-55 -348q-1 -7 -1.5 -14t-0.5 -15q0 -37 21 -55.5t64 -18.5q47 0 84 14t77 37l63 400h101l-85 -535h-87l-4 57q-30 -19 -60 -33t-64.5 -22t-78.5 -8zM246 631l139 137h70l86 -137h-60l-70 91
l-105 -91h-60z" />
    <glyph glyph-name="udieresis" unicode="&#xfc;" horiz-adv-x="580" 
d="M222 -6q-70 0 -103 33.5t-33 91.5q0 18 1.5 32.5t3.5 26.5l56 357h101l-55 -348q-1 -7 -1.5 -14t-0.5 -15q0 -37 21 -55.5t64 -18.5q47 0 84 14t77 37l63 400h101l-85 -535h-87l-4 57q-30 -19 -60 -33t-64.5 -22t-78.5 -8zM465 648q-14 0 -14 14q0 1 0.5 5t3.5 22l10 60
q2 18 20 18h46q15 0 15 -14l-0.5 -4t-4 -22t-9.5 -62q-2 -17 -20 -17h-47zM262 648q-14 0 -14 14q0 1 0.5 5t3.5 22l10 60q2 18 20 18h46q15 0 15 -14l-0.5 -4t-4 -22t-9.5 -62q-2 -17 -20 -17h-47z" />
    <glyph glyph-name="yacute" unicode="&#xfd;" horiz-adv-x="563" 
d="M97 -237v73q52 12 100.5 48.5t86.5 115.5q-37 4 -63 16.5t-42 40t-23 74.5l-60 404h103l47 -383q4 -27 14.5 -41.5t25.5 -19.5t31 -7l151 343q10 25 19.5 55t11.5 61h91q0 -42 -10 -86.5t-34 -95.5l-170 -356q-40 -85 -83 -135.5t-91 -75t-105 -31.5zM326 631l114 138h88
l-139 -138h-63z" />
    <glyph glyph-name="thorn" unicode="&#xfe;" horiz-adv-x="569" 
d="M25 -237l159 1000h101l-36 -227q29 2 66 3.5t83 1.5q88 0 130 -46t42 -140q0 -25 -2.5 -52t-7.5 -52q-13 -83 -44.5 -140t-82 -87t-122.5 -30q-41 0 -77 6t-66 22l-42 -259h-101zM300 80q50 0 82.5 21t52 63.5t29.5 106.5q2 15 4.5 33t2.5 35q0 59 -24 89.5t-76 30.5
l-135 -1l-56 -357q23 -7 41 -12t36 -7t43 -2z" />
    <glyph glyph-name="ydieresis" unicode="&#xff;" horiz-adv-x="563" 
d="M97 -237v73q52 12 100.5 48.5t86.5 115.5q-37 4 -63 16.5t-42 40t-23 74.5l-60 404h103l47 -383q4 -27 14.5 -41.5t25.5 -19.5t31 -7l151 343q10 25 19.5 55t11.5 61h91q0 -42 -10 -86.5t-34 -95.5l-170 -356q-40 -85 -83 -135.5t-91 -75t-105 -31.5zM434 648
q-14 0 -14 14q0 1 0.5 5t3.5 22l10 60q2 18 20 18h46q15 0 15 -14l-0.5 -4t-4 -22t-9.5 -62q-2 -17 -20 -17h-47zM231 648q-14 0 -14 14q0 1 0.5 5t3.5 22l10 60q2 18 20 18h46q15 0 15 -14l-0.5 -4t-4 -22t-9.5 -62q-2 -17 -20 -17h-47z" />
    <glyph glyph-name="Amacron" unicode="&#x100;" horiz-adv-x="682" 
d="M31 0l367 737h128l126 -737h-104l-33 193h-284l-96 -193h-104zM270 283h234l-57 365zM332 824l10 60h270l-10 -60h-270z" />
    <glyph glyph-name="amacron" unicode="&#x101;" horiz-adv-x="566" 
d="M234 -6q-43 0 -78 18.5t-55.5 59t-20.5 104.5q0 27 3.5 56t7.5 50q13 88 46 145.5t89.5 85.5t141.5 28q39 0 79 -7t74.5 -20.5t57.5 -33.5l-76 -480h-87l-4 56q-14 -11 -43.5 -25.5t-65 -25.5t-69.5 -11zM278 76q43 0 77.5 14.5t66.5 30.5l49 313q-13 8 -41 16.5t-67 8.5
q-56 0 -90.5 -20.5t-54 -62t-29.5 -104.5q-4 -25 -6.5 -45t-2.5 -34q0 -57 26 -87t72 -30zM256 664l10 60h270l-10 -60h-270z" />
    <glyph glyph-name="Abreve" unicode="&#x102;" horiz-adv-x="682" 
d="M31 0l367 737h128l126 -737h-104l-33 193h-284l-96 -193h-104zM270 283h234l-57 365zM461 787q-33 0 -58.5 11t-40.5 34.5t-15 61.5q0 9 1 18.5t2 19.5h48q-1 -7 -1.5 -13.5t-0.5 -12.5q0 -39 21 -55.5t50 -16.5q36 0 65.5 21.5t37.5 76.5h48q-8 -54 -31 -85.5
t-55.5 -45.5t-70.5 -14z" />
    <glyph glyph-name="abreve" unicode="&#x103;" horiz-adv-x="566" 
d="M234 -6q-43 0 -78 18.5t-55.5 59t-20.5 104.5q0 27 3.5 56t7.5 50q13 88 46 145.5t89.5 85.5t141.5 28q39 0 79 -7t74.5 -20.5t57.5 -33.5l-76 -480h-87l-4 56q-14 -11 -43.5 -25.5t-65 -25.5t-69.5 -11zM278 76q43 0 77.5 14.5t66.5 30.5l49 313q-13 8 -41 16.5t-67 8.5
q-56 0 -90.5 -20.5t-54 -62t-29.5 -104.5q-4 -25 -6.5 -45t-2.5 -34q0 -57 26 -87t72 -30zM385 627q-33 0 -58.5 11t-40.5 34.5t-15 61.5q0 9 1 18.5t2 19.5h48q-1 -7 -1.5 -13.5t-0.5 -12.5q0 -39 21 -55.5t50 -16.5q36 0 65.5 21.5t37.5 76.5h48q-8 -54 -31 -85.5
t-55.5 -45.5t-70.5 -14z" />
    <glyph glyph-name="Aogonek" unicode="&#x104;" horiz-adv-x="682" 
d="M31 0l367 737h128l126 -737h-104l-33 193h-284l-96 -193h-104zM270 283h234l-57 365zM551 -188q-47 0 -70 21.5t-23 52.5q0 32 22 62.5t67 51.5h38q-38 -20 -55 -45t-17 -42q0 -24 17.5 -37t49.5 -13h7l-8 -49q-5 -1 -12.5 -1.5t-15.5 -0.5z" />
    <glyph glyph-name="aogonek" unicode="&#x105;" horiz-adv-x="566" 
d="M234 -6q-43 0 -78 18.5t-55.5 59t-20.5 104.5q0 27 3.5 56t7.5 50q13 88 46 145.5t89.5 85.5t141.5 28q39 0 79 -7t74.5 -20.5t57.5 -33.5l-76 -480h-87l-4 56q-14 -11 -43.5 -25.5t-65 -25.5t-69.5 -11zM278 76q43 0 77.5 14.5t66.5 30.5l49 313q-13 8 -41 16.5t-67 8.5
q-56 0 -90.5 -20.5t-54 -62t-29.5 -104.5q-4 -25 -6.5 -45t-2.5 -34q0 -57 26 -87t72 -30zM469 -188q-47 0 -70 21.5t-23 52.5q0 32 22 62.5t67 51.5h38q-38 -20 -55 -45t-17 -42q0 -24 17.5 -37t49.5 -13h7l-8 -49q-5 -1 -12.5 -1.5t-15.5 -0.5z" />
    <glyph glyph-name="Cacute" unicode="&#x106;" horiz-adv-x="590" 
d="M323 -6q-115 0 -168.5 62t-53.5 176q0 36 4.5 76.5t10.5 77.5q18 116 54 195.5t97 120.5t152 41q80 0 136 -11.5t93 -22.5l-13 -78q-46 9 -96.5 15.5t-104.5 6.5q-46 0 -81 -14.5t-61 -47.5t-44.5 -88t-32.5 -137q-5 -35 -9 -71t-4 -64q0 -77 33 -112t114 -35
q72 0 115.5 3.5t85.5 9.5l-13 -78q-49 -14 -105.5 -19.5t-108.5 -5.5zM398 791l114 138h88l-139 -138h-63z" />
    <glyph glyph-name="cacute" unicode="&#x107;" horiz-adv-x="479" 
d="M273 -6q-57 0 -100 17.5t-67 59.5t-24 120q0 18 3 42.5t7 51.5q14 93 48 149t85 81.5t115 25.5q40 0 88 -6t89 -14l-10 -59h-147q-46 0 -79.5 -18.5t-56.5 -61.5t-35 -116q-3 -22 -5 -38.5t-2 -28.5q0 -49 14 -77t41 -39.5t67 -11.5h152l-9 -57q-33 -9 -75.5 -14.5
t-98.5 -5.5zM321 631l114 138h88l-139 -138h-63z" />
    <glyph glyph-name="Ccircumflex" unicode="&#x108;" horiz-adv-x="590" 
d="M323 -6q-115 0 -168.5 62t-53.5 176q0 36 4.5 76.5t10.5 77.5q18 116 54 195.5t97 120.5t152 41q80 0 136 -11.5t93 -22.5l-13 -78q-46 9 -96.5 15.5t-104.5 6.5q-46 0 -81 -14.5t-61 -47.5t-44.5 -88t-32.5 -137q-5 -35 -9 -71t-4 -64q0 -77 33 -112t114 -35
q72 0 115.5 3.5t85.5 9.5l-13 -78q-49 -14 -105.5 -19.5t-108.5 -5.5zM282 791l139 137h70l86 -137h-60l-70 91l-105 -91h-60z" />
    <glyph glyph-name="ccircumflex" unicode="&#x109;" horiz-adv-x="479" 
d="M273 -6q-57 0 -100 17.5t-67 59.5t-24 120q0 18 3 42.5t7 51.5q14 93 48 149t85 81.5t115 25.5q40 0 88 -6t89 -14l-10 -59h-147q-46 0 -79.5 -18.5t-56.5 -61.5t-35 -116q-3 -22 -5 -38.5t-2 -28.5q0 -49 14 -77t41 -39.5t67 -11.5h152l-9 -57q-33 -9 -75.5 -14.5
t-98.5 -5.5zM210 631l139 137h70l86 -137h-60l-70 91l-105 -91h-60z" />
    <glyph glyph-name="Cdotaccent" unicode="&#x10a;" horiz-adv-x="590" 
d="M323 -6q-115 0 -168.5 62t-53.5 176q0 36 4.5 76.5t10.5 77.5q18 116 54 195.5t97 120.5t152 41q80 0 136 -11.5t93 -22.5l-13 -78q-46 9 -96.5 15.5t-104.5 6.5q-46 0 -81 -14.5t-61 -47.5t-44.5 -88t-32.5 -137q-5 -35 -9 -71t-4 -64q0 -77 33 -112t114 -35
q72 0 115.5 3.5t85.5 9.5l-13 -78q-49 -14 -105.5 -19.5t-108.5 -5.5zM417 815q-14 0 -14 14v1.5v1.5l13 84q3 18 20 18h47q14 0 14 -14v-1.5v-2.5l-13 -84q-2 -17 -20 -17h-47z" />
    <glyph glyph-name="cdotaccent" unicode="&#x10b;" horiz-adv-x="479" 
d="M273 -6q-57 0 -100 17.5t-67 59.5t-24 120q0 18 3 42.5t7 51.5q14 93 48 149t85 81.5t115 25.5q40 0 88 -6t89 -14l-10 -59h-147q-46 0 -79.5 -18.5t-56.5 -61.5t-35 -116q-3 -22 -5 -38.5t-2 -28.5q0 -49 14 -77t41 -39.5t67 -11.5h152l-9 -57q-33 -9 -75.5 -14.5
t-98.5 -5.5zM336 655q-14 0 -14 14v1.5v1.5l13 84q3 18 20 18h47q14 0 14 -14v-1.5v-2.5l-13 -84q-2 -17 -20 -17h-47z" />
    <glyph glyph-name="Ccaron" unicode="&#x10c;" horiz-adv-x="590" 
d="M323 -6q-115 0 -168.5 62t-53.5 176q0 36 4.5 76.5t10.5 77.5q18 116 54 195.5t97 120.5t152 41q80 0 136 -11.5t93 -22.5l-13 -78q-46 9 -96.5 15.5t-104.5 6.5q-46 0 -81 -14.5t-61 -47.5t-44.5 -88t-32.5 -137q-5 -35 -9 -71t-4 -64q0 -77 33 -112t114 -35
q72 0 115.5 3.5t85.5 9.5l-13 -78q-49 -14 -105.5 -19.5t-108.5 -5.5zM417 791l-85 137h60l68 -90l106 90h60l-139 -137h-70z" />
    <glyph glyph-name="ccaron" unicode="&#x10d;" horiz-adv-x="479" 
d="M273 -6q-57 0 -100 17.5t-67 59.5t-24 120q0 18 3 42.5t7 51.5q14 93 48 149t85 81.5t115 25.5q40 0 88 -6t89 -14l-10 -59h-147q-46 0 -79.5 -18.5t-56.5 -61.5t-35 -116q-3 -22 -5 -38.5t-2 -28.5q0 -49 14 -77t41 -39.5t67 -11.5h152l-9 -57q-33 -9 -75.5 -14.5
t-98.5 -5.5zM330 631l-85 137h60l68 -90l106 90h60l-139 -137h-70z" />
    <glyph glyph-name="Dcaron" unicode="&#x10e;" horiz-adv-x="678" 
d="M69 0l117 737h269q91 0 142 -30.5t72 -88t21 -138.5q0 -31 -3 -64t-8 -66q-13 -83 -39.5 -148t-67.5 -110t-99 -68.5t-134 -23.5h-270zM184 90h164q53 0 92 20.5t66.5 57.5t45 88t27.5 113q5 33 8 61t3 48q0 57 -14.5 94.5t-49 56t-95.5 18.5h-160zM407 791l-85 137h60
l68 -90l106 90h60l-139 -137h-70z" />
    <glyph glyph-name="dcaron" unicode="&#x10f;" horiz-adv-x="569" 
d="M236 -6q-71 0 -112.5 46.5t-41.5 133.5q0 56 11 111q15 79 41.5 136t80 88.5t145.5 31.5q36 0 67 -5.5t59 -18.5l39 246h101l-121 -763h-87l-5 56q-21 -16 -49.5 -30t-61 -23t-66.5 -9zM276 76q43 0 79 13.5t68 31.5l50 313q-22 12 -48 18.5t-61 6.5q-53 0 -87 -18.5
t-54.5 -60.5t-32.5 -113q-4 -21 -6 -39.5t-2 -35.5q0 -43 13 -68.5t34 -36.5t47 -11zM659 573l13 147l10 67h93l-11 -67l-30 -147h-75z" />
    <glyph glyph-name="Dcroat" unicode="&#x110;" horiz-adv-x="678" 
d="M58 339l12 68h324l-12 -68h-324zM69 0l117 737h269q91 0 142 -30.5t72 -88t21 -138.5q0 -31 -3 -64t-8 -66q-13 -83 -39.5 -148t-67.5 -110t-99 -68.5t-134 -23.5h-270zM184 90h164q53 0 92 20.5t66.5 57.5t45 88t27.5 113q5 33 8 61t3 48q0 57 -14.5 94.5t-49 56
t-95.5 18.5h-160z" />
    <glyph glyph-name="dcroat" unicode="&#x111;" horiz-adv-x="573" 
d="M371 625l7 42h298l-7 -42h-298zM236 -6q-71 0 -112.5 46.5t-41.5 133.5q0 56 11 111q15 79 41.5 136t80 88.5t145.5 31.5q36 0 67 -5.5t59 -18.5l39 246h101l-121 -763h-87l-5 56q-21 -16 -49.5 -30t-61 -23t-66.5 -9zM276 76q43 0 79 13.5t68 31.5l50 313
q-22 12 -48 18.5t-61 6.5q-53 0 -87 -18.5t-54.5 -60.5t-32.5 -113q-4 -21 -6 -39.5t-2 -35.5q0 -43 13 -68.5t34 -36.5t47 -11z" />
    <glyph glyph-name="Emacron" unicode="&#x112;" horiz-adv-x="583" 
d="M232 -6q-27 0 -54.5 5.5t-49.5 22t-33 47.5t-3 79l69 436q9 59 35.5 92.5t63.5 47.5t79 13q75 -1 149.5 -3.5t150.5 -6.5l-13 -83h-275q-39 0 -62.5 -19.5t-30.5 -65.5l-23 -146l308 -8l-13 -78l-310 -5l-24 -152q-4 -32 4 -50t26 -25t44 -7h269l-13 -83
q-71 -3 -144 -6.5t-150 -4.5zM293 824l10 60h270l-10 -60h-270z" />
    <glyph glyph-name="emacron" unicode="&#x113;" horiz-adv-x="548" 
d="M298 -6q-77 0 -124.5 22t-69 65t-21.5 104q0 30 3 57t7 53q13 83 46.5 138t90 82.5t137.5 27.5q42 0 77.5 -7.5t61.5 -24.5t41.5 -46t15.5 -73q0 -54 -20 -89t-54.5 -54t-78.5 -26.5t-91 -7.5q-44 0 -79.5 4.5t-54.5 9.5q-2 -13 -2.5 -27t-0.5 -27q0 -55 35.5 -80
t117.5 -25h165l-9 -60q-34 -6 -85.5 -11t-107.5 -5zM288 275q57 0 97 9.5t61.5 33t21.5 64.5q0 44 -26.5 63.5t-81.5 19.5q-54 0 -88 -21.5t-53 -62t-27 -98.5q19 -3 44.5 -5.5t51.5 -2.5zM254 664l10 60h270l-10 -60h-270z" />
    <glyph glyph-name="Ebreve" unicode="&#x114;" horiz-adv-x="583" 
d="M232 -6q-27 0 -54.5 5.5t-49.5 22t-33 47.5t-3 79l69 436q9 59 35.5 92.5t63.5 47.5t79 13q75 -1 149.5 -3.5t150.5 -6.5l-13 -83h-275q-39 0 -62.5 -19.5t-30.5 -65.5l-23 -146l308 -8l-13 -78l-310 -5l-24 -152q-4 -32 4 -50t26 -25t44 -7h269l-13 -83
q-71 -3 -144 -6.5t-150 -4.5zM422 787q-33 0 -58.5 11t-40.5 34.5t-15 61.5q0 9 1 18.5t2 19.5h48q-1 -7 -1.5 -13.5t-0.5 -12.5q0 -39 21 -55.5t50 -16.5q36 0 65.5 21.5t37.5 76.5h48q-8 -54 -31 -85.5t-55.5 -45.5t-70.5 -14z" />
    <glyph glyph-name="ebreve" unicode="&#x115;" horiz-adv-x="548" 
d="M298 -6q-77 0 -124.5 22t-69 65t-21.5 104q0 30 3 57t7 53q13 83 46.5 138t90 82.5t137.5 27.5q42 0 77.5 -7.5t61.5 -24.5t41.5 -46t15.5 -73q0 -54 -20 -89t-54.5 -54t-78.5 -26.5t-91 -7.5q-44 0 -79.5 4.5t-54.5 9.5q-2 -13 -2.5 -27t-0.5 -27q0 -55 35.5 -80
t117.5 -25h165l-9 -60q-34 -6 -85.5 -11t-107.5 -5zM288 275q57 0 97 9.5t61.5 33t21.5 64.5q0 44 -26.5 63.5t-81.5 19.5q-54 0 -88 -21.5t-53 -62t-27 -98.5q19 -3 44.5 -5.5t51.5 -2.5zM383 627q-33 0 -58.5 11t-40.5 34.5t-15 61.5q0 9 1 18.5t2 19.5h48
q-1 -7 -1.5 -13.5t-0.5 -12.5q0 -39 21 -55.5t50 -16.5q36 0 65.5 21.5t37.5 76.5h48q-8 -54 -31 -85.5t-55.5 -45.5t-70.5 -14z" />
    <glyph glyph-name="Edotaccent" unicode="&#x116;" horiz-adv-x="583" 
d="M232 -6q-27 0 -54.5 5.5t-49.5 22t-33 47.5t-3 79l69 436q9 59 35.5 92.5t63.5 47.5t79 13q75 -1 149.5 -3.5t150.5 -6.5l-13 -83h-275q-39 0 -62.5 -19.5t-30.5 -65.5l-23 -146l308 -8l-13 -78l-310 -5l-24 -152q-4 -32 4 -50t26 -25t44 -7h269l-13 -83
q-71 -3 -144 -6.5t-150 -4.5zM403 815q-14 0 -14 14v1.5v1.5l13 84q3 18 20 18h47q14 0 14 -14v-1.5v-2.5l-13 -84q-2 -17 -20 -17h-47z" />
    <glyph glyph-name="edotaccent" unicode="&#x117;" horiz-adv-x="548" 
d="M298 -6q-77 0 -124.5 22t-69 65t-21.5 104q0 30 3 57t7 53q13 83 46.5 138t90 82.5t137.5 27.5q42 0 77.5 -7.5t61.5 -24.5t41.5 -46t15.5 -73q0 -54 -20 -89t-54.5 -54t-78.5 -26.5t-91 -7.5q-44 0 -79.5 4.5t-54.5 9.5q-2 -13 -2.5 -27t-0.5 -27q0 -55 35.5 -80
t117.5 -25h165l-9 -60q-34 -6 -85.5 -11t-107.5 -5zM288 275q57 0 97 9.5t61.5 33t21.5 64.5q0 44 -26.5 63.5t-81.5 19.5q-54 0 -88 -21.5t-53 -62t-27 -98.5q19 -3 44.5 -5.5t51.5 -2.5zM360 655q-14 0 -14 14v1.5v1.5l13 84q3 18 20 18h47q14 0 14 -14v-1.5v-2.5l-13 -84
q-2 -17 -20 -17h-47z" />
    <glyph glyph-name="Eogonek" unicode="&#x118;" horiz-adv-x="583" 
d="M232 -6q-27 0 -54.5 5.5t-49.5 22t-33 47.5t-3 79l69 436q9 59 35.5 92.5t63.5 47.5t79 13q75 -1 149.5 -3.5t150.5 -6.5l-13 -83h-275q-39 0 -62.5 -19.5t-30.5 -65.5l-23 -146l308 -8l-13 -78l-310 -5l-24 -152q-4 -32 4 -50t26 -25t44 -7h269l-13 -83
q-71 -3 -144 -6.5t-150 -4.5zM492 -183q-47 0 -70 21.5t-23 52.5q0 32 22 62.5t67 51.5h38q-38 -20 -55 -45t-17 -42q0 -24 17.5 -37t49.5 -13h7l-8 -49q-5 -1 -12.5 -1.5t-15.5 -0.5z" />
    <glyph glyph-name="eogonek" unicode="&#x119;" horiz-adv-x="548" 
d="M298 -6q-77 0 -124.5 22t-69 65t-21.5 104q0 30 3 57t7 53q13 83 46.5 138t90 82.5t137.5 27.5q42 0 77.5 -7.5t61.5 -24.5t41.5 -46t15.5 -73q0 -54 -20 -89t-54.5 -54t-78.5 -26.5t-91 -7.5q-44 0 -79.5 4.5t-54.5 9.5q-2 -13 -2.5 -27t-0.5 -27q0 -55 35.5 -80
t117.5 -25h165l-9 -60q-34 -6 -85.5 -11t-107.5 -5zM288 275q57 0 97 9.5t61.5 33t21.5 64.5q0 44 -26.5 63.5t-81.5 19.5q-54 0 -88 -21.5t-53 -62t-27 -98.5q19 -3 44.5 -5.5t51.5 -2.5zM456 -178q-47 0 -70 21.5t-23 52.5q0 32 22 62.5t67 51.5h38q-38 -20 -55 -45
t-17 -42q0 -24 17.5 -37t49.5 -13h7l-8 -49q-5 -1 -12.5 -1.5t-15.5 -0.5z" />
    <glyph glyph-name="Ecaron" unicode="&#x11a;" horiz-adv-x="583" 
d="M232 -6q-27 0 -54.5 5.5t-49.5 22t-33 47.5t-3 79l69 436q9 59 35.5 92.5t63.5 47.5t79 13q75 -1 149.5 -3.5t150.5 -6.5l-13 -83h-275q-39 0 -62.5 -19.5t-30.5 -65.5l-23 -146l308 -8l-13 -78l-310 -5l-24 -152q-4 -32 4 -50t26 -25t44 -7h269l-13 -83
q-71 -3 -144 -6.5t-150 -4.5zM403 791l-85 137h60l68 -90l106 90h60l-139 -137h-70z" />
    <glyph glyph-name="ecaron" unicode="&#x11b;" horiz-adv-x="548" 
d="M298 -6q-77 0 -124.5 22t-69 65t-21.5 104q0 30 3 57t7 53q13 83 46.5 138t90 82.5t137.5 27.5q42 0 77.5 -7.5t61.5 -24.5t41.5 -46t15.5 -73q0 -54 -20 -89t-54.5 -54t-78.5 -26.5t-91 -7.5q-44 0 -79.5 4.5t-54.5 9.5q-2 -13 -2.5 -27t-0.5 -27q0 -55 35.5 -80
t117.5 -25h165l-9 -60q-34 -6 -85.5 -11t-107.5 -5zM288 275q57 0 97 9.5t61.5 33t21.5 64.5q0 44 -26.5 63.5t-81.5 19.5q-54 0 -88 -21.5t-53 -62t-27 -98.5q19 -3 44.5 -5.5t51.5 -2.5zM354 631l-85 137h60l68 -90l106 90h60l-139 -137h-70z" />
    <glyph glyph-name="Gcircumflex" unicode="&#x11c;" horiz-adv-x="650" 
d="M291 -6q-104 0 -147.5 55.5t-43.5 173.5q0 40 4.5 82.5t11.5 86.5q18 111 56 190t101 120.5t156 41.5q86 0 142 -9.5t101 -23.5l-12 -77q-38 8 -93.5 14t-128.5 6q-71 0 -115 -31.5t-68.5 -94.5t-39.5 -160q-13 -85 -13 -141q0 -71 28.5 -105.5t94.5 -34.5q22 0 48.5 3.5
t52.5 8.5t47.5 11t33.5 10l31 196h-164l13 79q26 3 68 5t100 2q14 0 31.5 -0.5t34 -1t28.5 -0.5l-64 -400h-74l-7 51q-14 -7 -38.5 -17t-55 -19t-61.5 -15t-58 -6zM288 791l139 137h70l86 -137h-60l-70 91l-105 -91h-60z" />
    <glyph glyph-name="gcircumflex" unicode="&#x11d;" horiz-adv-x="569" 
d="M188 -235l-142 8l11 69h165q43 0 80 10.5t62 35t32 65.5l17 103q-27 -19 -59.5 -33t-65.5 -21.5t-62 -7.5q-44 0 -76.5 22.5t-50.5 63t-18 93.5q0 26 4 58t8 61q11 67 33.5 114.5t57 76.5t81.5 43.5t106 14.5q71 0 127 -8.5t88 -17.5l-92 -577q-9 -54 -35.5 -89.5
t-67.5 -55t-93 -26t-110 -2.5zM273 76q40 0 75 11.5t75 33.5l52 331q-27 3 -54.5 4.5t-54.5 2.5q-51 2 -86 -16.5t-56.5 -58.5t-32.5 -104q-4 -30 -6.5 -50.5t-2.5 -40.5q0 -58 26 -85.5t65 -27.5zM236 631l139 137h70l86 -137h-60l-70 91l-105 -91h-60z" />
    <glyph glyph-name="Gbreve" unicode="&#x11e;" horiz-adv-x="650" 
d="M291 -6q-104 0 -147.5 55.5t-43.5 173.5q0 40 4.5 82.5t11.5 86.5q18 111 56 190t101 120.5t156 41.5q86 0 142 -9.5t101 -23.5l-12 -77q-38 8 -93.5 14t-128.5 6q-71 0 -115 -31.5t-68.5 -94.5t-39.5 -160q-13 -85 -13 -141q0 -71 28.5 -105.5t94.5 -34.5q22 0 48.5 3.5
t52.5 8.5t47.5 11t33.5 10l31 196h-164l13 79q26 3 68 5t100 2q14 0 31.5 -0.5t34 -1t28.5 -0.5l-64 -400h-74l-7 51q-14 -7 -38.5 -17t-55 -19t-61.5 -15t-58 -6zM442 787q-33 0 -58.5 11t-40.5 34.5t-15 61.5q0 9 1 18.5t2 19.5h48q-1 -7 -1.5 -13.5t-0.5 -12.5
q0 -39 21 -55.5t50 -16.5q36 0 65.5 21.5t37.5 76.5h48q-8 -54 -31 -85.5t-55.5 -45.5t-70.5 -14z" />
    <glyph glyph-name="gbreve" unicode="&#x11f;" horiz-adv-x="569" 
d="M188 -235l-142 8l11 69h165q43 0 80 10.5t62 35t32 65.5l17 103q-27 -19 -59.5 -33t-65.5 -21.5t-62 -7.5q-44 0 -76.5 22.5t-50.5 63t-18 93.5q0 26 4 58t8 61q11 67 33.5 114.5t57 76.5t81.5 43.5t106 14.5q71 0 127 -8.5t88 -17.5l-92 -577q-9 -54 -35.5 -89.5
t-67.5 -55t-93 -26t-110 -2.5zM273 76q40 0 75 11.5t75 33.5l52 331q-27 3 -54.5 4.5t-54.5 2.5q-51 2 -86 -16.5t-56.5 -58.5t-32.5 -104q-4 -30 -6.5 -50.5t-2.5 -40.5q0 -58 26 -85.5t65 -27.5zM385 627q-33 0 -58.5 11t-40.5 34.5t-15 61.5q0 9 1 18.5t2 19.5h48
q-1 -7 -1.5 -13.5t-0.5 -12.5q0 -39 21 -55.5t50 -16.5q36 0 65.5 21.5t37.5 76.5h48q-8 -54 -31 -85.5t-55.5 -45.5t-70.5 -14z" />
    <glyph glyph-name="Gdotaccent" unicode="&#x120;" horiz-adv-x="650" 
d="M291 -6q-104 0 -147.5 55.5t-43.5 173.5q0 40 4.5 82.5t11.5 86.5q18 111 56 190t101 120.5t156 41.5q86 0 142 -9.5t101 -23.5l-12 -77q-38 8 -93.5 14t-128.5 6q-71 0 -115 -31.5t-68.5 -94.5t-39.5 -160q-13 -85 -13 -141q0 -71 28.5 -105.5t94.5 -34.5q22 0 48.5 3.5
t52.5 8.5t47.5 11t33.5 10l31 196h-164l13 79q26 3 68 5t100 2q14 0 31.5 -0.5t34 -1t28.5 -0.5l-64 -400h-74l-7 51q-14 -7 -38.5 -17t-55 -19t-61.5 -15t-58 -6zM423 815q-14 0 -14 14v1.5v1.5l13 84q3 18 20 18h47q14 0 14 -14v-1.5v-2.5l-13 -84q-2 -17 -20 -17h-47z
" />
    <glyph glyph-name="gdotaccent" unicode="&#x121;" horiz-adv-x="569" 
d="M188 -235l-142 8l11 69h165q43 0 80 10.5t62 35t32 65.5l17 103q-27 -19 -59.5 -33t-65.5 -21.5t-62 -7.5q-44 0 -76.5 22.5t-50.5 63t-18 93.5q0 26 4 58t8 61q11 67 33.5 114.5t57 76.5t81.5 43.5t106 14.5q71 0 127 -8.5t88 -17.5l-92 -577q-9 -54 -35.5 -89.5
t-67.5 -55t-93 -26t-110 -2.5zM273 76q40 0 75 11.5t75 33.5l52 331q-27 3 -54.5 4.5t-54.5 2.5q-51 2 -86 -16.5t-56.5 -58.5t-32.5 -104q-4 -30 -6.5 -50.5t-2.5 -40.5q0 -58 26 -85.5t65 -27.5zM362 655q-14 0 -14 14v1.5v1.5l13 84q3 18 20 18h47q14 0 14 -14v-1.5v-2.5
l-13 -84q-2 -17 -20 -17h-47z" />
    <glyph glyph-name="uni0122" unicode="&#x122;" horiz-adv-x="650" 
d="M291 -6q-104 0 -147.5 55.5t-43.5 173.5q0 40 4.5 82.5t11.5 86.5q18 111 56 190t101 120.5t156 41.5q86 0 142 -9.5t101 -23.5l-12 -77q-38 8 -93.5 14t-128.5 6q-71 0 -115 -31.5t-68.5 -94.5t-39.5 -160q-13 -85 -13 -141q0 -71 28.5 -105.5t94.5 -34.5q22 0 48.5 3.5
t52.5 8.5t47.5 11t33.5 10l31 196h-164l13 79q26 3 68 5t100 2q14 0 31.5 -0.5t34 -1t28.5 -0.5l-64 -400h-74l-7 51q-14 -7 -38.5 -17t-55 -19t-61.5 -15t-58 -6zM199 -206l7 41l29 5q23 5 38 12t25 25.5t15 56.5h62q-8 -50 -22.5 -81t-41 -45t-70.5 -14h-42z" />
    <glyph glyph-name="uni0123" unicode="&#x123;" horiz-adv-x="569" 
d="M188 -235l-142 8l11 69h165q43 0 80 10.5t62 35t32 65.5l17 103q-27 -19 -59.5 -33t-65.5 -21.5t-62 -7.5q-44 0 -76.5 22.5t-50.5 63t-18 93.5q0 26 4 58t8 61q11 67 33.5 114.5t57 76.5t81.5 43.5t106 14.5q71 0 127 -8.5t88 -17.5l-92 -577q-9 -54 -35.5 -89.5
t-67.5 -55t-93 -26t-110 -2.5zM273 76q40 0 75 11.5t75 33.5l52 331q-27 3 -54.5 4.5t-54.5 2.5q-51 2 -86 -16.5t-56.5 -58.5t-32.5 -104q-4 -30 -6.5 -50.5t-2.5 -40.5q0 -58 26 -85.5t65 -27.5zM319 621q8 50 22.5 81t41 45t70.5 14h43l-7 -41l-30 -6q-22 -3 -37.5 -10.5
t-25 -26t-15.5 -56.5h-62z" />
    <glyph glyph-name="Hcircumflex" unicode="&#x124;" horiz-adv-x="674" 
d="M69 0l117 737h100l-52 -331h339l53 331h101l-117 -737h-101l50 316h-340l-50 -316h-100zM304 791l139 137h70l86 -137h-60l-70 91l-105 -91h-60z" />
    <glyph glyph-name="hcircumflex" unicode="&#x125;" horiz-adv-x="580" 
d="M64 0l121 763h100l-45 -286q38 27 90 46t114 19q65 0 99.5 -32t34.5 -99q0 -24 -4 -55l-57 -356h-100l54 343q1 9 1.5 16.5t0.5 15.5q0 43 -22.5 60t-61.5 17q-47 0 -84 -13.5t-77 -39.5l-64 -399h-100zM174 831l139 137h70l86 -137h-60l-70 91l-105 -91h-60z" />
    <glyph glyph-name="Hbar" unicode="&#x126;" horiz-adv-x="674" 
d="M90 523l8 54h665l-9 -54h-664zM69 0l117 737h100l-52 -331h339l53 331h101l-117 -737h-101l50 316h-340l-50 -316h-100z" />
    <glyph glyph-name="hbar" unicode="&#x127;" horiz-adv-x="581" 
d="M98 625l7 42h299l-7 -42h-299zM64 0l121 763h100l-45 -286q38 27 90 46t114 19q65 0 99.5 -32t34.5 -99q0 -24 -4 -55l-57 -356h-100l54 343q1 9 1.5 16.5t0.5 15.5q0 43 -22.5 60t-61.5 17q-47 0 -84 -13.5t-77 -39.5l-64 -399h-100z" />
    <glyph glyph-name="Itilde" unicode="&#x128;" horiz-adv-x="238" 
d="M69 0l117 737h100l-117 -737h-100zM78 805q14 62 46.5 86t69.5 24q23 0 42.5 -8t36.5 -18.5t34 -18.5t34 -8q24 0 40.5 15t20.5 42h51q-12 -57 -40 -85t-74 -28q-22 0 -41 8t-37 18.5t-35.5 18.5t-34.5 8q-23 0 -40 -14t-22 -40h-51z" />
    <glyph glyph-name="itilde" unicode="&#x129;" horiz-adv-x="228" 
d="M64 0l85 535h100l-84 -535h-101zM48 645q14 62 46.5 86t69.5 24q23 0 42.5 -8t36.5 -18.5t34 -18.5t34 -8q24 0 40.5 15t20.5 42h51q-12 -57 -40 -85t-74 -28q-22 0 -41 8t-37 18.5t-35.5 18.5t-34.5 8q-23 0 -40 -14t-22 -40h-51z" />
    <glyph glyph-name="Imacron" unicode="&#x12a;" horiz-adv-x="238" 
d="M69 0l117 737h100l-117 -737h-100zM111 824l10 60h270l-10 -60h-270z" />
    <glyph glyph-name="imacron" unicode="&#x12b;" horiz-adv-x="228" 
d="M64 0l85 535h100l-84 -535h-101zM91 664l10 60h270l-10 -60h-270z" />
    <glyph glyph-name="Ibreve" unicode="&#x12c;" horiz-adv-x="238" 
d="M69 0l117 737h100l-117 -737h-100zM240 787q-33 0 -58.5 11t-40.5 34.5t-15 61.5q0 9 1 18.5t2 19.5h48q-1 -7 -1.5 -13.5t-0.5 -12.5q0 -39 21 -55.5t50 -16.5q36 0 65.5 21.5t37.5 76.5h48q-8 -54 -31 -85.5t-55.5 -45.5t-70.5 -14z" />
    <glyph glyph-name="ibreve" unicode="&#x12d;" horiz-adv-x="228" 
d="M64 0l85 535h100l-84 -535h-101zM220 627q-33 0 -58.5 11t-40.5 34.5t-15 61.5q0 9 1 18.5t2 19.5h48q-1 -7 -1.5 -13.5t-0.5 -12.5q0 -39 21 -55.5t50 -16.5q36 0 65.5 21.5t37.5 76.5h48q-8 -54 -31 -85.5t-55.5 -45.5t-70.5 -14z" />
    <glyph glyph-name="Iogonek" unicode="&#x12e;" horiz-adv-x="238" 
d="M69 0l117 737h100l-117 -737h-100zM135 -188q-47 0 -70 21.5t-23 52.5q0 32 22 62.5t67 51.5h38q-38 -20 -55 -45t-17 -42q0 -24 17.5 -37t49.5 -13h7l-8 -49q-5 -1 -12.5 -1.5t-15.5 -0.5z" />
    <glyph glyph-name="iogonek" unicode="&#x12f;" horiz-adv-x="227" 
d="M176 625q-7 0 -11.5 5t-2.5 12l13 84q3 18 20 18h75q8 0 11 -5t2 -13l-13 -84q-3 -17 -19 -17h-75zM64 0l84 535h101l-85 -535h-100zM130 -188q-47 0 -70 21.5t-23 52.5q0 32 22 62.5t67 51.5h38q-38 -20 -55 -45t-17 -42q0 -24 17.5 -37t49.5 -13h7l-8 -49
q-5 -1 -12.5 -1.5t-15.5 -0.5z" />
    <glyph glyph-name="Idotaccent" unicode="&#x130;" horiz-adv-x="238" 
d="M69 0l117 737h100l-117 -737h-100zM221 815q-14 0 -14 14v1.5v1.5l13 84q3 18 20 18h47q14 0 14 -14v-1.5v-2.5l-13 -84q-2 -17 -20 -17h-47z" />
    <glyph glyph-name="dotlessi" unicode="&#x131;" horiz-adv-x="228" 
d="M64 0l85 535h100l-84 -535h-101z" />
    <glyph glyph-name="Jcircumflex" unicode="&#x134;" horiz-adv-x="363" 
d="M142 -6q-32 0 -61.5 7t-48.5 16l13 79q20 -6 41.5 -8t40.5 -2q49 0 77 26.5t37 82.5l86 542h101l-89 -561q-16 -97 -63 -139.5t-134 -42.5zM228 791l139 137h70l86 -137h-60l-70 91l-105 -91h-60z" />
    <glyph glyph-name="jcircumflex" unicode="&#x135;" horiz-adv-x="228" 
d="M26 -237l123 772h100l-85 -539q-10 -60 -27 -120t-37 -113h-74zM71 631l139 137h70l86 -137h-60l-70 91l-105 -91h-60z" />
    <glyph glyph-name="uni0136" unicode="&#x136;" horiz-adv-x="611" 
d="M69 0l117 737h100l-51 -322h120l234 322h104l-264 -369l162 -368h-101l-144 324h-126l-51 -324h-100zM176 -206l7 41l29 5q23 5 38 12t25 25.5t15 56.5h62q-8 -50 -22.5 -81t-41 -45t-70.5 -14h-42z" />
    <glyph glyph-name="uni0137" unicode="&#x137;" horiz-adv-x="538" 
d="M64 0l121 763h100l-69 -435q56 5 102 27t80 66t54 114h100q-20 -73 -49.5 -120.5t-63 -76.5t-67.5 -45l152 -293h-105l-132 262q-20 -5 -43 -8t-40 -3l-40 -251h-100zM161 -206l7 41l29 5q23 5 38 12t25 25.5t15 56.5h62q-8 -50 -22.5 -81t-41 -45t-70.5 -14h-42z" />
    <glyph glyph-name="kgreenlandic" unicode="&#x138;" horiz-adv-x="538" 
d="M63 0l85 535h100l-34 -218q56 5 102 28t80 69.5t55 120.5h101q-21 -76 -50.5 -125.5t-63 -79.5t-68.5 -48l153 -282h-104l-134 251q-20 -5 -43.5 -8t-39.5 -3l-38 -240h-101z" />
    <glyph glyph-name="Lacute" unicode="&#x139;" horiz-adv-x="526" 
d="M225 0q-61 0 -97.5 26.5t-36.5 91.5q0 10 1 20.5t2 20.5l92 578h100l-90 -566q-1 -7 -1.5 -12.5t-0.5 -12.5q0 -33 19.5 -44.5t50.5 -11.5h254l-15 -90h-278zM207 791l114 138h88l-139 -138h-63z" />
    <glyph glyph-name="lacute" unicode="&#x13a;" horiz-adv-x="302" 
d="M222 0q-66 0 -101 30t-35 81q0 20 2 38.5t5 34.5l92 579h100l-87 -548q-1 -9 -3 -22.5t-3.5 -27.5t-1.5 -27q0 -32 15 -44.5t42 -15.5l48 -6l-12 -72h-61zM216 831l114 138h88l-139 -138h-63z" />
    <glyph glyph-name="uni013B" unicode="&#x13b;" horiz-adv-x="526" 
d="M225 0q-61 0 -97.5 26.5t-36.5 91.5q0 10 1 20.5t2 20.5l92 578h100l-90 -566q-1 -7 -1.5 -12.5t-0.5 -12.5q0 -33 19.5 -44.5t50.5 -11.5h254l-15 -90h-278zM155 -206l7 41l29 5q23 5 38 12t25 25.5t15 56.5h62q-8 -50 -22.5 -81t-41 -45t-70.5 -14h-42z" />
    <glyph glyph-name="uni013C" unicode="&#x13c;" horiz-adv-x="302" 
d="M222 0q-66 0 -101 30t-35 81q0 20 2 38.5t5 34.5l92 579h100l-87 -548q-1 -9 -3 -22.5t-3.5 -27.5t-1.5 -27q0 -32 15 -44.5t42 -15.5l48 -6l-12 -72h-61zM64 -206l7 41l29 5q23 5 38 12t25 25.5t15 56.5h62q-8 -50 -22.5 -81t-41 -45t-70.5 -14h-42z" />
    <glyph glyph-name="Lcaron" unicode="&#x13d;" horiz-adv-x="526" 
d="M225 0q-61 0 -97.5 26.5t-36.5 91.5q0 10 1 20.5t2 20.5l92 578h100l-90 -566q-1 -7 -1.5 -12.5t-0.5 -12.5q0 -33 19.5 -44.5t50.5 -11.5h254l-15 -90h-278zM366 526l13 147l10 67h93l-11 -67l-30 -147h-75z" />
    <glyph glyph-name="lcaron" unicode="&#x13e;" horiz-adv-x="302" 
d="M222 0q-66 0 -101 30t-35 81q0 20 2 38.5t5 34.5l92 579h100l-87 -548q-1 -9 -3 -22.5t-3.5 -27.5t-1.5 -27q0 -32 15 -44.5t42 -15.5l48 -6l-12 -72h-61zM319 573l13 147l10 67h93l-11 -67l-30 -147h-75z" />
    <glyph glyph-name="Ldot" unicode="&#x13f;" horiz-adv-x="526" 
d="M225 0q-61 0 -97.5 26.5t-36.5 91.5q0 10 1 20.5t2 20.5l92 578h100l-90 -566q-1 -7 -1.5 -12.5t-0.5 -12.5q0 -33 19.5 -44.5t50.5 -11.5h254l-15 -90h-278zM414 387q-7 0 -11.5 5t-3.5 12l10 60q2 18 20 18h57q18 0 15 -18l-10 -60q-1 -9 -6.5 -13t-13.5 -4h-57z" />
    <glyph glyph-name="ldot" unicode="&#x140;" horiz-adv-x="326" 
d="M222 0q-66 0 -101 30t-35 81q0 20 2 38.5t5 34.5l92 579h100l-87 -548q-1 -9 -3 -22.5t-3.5 -27.5t-1.5 -27q0 -32 15 -44.5t42 -15.5l48 -6l-12 -72h-61zM317 364q-7 0 -11.5 5t-3.5 12l10 60q2 18 20 18h57q18 0 15 -18l-10 -60q-1 -9 -6.5 -13t-13.5 -4h-57z" />
    <glyph glyph-name="Lslash" unicode="&#x141;" horiz-adv-x="526" 
d="M48 311l8 57l92 36l80 21l155 63l-9 -56l-155 -63l-80 -22zM225 0q-61 0 -97.5 26.5t-36.5 91.5q0 10 1 20.5t2 20.5l92 578h100l-90 -566q-1 -7 -1.5 -12.5t-0.5 -12.5q0 -33 19.5 -44.5t50.5 -11.5h254l-15 -90h-278z" />
    <glyph glyph-name="lslash" unicode="&#x142;" horiz-adv-x="302" 
d="M52 351l8 57l75 26l102 32l105 36l-8 -57l-106 -36l-102 -33zM222 0q-66 0 -101 30t-35 81q0 20 2 38.5t5 34.5l92 579h100l-87 -548q-1 -9 -3 -22.5t-3.5 -27.5t-1.5 -27q0 -32 15 -44.5t42 -15.5l48 -6l-12 -72h-61z" />
    <glyph glyph-name="Nacute" unicode="&#x143;" horiz-adv-x="676" 
d="M69 0l117 737h81l271 -566l90 566h101l-117 -737h-82l-271 567l-90 -567h-100zM410 791l114 138h88l-139 -138h-63z" />
    <glyph glyph-name="nacute" unicode="&#x144;" horiz-adv-x="580" 
d="M64 0l84 535h82l10 -58q40 28 91.5 46.5t109.5 18.5q48 0 78.5 -16t44.5 -44t14 -64q0 -14 -1.5 -33t-8.5 -66l-51 -319h-100l50 316q4 28 5.5 39.5t1.5 19.5q0 34 -19 55.5t-67 21.5q-47 0 -83.5 -14t-76.5 -39l-64 -399h-100zM353 631l114 138h88l-139 -138h-63z" />
    <glyph glyph-name="uni0145" unicode="&#x145;" horiz-adv-x="676" 
d="M69 0l117 737h81l271 -566l90 566h101l-117 -737h-82l-271 567l-90 -567h-100zM205 -206l7 41l29 5q23 5 38 12t25 25.5t15 56.5h62q-8 -50 -22.5 -81t-41 -45t-70.5 -14h-42z" />
    <glyph glyph-name="uni0146" unicode="&#x146;" horiz-adv-x="580" 
d="M64 0l84 535h82l10 -58q40 28 91.5 46.5t109.5 18.5q48 0 78.5 -16t44.5 -44t14 -64q0 -14 -1.5 -33t-8.5 -66l-51 -319h-100l50 316q4 28 5.5 39.5t1.5 19.5q0 34 -19 55.5t-67 21.5q-47 0 -83.5 -14t-76.5 -39l-64 -399h-100zM169 -206l7 41l29 5q23 5 38 12t25 25.5
t15 56.5h62q-8 -50 -22.5 -81t-41 -45t-70.5 -14h-42z" />
    <glyph glyph-name="Ncaron" unicode="&#x147;" horiz-adv-x="676" 
d="M69 0l117 737h81l271 -566l90 566h101l-117 -737h-82l-271 567l-90 -567h-100zM429 791l-85 137h60l68 -90l106 90h60l-139 -137h-70z" />
    <glyph glyph-name="ncaron" unicode="&#x148;" horiz-adv-x="580" 
d="M64 0l84 535h82l10 -58q40 28 91.5 46.5t109.5 18.5q48 0 78.5 -16t44.5 -44t14 -64q0 -14 -1.5 -33t-8.5 -66l-51 -319h-100l50 316q4 28 5.5 39.5t1.5 19.5q0 34 -19 55.5t-67 21.5q-47 0 -83.5 -14t-76.5 -39l-64 -399h-100zM362 631l-85 137h60l68 -90l106 90h60
l-139 -137h-70z" />
    <glyph glyph-name="Eng" unicode="&#x14a;" horiz-adv-x="676" 
d="M388 -243q-30 0 -61 6.5t-51 15.5l12 79q22 -4 48.5 -7.5t48.5 -3.5q32 0 55.5 9t39.5 30.5t23 58.5l15 94l100 -2l-17 -105q-10 -61 -36 -100t-70 -57t-107 -18zM69 0l117 737h81l271 -566l90 566h101l-117 -737h-82l-271 567l-90 -567h-100z" />
    <glyph glyph-name="eng" unicode="&#x14b;" horiz-adv-x="580" 
d="M274 -237q35 20 63 48.5t47.5 69.5t28.5 96l8 47h100l-7 -44q-13 -84 -55.5 -138.5t-103.5 -78.5h-81zM64 0l84 535h82l10 -58q40 28 91.5 46.5t109.5 18.5q48 0 78.5 -16t44.5 -44t14 -64q0 -14 -1.5 -33t-8.5 -66l-51 -319h-100l50 316q4 28 5.5 39.5t1.5 19.5
q0 34 -19 55.5t-67 21.5q-47 0 -83.5 -14t-76.5 -39l-64 -399h-100z" />
    <glyph glyph-name="Omacron" unicode="&#x14c;" horiz-adv-x="690" 
d="M342 -6q-55 0 -100 9t-77 33t-49 68t-17 113q0 35 4 76.5t11 88.5q18 108 45.5 178.5t69.5 110t99.5 56t134.5 16.5q54 0 98.5 -9.5t77 -35.5t50 -71.5t17.5 -116.5q0 -33 -4 -75.5t-12 -88.5q-17 -110 -45.5 -179t-70 -107t-99 -52t-133.5 -14zM359 85q52 0 90 12.5
t64.5 43t45 84t31.5 136.5q7 45 11 83t4 65q0 61 -18 91.5t-53 41.5t-86 11q-50 0 -88 -12t-65.5 -43t-46.5 -87t-33 -145q-7 -43 -11.5 -80.5t-4.5 -63.5q0 -56 17 -86t52.5 -40.5t90.5 -10.5zM340 824l10 60h270l-10 -60h-270z" />
    <glyph glyph-name="omacron" unicode="&#x14d;" horiz-adv-x="569" 
d="M284 -6q-63 0 -108.5 19t-69.5 59t-24 105q0 26 2 50t6 49q13 80 35 131.5t55 80.5t79.5 41t110.5 12q77 0 121 -21t61.5 -63.5t17.5 -105.5q0 -24 -2.5 -51t-6.5 -56q-15 -98 -48.5 -152.5t-89 -76t-139.5 -21.5zM295 76q37 0 64 7.5t46 27t32.5 56t23.5 93.5
q4 28 6.5 51.5t2.5 43.5q0 58 -26.5 82t-88.5 24q-38 0 -65 -9t-46 -30.5t-32 -61t-23 -100.5q-4 -23 -5.5 -42.5t-1.5 -36.5q0 -43 14 -65.5t39.5 -31t59.5 -8.5zM252 664l10 60h270l-10 -60h-270z" />
    <glyph glyph-name="Obreve" unicode="&#x14e;" horiz-adv-x="690" 
d="M342 -6q-55 0 -100 9t-77 33t-49 68t-17 113q0 35 4 76.5t11 88.5q18 108 45.5 178.5t69.5 110t99.5 56t134.5 16.5q54 0 98.5 -9.5t77 -35.5t50 -71.5t17.5 -116.5q0 -33 -4 -75.5t-12 -88.5q-17 -110 -45.5 -179t-70 -107t-99 -52t-133.5 -14zM359 85q52 0 90 12.5
t64.5 43t45 84t31.5 136.5q7 45 11 83t4 65q0 61 -18 91.5t-53 41.5t-86 11q-50 0 -88 -12t-65.5 -43t-46.5 -87t-33 -145q-7 -43 -11.5 -80.5t-4.5 -63.5q0 -56 17 -86t52.5 -40.5t90.5 -10.5zM469 787q-33 0 -58.5 11t-40.5 34.5t-15 61.5q0 9 1 18.5t2 19.5h48
q-1 -7 -1.5 -13.5t-0.5 -12.5q0 -39 21 -55.5t50 -16.5q36 0 65.5 21.5t37.5 76.5h48q-8 -54 -31 -85.5t-55.5 -45.5t-70.5 -14z" />
    <glyph glyph-name="obreve" unicode="&#x14f;" horiz-adv-x="569" 
d="M284 -6q-63 0 -108.5 19t-69.5 59t-24 105q0 26 2 50t6 49q13 80 35 131.5t55 80.5t79.5 41t110.5 12q77 0 121 -21t61.5 -63.5t17.5 -105.5q0 -24 -2.5 -51t-6.5 -56q-15 -98 -48.5 -152.5t-89 -76t-139.5 -21.5zM295 76q37 0 64 7.5t46 27t32.5 56t23.5 93.5
q4 28 6.5 51.5t2.5 43.5q0 58 -26.5 82t-88.5 24q-38 0 -65 -9t-46 -30.5t-32 -61t-23 -100.5q-4 -23 -5.5 -42.5t-1.5 -36.5q0 -43 14 -65.5t39.5 -31t59.5 -8.5zM381 627q-33 0 -58.5 11t-40.5 34.5t-15 61.5q0 9 1 18.5t2 19.5h48q-1 -7 -1.5 -13.5t-0.5 -12.5
q0 -39 21 -55.5t50 -16.5q36 0 65.5 21.5t37.5 76.5h48q-8 -54 -31 -85.5t-55.5 -45.5t-70.5 -14z" />
    <glyph glyph-name="Ohungarumlaut" unicode="&#x150;" horiz-adv-x="690" 
d="M342 -6q-55 0 -100 9t-77 33t-49 68t-17 113q0 35 4 76.5t11 88.5q18 108 45.5 178.5t69.5 110t99.5 56t134.5 16.5q54 0 98.5 -9.5t77 -35.5t50 -71.5t17.5 -116.5q0 -33 -4 -75.5t-12 -88.5q-17 -110 -45.5 -179t-70 -107t-99 -52t-133.5 -14zM359 85q52 0 90 12.5
t64.5 43t45 84t31.5 136.5q7 45 11 83t4 65q0 61 -18 91.5t-53 41.5t-86 11q-50 0 -88 -12t-65.5 -43t-46.5 -87t-33 -145q-7 -43 -11.5 -80.5t-4.5 -63.5q0 -56 17 -86t52.5 -40.5t90.5 -10.5zM501 791l115 138h79l-135 -138h-59zM347 791l114 138h79l-134 -138h-59z" />
    <glyph glyph-name="ohungarumlaut" unicode="&#x151;" horiz-adv-x="569" 
d="M284 -6q-63 0 -108.5 19t-69.5 59t-24 105q0 26 2 50t6 49q13 80 35 131.5t55 80.5t79.5 41t110.5 12q77 0 121 -21t61.5 -63.5t17.5 -105.5q0 -24 -2.5 -51t-6.5 -56q-15 -98 -48.5 -152.5t-89 -76t-139.5 -21.5zM295 76q37 0 64 7.5t46 27t32.5 56t23.5 93.5
q4 28 6.5 51.5t2.5 43.5q0 58 -26.5 82t-88.5 24q-38 0 -65 -9t-46 -30.5t-32 -61t-23 -100.5q-4 -23 -5.5 -42.5t-1.5 -36.5q0 -43 14 -65.5t39.5 -31t59.5 -8.5zM413 631l115 138h79l-135 -138h-59zM259 631l114 138h79l-134 -138h-59z" />
    <glyph glyph-name="OE" unicode="&#x152;" horiz-adv-x="1047" 
d="M342 -6q-55 0 -100 9t-77 33t-49 68t-17 113q0 35 4 76.5t11 88.5q18 108 45.5 178.5t69.5 110t99.5 56t134.5 16.5q54 0 98.5 -9.5t77 -35.5t50 -71.5t17.5 -116.5q0 -33 -4 -75.5t-12 -88.5q-17 -110 -45.5 -179t-70 -107t-99 -52t-133.5 -14zM359 85q52 0 90 12.5
t64.5 43t45 84t31.5 136.5q7 45 11 83t4 65q0 61 -18 91.5t-53 41.5t-86 11q-50 0 -88 -12t-65.5 -43t-46.5 -87t-33 -145q-7 -43 -11.5 -80.5t-4.5 -63.5q0 -56 17 -86t52.5 -40.5t90.5 -10.5zM698 -6q-27 0 -54.5 5.5t-49.5 22t-33 47.5t-3 79l69 436q9 59 35.5 92.5
t63.5 47.5t79 13q75 -1 149.5 -3.5t150.5 -6.5l-13 -83h-275q-39 0 -62.5 -19.5t-30.5 -65.5l-23 -146l308 -8l-13 -78l-310 -5l-24 -152q-4 -32 4 -50t26 -25t44 -7h269l-13 -83q-71 -3 -144 -6.5t-150 -4.5z" />
    <glyph glyph-name="oe" unicode="&#x153;" horiz-adv-x="922" 
d="M279 -6q-62 0 -106 19t-67.5 59t-23.5 105q0 26 2 50t6 49q13 80 35 131.5t54.5 80.5t78.5 41t107 12q73 0 114 -30.5t59 -86.5q31 60 81.5 89.5t126.5 29.5q40 0 75 -7.5t60.5 -24.5t40.5 -46t15 -73q0 -54 -20 -89t-54.5 -54t-78.5 -26.5t-92 -7.5q-43 0 -78.5 4.5
t-54.5 9.5q-2 -13 -2.5 -27t-0.5 -27q0 -55 36 -80t117 -25h165l-9 -60q-33 -6 -82 -11t-95 -5q-87 0 -133 28.5t-61 84.5q-23 -36 -51.5 -61.5t-68.5 -38.5t-95 -13zM295 76q34 0 61 7.5t47 27t34 56t24 93.5q4 29 6.5 52t2.5 43q0 58 -26.5 82t-88.5 24q-38 0 -65 -9
t-46 -30.5t-32 -60.5t-23 -101q-4 -23 -5.5 -42.5t-1.5 -36.5q0 -41 14 -64t39.5 -32t59.5 -9zM662 275q57 0 97 9.5t62 33t22 64.5q0 44 -27 63.5t-81 19.5q-55 0 -89 -21.5t-52.5 -62t-27.5 -98.5q19 -3 44.5 -5.5t51.5 -2.5z" />
    <glyph glyph-name="Racute" unicode="&#x154;" horiz-adv-x="622" 
d="M69 0l117 737h272q37 0 70.5 -8.5t59 -28t40.5 -53t15 -84.5q0 -14 -1.5 -29t-4.5 -32q-9 -56 -27.5 -92t-42 -56.5t-47.5 -30t-43 -14.5l98 -309h-102l-89 294q-15 0 -36.5 0.5t-45.5 1t-46.5 1t-39.5 0.5l-47 -297h-100zM229 375h169q36 0 63.5 11t46.5 39.5t28 83.5
q2 12 2.5 22t0.5 19q0 39 -14.5 59.5t-37 29t-49.5 8.5h-167zM362 791l114 138h88l-139 -138h-63z" />
    <glyph glyph-name="racute" unicode="&#x155;" horiz-adv-x="403" 
d="M64 0l85 535h87l3 -67q31 29 70.5 51t87.5 22q19 0 34.5 -1.5t27.5 -5.5l-15 -101q-15 3 -32 4t-35 1q-47 0 -84.5 -15t-66.5 -34l-61 -389h-101zM272 632l114 138h88l-139 -138h-63z" />
    <glyph glyph-name="uni0156" unicode="&#x156;" horiz-adv-x="622" 
d="M69 0l117 737h272q37 0 70.5 -8.5t59 -28t40.5 -53t15 -84.5q0 -14 -1.5 -29t-4.5 -32q-9 -56 -27.5 -92t-42 -56.5t-47.5 -30t-43 -14.5l98 -309h-102l-89 294q-15 0 -36.5 0.5t-45.5 1t-46.5 1t-39.5 0.5l-47 -297h-100zM229 375h169q36 0 63.5 11t46.5 39.5t28 83.5
q2 12 2.5 22t0.5 19q0 39 -14.5 59.5t-37 29t-49.5 8.5h-167zM168 -206l7 41l29 5q23 5 38 12t25 25.5t15 56.5h62q-8 -50 -22.5 -81t-41 -45t-70.5 -14h-42z" />
    <glyph glyph-name="uni0157" unicode="&#x157;" horiz-adv-x="403" 
d="M64 0l85 535h87l3 -67q31 29 70.5 51t87.5 22q19 0 34.5 -1.5t27.5 -5.5l-15 -101q-15 3 -32 4t-35 1q-47 0 -84.5 -15t-66.5 -34l-61 -389h-101zM-1 -206l7 41l29 5q23 5 38 12t25 25.5t15 56.5h62q-8 -50 -22.5 -81t-41 -45t-70.5 -14h-42z" />
    <glyph glyph-name="Rcaron" unicode="&#x158;" horiz-adv-x="622" 
d="M69 0l117 737h272q37 0 70.5 -8.5t59 -28t40.5 -53t15 -84.5q0 -14 -1.5 -29t-4.5 -32q-9 -56 -27.5 -92t-42 -56.5t-47.5 -30t-43 -14.5l98 -309h-102l-89 294q-15 0 -36.5 0.5t-45.5 1t-46.5 1t-39.5 0.5l-47 -297h-100zM229 375h169q36 0 63.5 11t46.5 39.5t28 83.5
q2 12 2.5 22t0.5 19q0 39 -14.5 59.5t-37 29t-49.5 8.5h-167zM381 791l-85 137h60l68 -90l106 90h60l-139 -137h-70z" />
    <glyph glyph-name="rcaron" unicode="&#x159;" horiz-adv-x="403" 
d="M64 0l85 535h87l3 -67q31 29 70.5 51t87.5 22q19 0 34.5 -1.5t27.5 -5.5l-15 -101q-15 3 -32 4t-35 1q-47 0 -84.5 -15t-66.5 -34l-61 -389h-101zM281 632l-85 137h60l68 -90l106 90h60l-139 -137h-70z" />
    <glyph glyph-name="Sacute" unicode="&#x15a;" horiz-adv-x="570" 
d="M302 -6q-44 0 -88 3t-81 7t-64 10l12 78q43 -4 103.5 -6t118.5 -2q46 0 80 8t54.5 30t26.5 62l7 41q1 8 1.5 14.5t0.5 12.5q0 36 -23 52.5t-75 16.5h-80q-77 0 -118.5 35.5t-41.5 101.5q0 19 3 40l10 62q11 72 43.5 111.5t83.5 55.5t117 16q21 0 49 -1.5t58.5 -4.5
t59.5 -7t53 -9l-12 -78q-34 3 -74 4.5t-78.5 2.5t-65.5 1q-40 0 -69 -8t-46.5 -30t-24.5 -63l-6 -41q-1 -8 -2 -14.5t-1 -13.5q0 -36 21 -50.5t64 -14.5h82q86 0 128.5 -37.5t42.5 -103.5q0 -18 -3 -40l-10 -68q-10 -64 -41.5 -102t-85 -54.5t-129.5 -16.5zM366 791l114 138
h88l-139 -138h-63z" />
    <glyph glyph-name="sacute" unicode="&#x15b;" horiz-adv-x="508" 
d="M271 -6q-27 0 -57 1t-60 3.5t-55 6t-41 6.5l9 60h226q41 0 66.5 14t30.5 47l6 33q1 5 1 7.5v5.5q0 47 -61 47h-93q-44 0 -76 10t-49 31.5t-17 54.5q0 10 1 21t3 23l7 41q7 40 28 70.5t62.5 47.5t109.5 17q29 0 66.5 -2.5t74 -6.5t61.5 -9l-11 -60h-210q-44 0 -64.5 -15.5
t-26.5 -47.5l-5 -27q-2 -10 -2.5 -16.5t-0.5 -12.5q0 -19 15.5 -27.5t52.5 -8.5h98q59 0 95 -27t36 -77q0 -8 -0.5 -17t-1.5 -18l-8 -48q-11 -70 -66.5 -98.5t-143.5 -28.5zM322 631l114 138h88l-139 -138h-63z" />
    <glyph glyph-name="Scircumflex" unicode="&#x15c;" horiz-adv-x="570" 
d="M302 -6q-44 0 -88 3t-81 7t-64 10l12 78q43 -4 103.5 -6t118.5 -2q46 0 80 8t54.5 30t26.5 62l7 41q1 8 1.5 14.5t0.5 12.5q0 36 -23 52.5t-75 16.5h-80q-77 0 -118.5 35.5t-41.5 101.5q0 19 3 40l10 62q11 72 43.5 111.5t83.5 55.5t117 16q21 0 49 -1.5t58.5 -4.5
t59.5 -7t53 -9l-12 -78q-34 3 -74 4.5t-78.5 2.5t-65.5 1q-40 0 -69 -8t-46.5 -30t-24.5 -63l-6 -41q-1 -8 -2 -14.5t-1 -13.5q0 -36 21 -50.5t64 -14.5h82q86 0 128.5 -37.5t42.5 -103.5q0 -18 -3 -40l-10 -68q-10 -64 -41.5 -102t-85 -54.5t-129.5 -16.5zM250 791l139 137
h70l86 -137h-60l-70 91l-105 -91h-60z" />
    <glyph glyph-name="scircumflex" unicode="&#x15d;" horiz-adv-x="508" 
d="M271 -6q-27 0 -57 1t-60 3.5t-55 6t-41 6.5l9 60h226q41 0 66.5 14t30.5 47l6 33q1 5 1 7.5v5.5q0 47 -61 47h-93q-44 0 -76 10t-49 31.5t-17 54.5q0 10 1 21t3 23l7 41q7 40 28 70.5t62.5 47.5t109.5 17q29 0 66.5 -2.5t74 -6.5t61.5 -9l-11 -60h-210q-44 0 -64.5 -15.5
t-26.5 -47.5l-5 -27q-2 -10 -2.5 -16.5t-0.5 -12.5q0 -19 15.5 -27.5t52.5 -8.5h98q59 0 95 -27t36 -77q0 -8 -0.5 -17t-1.5 -18l-8 -48q-11 -70 -66.5 -98.5t-143.5 -28.5zM211 631l139 137h70l86 -137h-60l-70 91l-105 -91h-60z" />
    <glyph glyph-name="Scedilla" unicode="&#x15e;" horiz-adv-x="570" 
d="M302 -6q-44 0 -88 3t-81 7t-64 10l12 78q43 -4 103.5 -6t118.5 -2q46 0 80 8t54.5 30t26.5 62l7 41q1 8 1.5 14.5t0.5 12.5q0 36 -23 52.5t-75 16.5h-80q-77 0 -118.5 35.5t-41.5 101.5q0 19 3 40l10 62q11 72 43.5 111.5t83.5 55.5t117 16q21 0 49 -1.5t58.5 -4.5
t59.5 -7t53 -9l-12 -78q-34 3 -74 4.5t-78.5 2.5t-65.5 1q-40 0 -69 -8t-46.5 -30t-24.5 -63l-6 -41q-1 -8 -2 -14.5t-1 -13.5q0 -36 21 -50.5t64 -14.5h82q86 0 128.5 -37.5t42.5 -103.5q0 -18 -3 -40l-10 -68q-10 -64 -41.5 -102t-85 -54.5t-129.5 -16.5zM167 -197l6 41
l22 3q20 2 33 10.5t19 19t6 19.5q0 13 -11 22.5t-43 11.5l44 12q35 0 54 -13.5t19 -42.5q0 -18 -12 -37.5t-36.5 -32.5t-63.5 -13h-37zM199 -70l64 80h47l-65 -80h-46z" />
    <glyph glyph-name="scedilla" unicode="&#x15f;" horiz-adv-x="508" 
d="M271 -6q-27 0 -57 1t-60 3.5t-55 6t-41 6.5l9 60h226q41 0 66.5 14t30.5 47l6 33q1 5 1 7.5v5.5q0 47 -61 47h-93q-44 0 -76 10t-49 31.5t-17 54.5q0 10 1 21t3 23l7 41q7 40 28 70.5t62.5 47.5t109.5 17q29 0 66.5 -2.5t74 -6.5t61.5 -9l-11 -60h-210q-44 0 -64.5 -15.5
t-26.5 -47.5l-5 -27q-2 -10 -2.5 -16.5t-0.5 -12.5q0 -19 15.5 -27.5t52.5 -8.5h98q59 0 95 -27t36 -77q0 -8 -0.5 -17t-1.5 -18l-8 -48q-11 -70 -66.5 -98.5t-143.5 -28.5zM141 -197l6 41l22 3q20 2 33 10.5t19 19t6 19.5q0 13 -11 22.5t-43 11.5l44 12q35 0 54 -13.5
t19 -42.5q0 -18 -12 -37.5t-36.5 -32.5t-63.5 -13h-37zM173 -70l64 80h47l-65 -80h-46z" />
    <glyph glyph-name="Scaron" unicode="&#x160;" horiz-adv-x="570" 
d="M302 -6q-44 0 -88 3t-81 7t-64 10l12 78q43 -4 103.5 -6t118.5 -2q46 0 80 8t54.5 30t26.5 62l7 41q1 8 1.5 14.5t0.5 12.5q0 36 -23 52.5t-75 16.5h-80q-77 0 -118.5 35.5t-41.5 101.5q0 19 3 40l10 62q11 72 43.5 111.5t83.5 55.5t117 16q21 0 49 -1.5t58.5 -4.5
t59.5 -7t53 -9l-12 -78q-34 3 -74 4.5t-78.5 2.5t-65.5 1q-40 0 -69 -8t-46.5 -30t-24.5 -63l-6 -41q-1 -8 -2 -14.5t-1 -13.5q0 -36 21 -50.5t64 -14.5h82q86 0 128.5 -37.5t42.5 -103.5q0 -18 -3 -40l-10 -68q-10 -64 -41.5 -102t-85 -54.5t-129.5 -16.5zM385 791l-85 137
h60l68 -90l106 90h60l-139 -137h-70z" />
    <glyph glyph-name="scaron" unicode="&#x161;" horiz-adv-x="508" 
d="M271 -6q-27 0 -57 1t-60 3.5t-55 6t-41 6.5l9 60h226q41 0 66.5 14t30.5 47l6 33q1 5 1 7.5v5.5q0 47 -61 47h-93q-44 0 -76 10t-49 31.5t-17 54.5q0 10 1 21t3 23l7 41q7 40 28 70.5t62.5 47.5t109.5 17q29 0 66.5 -2.5t74 -6.5t61.5 -9l-11 -60h-210q-44 0 -64.5 -15.5
t-26.5 -47.5l-5 -27q-2 -10 -2.5 -16.5t-0.5 -12.5q0 -19 15.5 -27.5t52.5 -8.5h98q59 0 95 -27t36 -77q0 -8 -0.5 -17t-1.5 -18l-8 -48q-11 -70 -66.5 -98.5t-143.5 -28.5zM331 631l-85 137h60l68 -90l106 90h60l-139 -137h-70z" />
    <glyph glyph-name="uni0162" unicode="&#x162;" horiz-adv-x="607" 
d="M248 0l102 647h-222l14 90h546l-15 -90h-222l-102 -647h-101zM180 -197l6 41l22 3q20 2 33 10.5t19 19t6 19.5q0 13 -11 22.5t-43 11.5l44 12q35 0 54 -13.5t19 -42.5q0 -18 -12 -37.5t-36.5 -32.5t-63.5 -13h-37zM212 -70l64 80h47l-65 -80h-46z" />
    <glyph glyph-name="uni0163" unicode="&#x163;" horiz-adv-x="392" 
d="M272 0q-71 0 -107 29.5t-36 86.5q0 20 2.5 42t6.5 47l43 248h-84l10 65l89 17l39 150h79l-24 -150h145l-13 -82h-145l-40 -249q-2 -13 -4.5 -30.5t-2.5 -32.5q0 -29 15.5 -43.5t47.5 -17.5l63 -6l-12 -74h-72zM132 -197l6 41l22 3q20 2 33 10.5t19 19t6 19.5
q0 13 -11 22.5t-43 11.5l44 12q35 0 54 -13.5t19 -42.5q0 -18 -12 -37.5t-36.5 -32.5t-63.5 -13h-37zM164 -70l64 80h47l-65 -80h-46z" />
    <glyph glyph-name="Tcaron" unicode="&#x164;" horiz-adv-x="607" 
d="M248 0l102 647h-222l14 90h546l-15 -90h-222l-102 -647h-101zM398 791l-85 137h60l68 -90l106 90h60l-139 -137h-70z" />
    <glyph glyph-name="tcaron" unicode="&#x165;" horiz-adv-x="392" 
d="M272 0q-71 0 -107 29.5t-36 86.5q0 20 2.5 42t6.5 47l43 248h-84l10 65l89 17l39 150h79l-24 -150h145l-13 -82h-145l-40 -249q-2 -13 -4.5 -30.5t-2.5 -32.5q0 -29 15.5 -43.5t47.5 -17.5l63 -6l-12 -74h-72zM360 584l13 147l10 67h93l-11 -67l-30 -147h-75z" />
    <glyph glyph-name="Tbar" unicode="&#x166;" horiz-adv-x="601" 
d="M122 359l9 55h465l-8 -55h-466zM248 0l102 647h-222l14 90h546l-15 -90h-222l-102 -647h-101z" />
    <glyph glyph-name="tbar" unicode="&#x167;" horiz-adv-x="374" 
d="M67 286l7 42h314l-7 -42h-314zM272 0q-71 0 -107 29.5t-36 86.5q0 20 2.5 42t6.5 47l43 248h-84l10 65l89 17l39 150h79l-24 -150h145l-13 -82h-145l-40 -249q-2 -13 -4.5 -30.5t-2.5 -32.5q0 -29 15.5 -43.5t47.5 -17.5l63 -6l-12 -74h-72z" />
    <glyph glyph-name="Utilde" unicode="&#x168;" horiz-adv-x="680" 
d="M341 -6q-114 0 -173 48.5t-59 162.5q0 26 3.5 60t9.5 69l64 403h100l-66 -417q-4 -30 -7.5 -58t-3.5 -50q0 -70 35.5 -99t107.5 -29q43 0 76.5 9t59 33.5t44 71t30.5 122.5l66 417h100l-68 -431q-16 -100 -44 -162t-68 -94.5t-91.5 -44t-115.5 -11.5zM290 805
q14 62 46.5 86t69.5 24q23 0 42.5 -8t36.5 -18.5t34 -18.5t34 -8q24 0 40.5 15t20.5 42h51q-12 -57 -40 -85t-74 -28q-22 0 -41 8t-37 18.5t-35.5 18.5t-34.5 8q-23 0 -40 -14t-22 -40h-51z" />
    <glyph glyph-name="utilde" unicode="&#x169;" horiz-adv-x="580" 
d="M222 -6q-70 0 -103 33.5t-33 91.5q0 18 1.5 32.5t3.5 26.5l56 357h101l-55 -348q-1 -7 -1.5 -14t-0.5 -15q0 -37 21 -55.5t64 -18.5q47 0 84 14t77 37l63 400h101l-85 -535h-87l-4 57q-30 -19 -60 -33t-64.5 -22t-78.5 -8zM223 645q14 62 46.5 86t69.5 24q23 0 42.5 -8
t36.5 -18.5t34 -18.5t34 -8q24 0 40.5 15t20.5 42h51q-12 -57 -40 -85t-74 -28q-22 0 -41 8t-37 18.5t-35.5 18.5t-34.5 8q-23 0 -40 -14t-22 -40h-51z" />
    <glyph glyph-name="Umacron" unicode="&#x16a;" horiz-adv-x="680" 
d="M341 -6q-114 0 -173 48.5t-59 162.5q0 26 3.5 60t9.5 69l64 403h100l-66 -417q-4 -30 -7.5 -58t-3.5 -50q0 -70 35.5 -99t107.5 -29q43 0 76.5 9t59 33.5t44 71t30.5 122.5l66 417h100l-68 -431q-16 -100 -44 -162t-68 -94.5t-91.5 -44t-115.5 -11.5zM323 824l10 60h270
l-10 -60h-270z" />
    <glyph glyph-name="umacron" unicode="&#x16b;" horiz-adv-x="580" 
d="M222 -6q-70 0 -103 33.5t-33 91.5q0 18 1.5 32.5t3.5 26.5l56 357h101l-55 -348q-1 -7 -1.5 -14t-0.5 -15q0 -37 21 -55.5t64 -18.5q47 0 84 14t77 37l63 400h101l-85 -535h-87l-4 57q-30 -19 -60 -33t-64.5 -22t-78.5 -8zM266 664l10 60h270l-10 -60h-270z" />
    <glyph glyph-name="Ubreve" unicode="&#x16c;" horiz-adv-x="680" 
d="M341 -6q-114 0 -173 48.5t-59 162.5q0 26 3.5 60t9.5 69l64 403h100l-66 -417q-4 -30 -7.5 -58t-3.5 -50q0 -70 35.5 -99t107.5 -29q43 0 76.5 9t59 33.5t44 71t30.5 122.5l66 417h100l-68 -431q-16 -100 -44 -162t-68 -94.5t-91.5 -44t-115.5 -11.5zM452 787
q-33 0 -58.5 11t-40.5 34.5t-15 61.5q0 9 1 18.5t2 19.5h48q-1 -7 -1.5 -13.5t-0.5 -12.5q0 -39 21 -55.5t50 -16.5q36 0 65.5 21.5t37.5 76.5h48q-8 -54 -31 -85.5t-55.5 -45.5t-70.5 -14z" />
    <glyph glyph-name="ubreve" unicode="&#x16d;" horiz-adv-x="580" 
d="M222 -6q-70 0 -103 33.5t-33 91.5q0 18 1.5 32.5t3.5 26.5l56 357h101l-55 -348q-1 -7 -1.5 -14t-0.5 -15q0 -37 21 -55.5t64 -18.5q47 0 84 14t77 37l63 400h101l-85 -535h-87l-4 57q-30 -19 -60 -33t-64.5 -22t-78.5 -8zM395 627q-33 0 -58.5 11t-40.5 34.5t-15 61.5
q0 9 1 18.5t2 19.5h48q-1 -7 -1.5 -13.5t-0.5 -12.5q0 -39 21 -55.5t50 -16.5q36 0 65.5 21.5t37.5 76.5h48q-8 -54 -31 -85.5t-55.5 -45.5t-70.5 -14z" />
    <glyph glyph-name="Uring" unicode="&#x16e;" horiz-adv-x="680" 
d="M341 -6q-114 0 -173 48.5t-59 162.5q0 26 3.5 60t9.5 69l64 403h100l-66 -417q-4 -30 -7.5 -58t-3.5 -50q0 -70 35.5 -99t107.5 -29q43 0 76.5 9t59 33.5t44 71t30.5 122.5l66 417h100l-68 -431q-16 -100 -44 -162t-68 -94.5t-91.5 -44t-115.5 -11.5zM456 771
q-45 0 -74 20t-29 72q0 34 15.5 62.5t45 46.5t72.5 18q45 0 73 -21t28 -71q0 -52 -33 -89.5t-98 -37.5zM460 811q41 0 59.5 25.5t18.5 59.5q0 31 -17 42.5t-39 11.5q-42 0 -61.5 -26t-19.5 -60q0 -30 17.5 -41.5t41.5 -11.5z" />
    <glyph glyph-name="uring" unicode="&#x16f;" horiz-adv-x="580" 
d="M222 -6q-70 0 -103 33.5t-33 91.5q0 18 1.5 32.5t3.5 26.5l56 357h101l-55 -348q-1 -7 -1.5 -14t-0.5 -15q0 -37 21 -55.5t64 -18.5q47 0 84 14t77 37l63 400h101l-85 -535h-87l-4 57q-30 -19 -60 -33t-64.5 -22t-78.5 -8zM399 591q-45 0 -74 20t-29 72q0 34 15.5 62.5
t45 46.5t72.5 18q45 0 73 -21t28 -71q0 -52 -33 -89.5t-98 -37.5zM403 631q41 0 59.5 25.5t18.5 59.5q0 31 -17 42.5t-39 11.5q-42 0 -61.5 -26t-19.5 -60q0 -30 17.5 -41.5t41.5 -11.5z" />
    <glyph glyph-name="Uhungarumlaut" unicode="&#x170;" horiz-adv-x="680" 
d="M341 -6q-114 0 -173 48.5t-59 162.5q0 26 3.5 60t9.5 69l64 403h100l-66 -417q-4 -30 -7.5 -58t-3.5 -50q0 -70 35.5 -99t107.5 -29q43 0 76.5 9t59 33.5t44 71t30.5 122.5l66 417h100l-68 -431q-16 -100 -44 -162t-68 -94.5t-91.5 -44t-115.5 -11.5zM484 791l115 138h79
l-135 -138h-59zM330 791l114 138h79l-134 -138h-59z" />
    <glyph glyph-name="uhungarumlaut" unicode="&#x171;" horiz-adv-x="580" 
d="M222 -6q-70 0 -103 33.5t-33 91.5q0 18 1.5 32.5t3.5 26.5l56 357h101l-55 -348q-1 -7 -1.5 -14t-0.5 -15q0 -37 21 -55.5t64 -18.5q47 0 84 14t77 37l63 400h101l-85 -535h-87l-4 57q-30 -19 -60 -33t-64.5 -22t-78.5 -8zM427 631l115 138h79l-135 -138h-59zM273 631
l114 138h79l-134 -138h-59z" />
    <glyph glyph-name="Uogonek" unicode="&#x172;" horiz-adv-x="680" 
d="M341 -6q-114 0 -173 48.5t-59 162.5q0 26 3.5 60t9.5 69l64 403h100l-66 -417q-4 -30 -7.5 -58t-3.5 -50q0 -70 35.5 -99t107.5 -29q43 0 76.5 9t59 33.5t44 71t30.5 122.5l66 417h100l-68 -431q-16 -100 -44 -162t-68 -94.5t-91.5 -44t-115.5 -11.5zM396 -188
q-47 0 -70 21.5t-23 52.5q0 32 22 62.5t67 51.5h38q-38 -20 -55 -45t-17 -42q0 -24 17.5 -37t49.5 -13h7l-8 -49q-5 -1 -12.5 -1.5t-15.5 -0.5z" />
    <glyph glyph-name="uogonek" unicode="&#x173;" horiz-adv-x="580" 
d="M222 -6q-70 0 -103 33.5t-33 91.5q0 18 1.5 32.5t3.5 26.5l56 357h101l-55 -348q-1 -7 -1.5 -14t-0.5 -15q0 -37 21 -55.5t64 -18.5q47 0 84 14t77 37l63 400h101l-85 -535h-87l-4 57q-30 -19 -60 -33t-64.5 -22t-78.5 -8zM482 -188q-47 0 -70 21.5t-23 52.5
q0 32 22 62.5t67 51.5h38q-38 -20 -55 -45t-17 -42q0 -24 17.5 -37t49.5 -13h7l-8 -49q-5 -1 -12.5 -1.5t-15.5 -0.5z" />
    <glyph glyph-name="Wcircumflex" unicode="&#x174;" horiz-adv-x="1012" 
d="M236 0l-88 737h105l70 -592l242 592h97l48 -592l265 592h104l-327 -737h-106l-55 590l-249 -590h-106zM472 791l139 137h70l86 -137h-60l-70 91l-105 -91h-60z" />
    <glyph glyph-name="wcircumflex" unicode="&#x175;" horiz-adv-x="830" 
d="M187 0l-96 535h103l69 -437l181 437h70l77 -438l138 324q6 13 12.5 34t12.5 44.5t8 43.5h95q0 -26 -6.5 -55t-16 -56.5t-19.5 -49.5l-183 -382h-107l-68 374l-163 -374h-107zM351 631l139 137h70l86 -137h-60l-70 91l-105 -91h-60z" />
    <glyph glyph-name="Ycircumflex" unicode="&#x176;" horiz-adv-x="622" 
d="M252 0l37 233l-151 504h110l108 -393l247 393h114l-327 -504l-37 -233h-101zM270 791l139 137h70l86 -137h-60l-70 91l-105 -91h-60z" />
    <glyph glyph-name="ycircumflex" unicode="&#x177;" horiz-adv-x="563" 
d="M97 -237v73q52 12 100.5 48.5t86.5 115.5q-37 4 -63 16.5t-42 40t-23 74.5l-60 404h103l47 -383q4 -27 14.5 -41.5t25.5 -19.5t31 -7l151 343q10 25 19.5 55t11.5 61h91q0 -42 -10 -86.5t-34 -95.5l-170 -356q-40 -85 -83 -135.5t-91 -75t-105 -31.5zM215 631l139 137h70
l86 -137h-60l-70 91l-105 -91h-60z" />
    <glyph glyph-name="Ydieresis" unicode="&#x178;" horiz-adv-x="622" 
d="M252 0l37 233l-151 504h110l108 -393l247 393h114l-327 -504l-37 -233h-101zM495 808q-14 0 -14 14q0 1 0.5 5t3.5 22l10 60q2 18 20 18h46q15 0 15 -14l-0.5 -4t-4 -22t-9.5 -62q-2 -17 -20 -17h-47zM292 808q-14 0 -14 14q0 1 0.5 5t3.5 22l10 60q2 18 20 18h46
q15 0 15 -14l-0.5 -4t-4 -22t-9.5 -62q-2 -17 -20 -17h-47z" />
    <glyph glyph-name="Zacute" unicode="&#x179;" horiz-adv-x="562" 
d="M38 0l14 86l449 561h-361l15 90h476l-14 -86l-449 -561h370l-14 -90h-486zM357 791l114 138h88l-139 -138h-63z" />
    <glyph glyph-name="zacute" unicode="&#x17a;" horiz-adv-x="499" 
d="M50 1l11 73l342 379h-295l13 82h410l-11 -75l-342 -378h293l-1 -8.5t-3.5 -20.5t-4 -24t-3 -20l-1.5 -8h-408zM302 631l114 138h88l-139 -138h-63z" />
    <glyph glyph-name="Zdotaccent" unicode="&#x17b;" horiz-adv-x="562" 
d="M38 0l14 86l449 561h-361l15 90h476l-14 -86l-449 -561h370l-14 -90h-486zM376 815q-14 0 -14 14v1.5v1.5l13 84q3 18 20 18h47q14 0 14 -14v-1.5v-2.5l-13 -84q-2 -17 -20 -17h-47z" />
    <glyph glyph-name="zdotaccent" unicode="&#x17c;" horiz-adv-x="499" 
d="M50 1l11 73l342 379h-295l13 82h410l-11 -75l-342 -378h293l-1 -8.5t-3.5 -20.5t-4 -24t-3 -20l-1.5 -8h-408zM317 655q-14 0 -14 14v1.5v1.5l13 84q3 18 20 18h47q14 0 14 -14v-1.5v-2.5l-13 -84q-2 -17 -20 -17h-47z" />
    <glyph glyph-name="Zcaron" unicode="&#x17d;" horiz-adv-x="562" 
d="M38 0l14 86l449 561h-361l15 90h476l-14 -86l-449 -561h370l-14 -90h-486zM376 791l-85 137h60l68 -90l106 90h60l-139 -137h-70z" />
    <glyph glyph-name="zcaron" unicode="&#x17e;" horiz-adv-x="499" 
d="M50 1l11 73l342 379h-295l13 82h410l-11 -75l-342 -378h293l-1 -8.5t-3.5 -20.5t-4 -24t-3 -20l-1.5 -8h-408zM311 631l-85 137h60l68 -90l106 90h60l-139 -137h-70z" />
    <glyph glyph-name="uni018F" unicode="&#x18f;" horiz-adv-x="615" 
d="M301 -6q-66 0 -112 21.5t-69.5 69t-23.5 125.5q0 26 2.5 56.5t7.5 64.5l12 69h404q5 32 8 59t3 48q0 58 -20 89.5t-61 44t-105 12.5q-61 0 -99 -4.5t-62 -7.5l12 77q34 10 83 17.5t109 7.5q76 0 130.5 -18.5t83.5 -66.5t29 -138q0 -32 -3.5 -69t-9.5 -81
q-18 -114 -48.5 -187.5t-71.5 -114.5t-91 -57.5t-108 -16.5zM313 84q36 0 65.5 11t53.5 37t43 71.5t33 115.5h-302q-5 -31 -7.5 -56t-2.5 -47q0 -67 26.5 -99.5t90.5 -32.5z" />
    <glyph glyph-name="florin" unicode="&#x192;" horiz-adv-x="609" 
d="M84 -204q-30 0 -55.5 4.5t-38.5 10.5l20 62h59q34 0 59.5 17.5t48.5 60t46 114.5l106 328h-92l23 73h89l42 124q23 69 50.5 115.5t66.5 70t95 23.5q43 0 66 -5t33 -10l-19 -62h-60q-36 0 -60.5 -16t-42.5 -49.5t-36 -88.5l-35 -102h122l-22 -73h-120l-99 -305
q-32 -101 -66.5 -165.5t-77 -95.5t-102.5 -31z" />
    <glyph glyph-name="Ohorn" unicode="&#x1a0;" horiz-adv-x="692" 
d="M482 681l8 56h125q35 0 60 24.5t35 87.5h71q-9 -60 -33 -97t-56 -54t-69 -17h-141zM342 -6q-55 0 -100 9t-77 33t-49 68t-17 113q0 35 4 76.5t11 88.5q18 108 45.5 178.5t69.5 110t99.5 56t134.5 16.5q54 0 98.5 -9.5t77 -35.5t50 -71.5t17.5 -116.5q0 -33 -4 -75.5
t-12 -88.5q-17 -110 -45.5 -179t-70 -107t-99 -52t-133.5 -14zM359 85q52 0 90 12.5t64.5 43t45 84t31.5 136.5q7 45 11 83t4 65q0 61 -18 91.5t-53 41.5t-86 11q-50 0 -88 -12t-65.5 -43t-46.5 -87t-33 -145q-7 -43 -11.5 -80.5t-4.5 -63.5q0 -56 17 -86t52.5 -40.5
t90.5 -10.5z" />
    <glyph glyph-name="ohorn" unicode="&#x1a1;" horiz-adv-x="578" 
d="M284 -6q-63 0 -108.5 19t-69.5 59t-24 105q0 26 2 50t6 49q13 80 35 131.5t55 80.5t79.5 41t110.5 12q77 0 121 -21t61.5 -63.5t17.5 -105.5q0 -24 -2.5 -51t-6.5 -56q-15 -98 -48.5 -152.5t-89 -76t-139.5 -21.5zM295 76q37 0 64 7.5t46 27t32.5 56t23.5 93.5
q4 28 6.5 51.5t2.5 43.5q0 58 -26.5 82t-88.5 24q-38 0 -65 -9t-46 -30.5t-32 -61t-23 -100.5q-4 -23 -5.5 -42.5t-1.5 -36.5q0 -43 14 -65.5t39.5 -31t59.5 -8.5zM390 479l8 56h90q34 0 59 24.5t34 87.5h72q-9 -60 -32.5 -97t-55.5 -54t-69 -17h-106z" />
    <glyph glyph-name="Uhorn" unicode="&#x1af;" horiz-adv-x="678" 
d="M628 681l9 56h36q34 0 59 24.5t35 87.5h72q-10 -60 -33.5 -97t-56 -54t-69.5 -17h-52zM341 -6q-114 0 -173 48.5t-59 162.5q0 26 3.5 60t9.5 69l64 403h100l-66 -417q-4 -30 -7.5 -58t-3.5 -50q0 -70 35.5 -99t107.5 -29q43 0 76.5 9t59 33.5t44 71t30.5 122.5l66 417
h100l-68 -431q-16 -100 -44 -162t-68 -94.5t-91.5 -44t-115.5 -11.5z" />
    <glyph glyph-name="uhorn" unicode="&#x1b0;" horiz-adv-x="590" 
d="M504 479l9 56h28q34 0 59 24.5t35 87.5h71q-9 -60 -32.5 -97t-56 -54t-69.5 -17h-44zM222 -6q-70 0 -103 33.5t-33 91.5q0 18 1.5 32.5t3.5 26.5l56 357h101l-55 -348q-1 -7 -1.5 -14t-0.5 -15q0 -37 21 -55.5t64 -18.5q47 0 84 14t77 37l63 400h101l-85 -535h-87l-4 57
q-30 -19 -60 -33t-64.5 -22t-78.5 -8z" />
    <glyph glyph-name="Gcaron" unicode="&#x1e6;" horiz-adv-x="650" 
d="M291 -6q-104 0 -147.5 55.5t-43.5 173.5q0 40 4.5 82.5t11.5 86.5q18 111 56 190t101 120.5t156 41.5q86 0 142 -9.5t101 -23.5l-12 -77q-38 8 -93.5 14t-128.5 6q-71 0 -115 -31.5t-68.5 -94.5t-39.5 -160q-13 -85 -13 -141q0 -71 28.5 -105.5t94.5 -34.5q22 0 48.5 3.5
t52.5 8.5t47.5 11t33.5 10l31 196h-164l13 79q26 3 68 5t100 2q14 0 31.5 -0.5t34 -1t28.5 -0.5l-64 -400h-74l-7 51q-14 -7 -38.5 -17t-55 -19t-61.5 -15t-58 -6zM423 791l-85 137h60l68 -90l106 90h60l-139 -137h-70z" />
    <glyph glyph-name="gcaron" unicode="&#x1e7;" horiz-adv-x="569" 
d="M188 -235l-142 8l11 69h165q43 0 80 10.5t62 35t32 65.5l17 103q-27 -19 -59.5 -33t-65.5 -21.5t-62 -7.5q-44 0 -76.5 22.5t-50.5 63t-18 93.5q0 26 4 58t8 61q11 67 33.5 114.5t57 76.5t81.5 43.5t106 14.5q71 0 127 -8.5t88 -17.5l-92 -577q-9 -54 -35.5 -89.5
t-67.5 -55t-93 -26t-110 -2.5zM273 76q40 0 75 11.5t75 33.5l52 331q-27 3 -54.5 4.5t-54.5 2.5q-51 2 -86 -16.5t-56.5 -58.5t-32.5 -104q-4 -30 -6.5 -50.5t-2.5 -40.5q0 -58 26 -85.5t65 -27.5zM356 631l-85 137h60l68 -90l106 90h60l-139 -137h-70z" />
    <glyph glyph-name="uni01EA" unicode="&#x1ea;" horiz-adv-x="690" 
d="M342 -6q-55 0 -100 9t-77 33t-49 68t-17 113q0 35 4 76.5t11 88.5q18 108 45.5 178.5t69.5 110t99.5 56t134.5 16.5q54 0 98.5 -9.5t77 -35.5t50 -71.5t17.5 -116.5q0 -33 -4 -75.5t-12 -88.5q-17 -110 -45.5 -179t-70 -107t-99 -52t-133.5 -14zM359 85q52 0 90 12.5
t64.5 43t45 84t31.5 136.5q7 45 11 83t4 65q0 61 -18 91.5t-53 41.5t-86 11q-50 0 -88 -12t-65.5 -43t-46.5 -87t-33 -145q-7 -43 -11.5 -80.5t-4.5 -63.5q0 -56 17 -86t52.5 -40.5t90.5 -10.5zM402 -188q-47 0 -70 21.5t-23 52.5q0 32 22 62.5t67 51.5h38q-38 -20 -55 -45
t-17 -42q0 -24 17.5 -37t49.5 -13h7l-8 -49q-5 -1 -12.5 -1.5t-15.5 -0.5z" />
    <glyph glyph-name="uni01EB" unicode="&#x1eb;" horiz-adv-x="569" 
d="M284 -6q-63 0 -108.5 19t-69.5 59t-24 105q0 26 2 50t6 49q13 80 35 131.5t55 80.5t79.5 41t110.5 12q77 0 121 -21t61.5 -63.5t17.5 -105.5q0 -24 -2.5 -51t-6.5 -56q-15 -98 -48.5 -152.5t-89 -76t-139.5 -21.5zM295 76q37 0 64 7.5t46 27t32.5 56t23.5 93.5
q4 28 6.5 51.5t2.5 43.5q0 58 -26.5 82t-88.5 24q-38 0 -65 -9t-46 -30.5t-32 -61t-23 -100.5q-4 -23 -5.5 -42.5t-1.5 -36.5q0 -43 14 -65.5t39.5 -31t59.5 -8.5zM334 -188q-47 0 -70 21.5t-23 52.5q0 32 22 62.5t67 51.5h38q-38 -20 -55 -45t-17 -42q0 -24 17.5 -37
t49.5 -13h7l-8 -49q-5 -1 -12.5 -1.5t-15.5 -0.5z" />
    <glyph glyph-name="Aringacute" unicode="&#x1fa;" horiz-adv-x="682" 
d="M31 0l367 737h128l126 -737h-104l-33 193h-284l-96 -193h-104zM270 283h234l-57 365zM465 771q-45 0 -74 20t-29 72q0 34 15.5 62.5t45 46.5t72.5 18q45 0 73 -21t28 -71q0 -52 -33 -89.5t-98 -37.5zM469 811q41 0 59.5 25.5t18.5 59.5q0 31 -17 42.5t-39 11.5
q-42 0 -61.5 -26t-19.5 -60q0 -30 17.5 -41.5t41.5 -11.5zM454 962l114 138h88l-139 -138h-63z" />
    <glyph glyph-name="aringacute" unicode="&#x1fb;" horiz-adv-x="566" 
d="M234 -6q-43 0 -78 18.5t-55.5 59t-20.5 104.5q0 27 3.5 56t7.5 50q13 88 46 145.5t89.5 85.5t141.5 28q39 0 79 -7t74.5 -20.5t57.5 -33.5l-76 -480h-87l-4 56q-14 -11 -43.5 -25.5t-65 -25.5t-69.5 -11zM278 76q43 0 77.5 14.5t66.5 30.5l49 313q-13 8 -41 16.5t-67 8.5
q-56 0 -90.5 -20.5t-54 -62t-29.5 -104.5q-4 -25 -6.5 -45t-2.5 -34q0 -57 26 -87t72 -30zM389 591q-45 0 -74 20t-29 72q0 34 15.5 62.5t45 46.5t72.5 18q45 0 73 -21t28 -71q0 -52 -33 -89.5t-98 -37.5zM393 631q41 0 59.5 25.5t18.5 59.5q0 31 -17 42.5t-39 11.5
q-42 0 -61.5 -26t-19.5 -60q0 -30 17.5 -41.5t41.5 -11.5zM391 831l114 138h88l-139 -138h-63z" />
    <glyph glyph-name="AEacute" unicode="&#x1fc;" horiz-adv-x="948" 
d="M637 -4q-33 -1 -61.5 3.5t-48.5 17t-30 36t-6 60.5l11 79h-233l-148 -192h-102l425 573q46 64 92 99.5t96.5 50.5t112.5 14q60 -1 132.5 -3.5t147.5 -7.5l-14 -82h-263q-32 0 -50.5 -6t-27.5 -17.5t-12.5 -29.5t-7.5 -42l-22 -137l302 -6l-13 -78l-303 -7l-24 -151
q-6 -37 6 -54t33 -21.5t42 -4.5h253l-13 -82q-28 -2 -60 -4t-63.5 -3t-61 -2.5t-52.5 -2t-37 -0.5zM329 278h187l51 323zM596 791l114 138h88l-139 -138h-63z" />
    <glyph glyph-name="aeacute" unicode="&#x1fd;" horiz-adv-x="891" 
d="M233 -6q-43 0 -77.5 18t-54 58t-19.5 105q0 86 18.5 153.5t54 115t87.5 72.5t122 25q27 0 59 -5t63 -14.5t54 -25.5q14 12 34 21t43 14.5t45.5 8.5t40.5 3q100 0 150.5 -39t50.5 -119q0 -52 -26.5 -90t-78 -59t-127.5 -21q-31 0 -61.5 2.5t-53.5 6t-31 5.5
q-3 -17 -3.5 -27.5t-0.5 -23.5q0 -35 10.5 -59t37.5 -36.5t75 -12.5h197l-10 -60q-30 -5 -67 -8.5t-77.5 -5.5t-78.5 -2q-41 0 -74 10.5t-56 30t-33 44.5q-28 -21 -62 -40.5t-72.5 -32t-78.5 -12.5zM270 77q31 0 61 10.5t55 27t41 32.5q-1 9 -2 20t-1 22q0 39 6 82t19 84.5
t34 75.5q-16 8 -46.5 18t-64.5 10q-56 0 -92.5 -22.5t-58 -61t-30.5 -85.5t-9 -97q0 -54 21 -85t67 -31zM645 275q80 0 122 25.5t42 73.5q0 43 -26 67t-75 24q-46 0 -77 -12t-50 -35.5t-29.5 -57.5t-18.5 -77q2 -1 18 -3t41 -3.5t53 -1.5zM509 631l114 138h88l-139 -138h-63
z" />
    <glyph glyph-name="Oslashacute" unicode="&#x1fe;" horiz-adv-x="692" 
d="M51 0l644 737h61l-643 -737h-62zM342 -6q-55 0 -100 9t-77 33t-49 68t-17 113q0 35 4 76.5t11 88.5q18 108 45.5 178.5t69.5 110t99.5 56t134.5 16.5q54 0 98.5 -9.5t77 -35.5t50 -71.5t17.5 -116.5q0 -33 -4 -75.5t-12 -88.5q-17 -110 -45.5 -179t-70 -107t-99 -52
t-133.5 -14zM359 85q52 0 90 12.5t64.5 43t45 84t31.5 136.5q7 45 11 83t4 65q0 61 -18 91.5t-53 41.5t-86 11q-50 0 -88 -12t-65.5 -43t-46.5 -87t-33 -145q-7 -43 -11.5 -80.5t-4.5 -63.5q0 -56 17 -86t52.5 -40.5t90.5 -10.5zM421 791l114 138h88l-139 -138h-63z" />
    <glyph glyph-name="oslashacute" unicode="&#x1ff;" horiz-adv-x="566" 
d="M45 0l510 535h51l-510 -535h-51zM284 -6q-63 0 -108.5 19t-69.5 59t-24 105q0 26 2 50t6 49q13 80 35 131.5t55 80.5t79.5 41t110.5 12q77 0 121 -21t61.5 -63.5t17.5 -105.5q0 -24 -2.5 -51t-6.5 -56q-15 -98 -48.5 -152.5t-89 -76t-139.5 -21.5zM295 76q37 0 64 7.5
t46 27t32.5 56t23.5 93.5q4 28 6.5 51.5t2.5 43.5q0 58 -26.5 82t-88.5 24q-38 0 -65 -9t-46 -30.5t-32 -61t-23 -100.5q-4 -23 -5.5 -42.5t-1.5 -36.5q0 -43 14 -65.5t39.5 -31t59.5 -8.5zM313 631l114 138h88l-139 -138h-63z" />
    <glyph glyph-name="uni0200" unicode="&#x200;" horiz-adv-x="682" 
d="M31 0l367 737h128l126 -737h-104l-33 193h-284l-96 -193h-104zM270 283h234l-57 365zM517 791l-100 138h83l76 -138h-59zM361 791l-100 138h83l76 -138h-59z" />
    <glyph glyph-name="uni0201" unicode="&#x201;" horiz-adv-x="566" 
d="M234 -6q-43 0 -78 18.5t-55.5 59t-20.5 104.5q0 27 3.5 56t7.5 50q13 88 46 145.5t89.5 85.5t141.5 28q39 0 79 -7t74.5 -20.5t57.5 -33.5l-76 -480h-87l-4 56q-14 -11 -43.5 -25.5t-65 -25.5t-69.5 -11zM278 76q43 0 77.5 14.5t66.5 30.5l49 313q-13 8 -41 16.5t-67 8.5
q-56 0 -90.5 -20.5t-54 -62t-29.5 -104.5q-4 -25 -6.5 -45t-2.5 -34q0 -57 26 -87t72 -30zM448 631l-100 138h83l76 -138h-59zM292 631l-100 138h83l76 -138h-59z" />
    <glyph glyph-name="uni0202" unicode="&#x202;" horiz-adv-x="682" 
d="M31 0l367 737h128l126 -737h-104l-33 193h-284l-96 -193h-104zM270 283h234l-57 365zM331 788q8 54 31 85.5t55.5 45.5t70.5 14q34 0 59 -11t40 -34.5t15 -61.5q0 -9 -1 -18.5t-2 -19.5h-48q1 7 1.5 13.5t0.5 12.5q0 39 -21 55.5t-51 16.5q-23 0 -44 -9t-36.5 -30.5
t-21.5 -58.5h-48z" />
    <glyph glyph-name="uni0203" unicode="&#x203;" horiz-adv-x="566" 
d="M234 -6q-43 0 -78 18.5t-55.5 59t-20.5 104.5q0 27 3.5 56t7.5 50q13 88 46 145.5t89.5 85.5t141.5 28q39 0 79 -7t74.5 -20.5t57.5 -33.5l-76 -480h-87l-4 56q-14 -11 -43.5 -25.5t-65 -25.5t-69.5 -11zM278 76q43 0 77.5 14.5t66.5 30.5l49 313q-13 8 -41 16.5t-67 8.5
q-56 0 -90.5 -20.5t-54 -62t-29.5 -104.5q-4 -25 -6.5 -45t-2.5 -34q0 -57 26 -87t72 -30zM245 628q8 54 31 85.5t55.5 45.5t70.5 14q34 0 59 -11t40 -34.5t15 -61.5q0 -9 -1 -18.5t-2 -19.5h-48q1 7 1.5 13.5t0.5 12.5q0 39 -21 55.5t-51 16.5q-23 0 -44 -9t-36.5 -30.5
t-21.5 -58.5h-48z" />
    <glyph glyph-name="uni0204" unicode="&#x204;" horiz-adv-x="583" 
d="M232 -6q-27 0 -54.5 5.5t-49.5 22t-33 47.5t-3 79l69 436q9 59 35.5 92.5t63.5 47.5t79 13q75 -1 149.5 -3.5t150.5 -6.5l-13 -83h-275q-39 0 -62.5 -19.5t-30.5 -65.5l-23 -146l308 -8l-13 -78l-310 -5l-24 -152q-4 -32 4 -50t26 -25t44 -7h269l-13 -83
q-71 -3 -144 -6.5t-150 -4.5zM478 791l-100 138h83l76 -138h-59zM322 791l-100 138h83l76 -138h-59z" />
    <glyph glyph-name="uni0205" unicode="&#x205;" horiz-adv-x="548" 
d="M298 -6q-77 0 -124.5 22t-69 65t-21.5 104q0 30 3 57t7 53q13 83 46.5 138t90 82.5t137.5 27.5q42 0 77.5 -7.5t61.5 -24.5t41.5 -46t15.5 -73q0 -54 -20 -89t-54.5 -54t-78.5 -26.5t-91 -7.5q-44 0 -79.5 4.5t-54.5 9.5q-2 -13 -2.5 -27t-0.5 -27q0 -55 35.5 -80
t117.5 -25h165l-9 -60q-34 -6 -85.5 -11t-107.5 -5zM288 275q57 0 97 9.5t61.5 33t21.5 64.5q0 44 -26.5 63.5t-81.5 19.5q-54 0 -88 -21.5t-53 -62t-27 -98.5q19 -3 44.5 -5.5t51.5 -2.5zM446 631l-100 138h83l76 -138h-59zM290 631l-100 138h83l76 -138h-59z" />
    <glyph glyph-name="uni0206" unicode="&#x206;" horiz-adv-x="583" 
d="M232 -6q-27 0 -54.5 5.5t-49.5 22t-33 47.5t-3 79l69 436q9 59 35.5 92.5t63.5 47.5t79 13q75 -1 149.5 -3.5t150.5 -6.5l-13 -83h-275q-39 0 -62.5 -19.5t-30.5 -65.5l-23 -146l308 -8l-13 -78l-310 -5l-24 -152q-4 -32 4 -50t26 -25t44 -7h269l-13 -83
q-71 -3 -144 -6.5t-150 -4.5zM292 788q8 54 31 85.5t55.5 45.5t70.5 14q34 0 59 -11t40 -34.5t15 -61.5q0 -9 -1 -18.5t-2 -19.5h-48q1 7 1.5 13.5t0.5 12.5q0 39 -21 55.5t-51 16.5q-23 0 -44 -9t-36.5 -30.5t-21.5 -58.5h-48z" />
    <glyph glyph-name="uni0207" unicode="&#x207;" horiz-adv-x="548" 
d="M298 -6q-77 0 -124.5 22t-69 65t-21.5 104q0 30 3 57t7 53q13 83 46.5 138t90 82.5t137.5 27.5q42 0 77.5 -7.5t61.5 -24.5t41.5 -46t15.5 -73q0 -54 -20 -89t-54.5 -54t-78.5 -26.5t-91 -7.5q-44 0 -79.5 4.5t-54.5 9.5q-2 -13 -2.5 -27t-0.5 -27q0 -55 35.5 -80
t117.5 -25h165l-9 -60q-34 -6 -85.5 -11t-107.5 -5zM288 275q57 0 97 9.5t61.5 33t21.5 64.5q0 44 -26.5 63.5t-81.5 19.5q-54 0 -88 -21.5t-53 -62t-27 -98.5q19 -3 44.5 -5.5t51.5 -2.5zM243 628q8 54 31 85.5t55.5 45.5t70.5 14q34 0 59 -11t40 -34.5t15 -61.5
q0 -9 -1 -18.5t-2 -19.5h-48q1 7 1.5 13.5t0.5 12.5q0 39 -21 55.5t-51 16.5q-23 0 -44 -9t-36.5 -30.5t-21.5 -58.5h-48z" />
    <glyph glyph-name="uni0208" unicode="&#x208;" horiz-adv-x="238" 
d="M69 0l117 737h100l-117 -737h-100zM296 791l-100 138h83l76 -138h-59zM140 791l-100 138h83l76 -138h-59z" />
    <glyph glyph-name="uni0209" unicode="&#x209;" horiz-adv-x="228" 
d="M64 0l85 535h100l-84 -535h-101zM283 631l-100 138h83l76 -138h-59zM127 631l-100 138h83l76 -138h-59z" />
    <glyph glyph-name="uni020A" unicode="&#x20a;" horiz-adv-x="238" 
d="M69 0l117 737h100l-117 -737h-100zM110 788q8 54 31 85.5t55.5 45.5t70.5 14q34 0 59 -11t40 -34.5t15 -61.5q0 -9 -1 -18.5t-2 -19.5h-48q1 7 1.5 13.5t0.5 12.5q0 39 -21 55.5t-51 16.5q-23 0 -44 -9t-36.5 -30.5t-21.5 -58.5h-48z" />
    <glyph glyph-name="uni020B" unicode="&#x20b;" horiz-adv-x="228" 
d="M64 0l85 535h100l-84 -535h-101zM80 628q8 54 31 85.5t55.5 45.5t70.5 14q34 0 59 -11t40 -34.5t15 -61.5q0 -9 -1 -18.5t-2 -19.5h-48q1 7 1.5 13.5t0.5 12.5q0 39 -21 55.5t-51 16.5q-23 0 -44 -9t-36.5 -30.5t-21.5 -58.5h-48z" />
    <glyph glyph-name="uni020C" unicode="&#x20c;" horiz-adv-x="690" 
d="M342 -6q-55 0 -100 9t-77 33t-49 68t-17 113q0 35 4 76.5t11 88.5q18 108 45.5 178.5t69.5 110t99.5 56t134.5 16.5q54 0 98.5 -9.5t77 -35.5t50 -71.5t17.5 -116.5q0 -33 -4 -75.5t-12 -88.5q-17 -110 -45.5 -179t-70 -107t-99 -52t-133.5 -14zM359 85q52 0 90 12.5
t64.5 43t45 84t31.5 136.5q7 45 11 83t4 65q0 61 -18 91.5t-53 41.5t-86 11q-50 0 -88 -12t-65.5 -43t-46.5 -87t-33 -145q-7 -43 -11.5 -80.5t-4.5 -63.5q0 -56 17 -86t52.5 -40.5t90.5 -10.5zM525 791l-100 138h83l76 -138h-59zM369 791l-100 138h83l76 -138h-59z" />
    <glyph glyph-name="uni020D" unicode="&#x20d;" horiz-adv-x="569" 
d="M284 -6q-63 0 -108.5 19t-69.5 59t-24 105q0 26 2 50t6 49q13 80 35 131.5t55 80.5t79.5 41t110.5 12q77 0 121 -21t61.5 -63.5t17.5 -105.5q0 -24 -2.5 -51t-6.5 -56q-15 -98 -48.5 -152.5t-89 -76t-139.5 -21.5zM295 76q37 0 64 7.5t46 27t32.5 56t23.5 93.5
q4 28 6.5 51.5t2.5 43.5q0 58 -26.5 82t-88.5 24q-38 0 -65 -9t-46 -30.5t-32 -61t-23 -100.5q-4 -23 -5.5 -42.5t-1.5 -36.5q0 -43 14 -65.5t39.5 -31t59.5 -8.5zM444 631l-100 138h83l76 -138h-59zM288 631l-100 138h83l76 -138h-59z" />
    <glyph glyph-name="uni020E" unicode="&#x20e;" horiz-adv-x="690" 
d="M342 -6q-55 0 -100 9t-77 33t-49 68t-17 113q0 35 4 76.5t11 88.5q18 108 45.5 178.5t69.5 110t99.5 56t134.5 16.5q54 0 98.5 -9.5t77 -35.5t50 -71.5t17.5 -116.5q0 -33 -4 -75.5t-12 -88.5q-17 -110 -45.5 -179t-70 -107t-99 -52t-133.5 -14zM359 85q52 0 90 12.5
t64.5 43t45 84t31.5 136.5q7 45 11 83t4 65q0 61 -18 91.5t-53 41.5t-86 11q-50 0 -88 -12t-65.5 -43t-46.5 -87t-33 -145q-7 -43 -11.5 -80.5t-4.5 -63.5q0 -56 17 -86t52.5 -40.5t90.5 -10.5zM339 788q8 54 31 85.5t55.5 45.5t70.5 14q34 0 59 -11t40 -34.5t15 -61.5
q0 -9 -1 -18.5t-2 -19.5h-48q1 7 1.5 13.5t0.5 12.5q0 39 -21 55.5t-51 16.5q-23 0 -44 -9t-36.5 -30.5t-21.5 -58.5h-48z" />
    <glyph glyph-name="uni020F" unicode="&#x20f;" horiz-adv-x="569" 
d="M284 -6q-63 0 -108.5 19t-69.5 59t-24 105q0 26 2 50t6 49q13 80 35 131.5t55 80.5t79.5 41t110.5 12q77 0 121 -21t61.5 -63.5t17.5 -105.5q0 -24 -2.5 -51t-6.5 -56q-15 -98 -48.5 -152.5t-89 -76t-139.5 -21.5zM295 76q37 0 64 7.5t46 27t32.5 56t23.5 93.5
q4 28 6.5 51.5t2.5 43.5q0 58 -26.5 82t-88.5 24q-38 0 -65 -9t-46 -30.5t-32 -61t-23 -100.5q-4 -23 -5.5 -42.5t-1.5 -36.5q0 -43 14 -65.5t39.5 -31t59.5 -8.5zM241 628q8 54 31 85.5t55.5 45.5t70.5 14q34 0 59 -11t40 -34.5t15 -61.5q0 -9 -1 -18.5t-2 -19.5h-48
q1 7 1.5 13.5t0.5 12.5q0 39 -21 55.5t-51 16.5q-23 0 -44 -9t-36.5 -30.5t-21.5 -58.5h-48z" />
    <glyph glyph-name="uni0210" unicode="&#x210;" horiz-adv-x="622" 
d="M69 0l117 737h272q37 0 70.5 -8.5t59 -28t40.5 -53t15 -84.5q0 -14 -1.5 -29t-4.5 -32q-9 -56 -27.5 -92t-42 -56.5t-47.5 -30t-43 -14.5l98 -309h-102l-89 294q-15 0 -36.5 0.5t-45.5 1t-46.5 1t-39.5 0.5l-47 -297h-100zM229 375h169q36 0 63.5 11t46.5 39.5t28 83.5
q2 12 2.5 22t0.5 19q0 39 -14.5 59.5t-37 29t-49.5 8.5h-167zM456 791l-100 138h83l76 -138h-59zM300 791l-100 138h83l76 -138h-59z" />
    <glyph glyph-name="uni0211" unicode="&#x211;" horiz-adv-x="403" 
d="M64 0l85 535h87l3 -67q31 29 70.5 51t87.5 22q19 0 34.5 -1.5t27.5 -5.5l-15 -101q-15 3 -32 4t-35 1q-47 0 -84.5 -15t-66.5 -34l-61 -389h-101zM372 632l-100 138h83l76 -138h-59zM216 632l-100 138h83l76 -138h-59z" />
    <glyph glyph-name="uni0212" unicode="&#x212;" horiz-adv-x="622" 
d="M69 0l117 737h272q37 0 70.5 -8.5t59 -28t40.5 -53t15 -84.5q0 -14 -1.5 -29t-4.5 -32q-9 -56 -27.5 -92t-42 -56.5t-47.5 -30t-43 -14.5l98 -309h-102l-89 294q-15 0 -36.5 0.5t-45.5 1t-46.5 1t-39.5 0.5l-47 -297h-100zM229 375h169q36 0 63.5 11t46.5 39.5t28 83.5
q2 12 2.5 22t0.5 19q0 39 -14.5 59.5t-37 29t-49.5 8.5h-167zM270 788q8 54 31 85.5t55.5 45.5t70.5 14q34 0 59 -11t40 -34.5t15 -61.5q0 -9 -1 -18.5t-2 -19.5h-48q1 7 1.5 13.5t0.5 12.5q0 39 -21 55.5t-51 16.5q-23 0 -44 -9t-36.5 -30.5t-21.5 -58.5h-48z" />
    <glyph glyph-name="uni0213" unicode="&#x213;" horiz-adv-x="403" 
d="M64 0l85 535h87l3 -67q31 29 70.5 51t87.5 22q19 0 34.5 -1.5t27.5 -5.5l-15 -101q-15 3 -32 4t-35 1q-47 0 -84.5 -15t-66.5 -34l-61 -389h-101zM170 629q8 54 31 85.5t55.5 45.5t70.5 14q34 0 59 -11t40 -34.5t15 -61.5q0 -9 -1 -18.5t-2 -19.5h-48q1 7 1.5 13.5
t0.5 12.5q0 39 -21 55.5t-51 16.5q-23 0 -44 -9t-36.5 -30.5t-21.5 -58.5h-48z" />
    <glyph glyph-name="uni0214" unicode="&#x214;" horiz-adv-x="680" 
d="M341 -6q-114 0 -173 48.5t-59 162.5q0 26 3.5 60t9.5 69l64 403h100l-66 -417q-4 -30 -7.5 -58t-3.5 -50q0 -70 35.5 -99t107.5 -29q43 0 76.5 9t59 33.5t44 71t30.5 122.5l66 417h100l-68 -431q-16 -100 -44 -162t-68 -94.5t-91.5 -44t-115.5 -11.5zM508 791l-100 138
h83l76 -138h-59zM352 791l-100 138h83l76 -138h-59z" />
    <glyph glyph-name="uni0215" unicode="&#x215;" horiz-adv-x="580" 
d="M222 -6q-70 0 -103 33.5t-33 91.5q0 18 1.5 32.5t3.5 26.5l56 357h101l-55 -348q-1 -7 -1.5 -14t-0.5 -15q0 -37 21 -55.5t64 -18.5q47 0 84 14t77 37l63 400h101l-85 -535h-87l-4 57q-30 -19 -60 -33t-64.5 -22t-78.5 -8zM458 631l-100 138h83l76 -138h-59zM302 631
l-100 138h83l76 -138h-59z" />
    <glyph glyph-name="uni0216" unicode="&#x216;" horiz-adv-x="680" 
d="M341 -6q-114 0 -173 48.5t-59 162.5q0 26 3.5 60t9.5 69l64 403h100l-66 -417q-4 -30 -7.5 -58t-3.5 -50q0 -70 35.5 -99t107.5 -29q43 0 76.5 9t59 33.5t44 71t30.5 122.5l66 417h100l-68 -431q-16 -100 -44 -162t-68 -94.5t-91.5 -44t-115.5 -11.5zM322 788
q8 54 31 85.5t55.5 45.5t70.5 14q34 0 59 -11t40 -34.5t15 -61.5q0 -9 -1 -18.5t-2 -19.5h-48q1 7 1.5 13.5t0.5 12.5q0 39 -21 55.5t-51 16.5q-23 0 -44 -9t-36.5 -30.5t-21.5 -58.5h-48z" />
    <glyph glyph-name="uni0217" unicode="&#x217;" horiz-adv-x="580" 
d="M222 -6q-70 0 -103 33.5t-33 91.5q0 18 1.5 32.5t3.5 26.5l56 357h101l-55 -348q-1 -7 -1.5 -14t-0.5 -15q0 -37 21 -55.5t64 -18.5q47 0 84 14t77 37l63 400h101l-85 -535h-87l-4 57q-30 -19 -60 -33t-64.5 -22t-78.5 -8zM255 628q8 54 31 85.5t55.5 45.5t70.5 14
q34 0 59 -11t40 -34.5t15 -61.5q0 -9 -1 -18.5t-2 -19.5h-48q1 7 1.5 13.5t0.5 12.5q0 39 -21 55.5t-51 16.5q-23 0 -44 -9t-36.5 -30.5t-21.5 -58.5h-48z" />
    <glyph glyph-name="uni0218" unicode="&#x218;" horiz-adv-x="570" 
d="M302 -6q-44 0 -88 3t-81 7t-64 10l12 78q43 -4 103.5 -6t118.5 -2q46 0 80 8t54.5 30t26.5 62l7 41q1 8 1.5 14.5t0.5 12.5q0 36 -23 52.5t-75 16.5h-80q-77 0 -118.5 35.5t-41.5 101.5q0 19 3 40l10 62q11 72 43.5 111.5t83.5 55.5t117 16q21 0 49 -1.5t58.5 -4.5
t59.5 -7t53 -9l-12 -78q-34 3 -74 4.5t-78.5 2.5t-65.5 1q-40 0 -69 -8t-46.5 -30t-24.5 -63l-6 -41q-1 -8 -2 -14.5t-1 -13.5q0 -36 21 -50.5t64 -14.5h82q86 0 128.5 -37.5t42.5 -103.5q0 -18 -3 -40l-10 -68q-10 -64 -41.5 -102t-85 -54.5t-129.5 -16.5zM161 -206l7 41
l29 5q23 5 38 12t25 25.5t15 56.5h62q-8 -50 -22.5 -81t-41 -45t-70.5 -14h-42z" />
    <glyph glyph-name="uni0219" unicode="&#x219;" horiz-adv-x="508" 
d="M271 -6q-27 0 -57 1t-60 3.5t-55 6t-41 6.5l9 60h226q41 0 66.5 14t30.5 47l6 33q1 5 1 7.5v5.5q0 47 -61 47h-93q-44 0 -76 10t-49 31.5t-17 54.5q0 10 1 21t3 23l7 41q7 40 28 70.5t62.5 47.5t109.5 17q29 0 66.5 -2.5t74 -6.5t61.5 -9l-11 -60h-210q-44 0 -64.5 -15.5
t-26.5 -47.5l-5 -27q-2 -10 -2.5 -16.5t-0.5 -12.5q0 -19 15.5 -27.5t52.5 -8.5h98q59 0 95 -27t36 -77q0 -8 -0.5 -17t-1.5 -18l-8 -48q-11 -70 -66.5 -98.5t-143.5 -28.5zM138 -206l7 41l29 5q23 5 38 12t25 25.5t15 56.5h62q-8 -50 -22.5 -81t-41 -45t-70.5 -14h-42z" />
    <glyph glyph-name="uni021A" unicode="&#x21a;" horiz-adv-x="607" 
d="M248 0l102 647h-222l14 90h546l-15 -90h-222l-102 -647h-101zM174 -206l7 41l29 5q23 5 38 12t25 25.5t15 56.5h62q-8 -50 -22.5 -81t-41 -45t-70.5 -14h-42z" />
    <glyph glyph-name="uni021B" unicode="&#x21b;" horiz-adv-x="392" 
d="M272 0q-71 0 -107 29.5t-36 86.5q0 20 2.5 42t6.5 47l43 248h-84l10 65l89 17l39 150h79l-24 -150h145l-13 -82h-145l-40 -249q-2 -13 -4.5 -30.5t-2.5 -32.5q0 -29 15.5 -43.5t47.5 -17.5l63 -6l-12 -74h-72zM129 -206l7 41l29 5q23 5 38 12t25 25.5t15 56.5h62
q-8 -50 -22.5 -81t-41 -45t-70.5 -14h-42z" />
    <glyph glyph-name="uni022A" unicode="&#x22a;" horiz-adv-x="690" 
d="M342 -6q-55 0 -100 9t-77 33t-49 68t-17 113q0 35 4 76.5t11 88.5q18 108 45.5 178.5t69.5 110t99.5 56t134.5 16.5q54 0 98.5 -9.5t77 -35.5t50 -71.5t17.5 -116.5q0 -33 -4 -75.5t-12 -88.5q-17 -110 -45.5 -179t-70 -107t-99 -52t-133.5 -14zM359 85q52 0 90 12.5
t64.5 43t45 84t31.5 136.5q7 45 11 83t4 65q0 61 -18 91.5t-53 41.5t-86 11q-50 0 -88 -12t-65.5 -43t-46.5 -87t-33 -145q-7 -43 -11.5 -80.5t-4.5 -63.5q0 -56 17 -86t52.5 -40.5t90.5 -10.5zM545 808q-14 0 -14 14q0 1 0.5 5t3.5 22l10 60q2 18 20 18h46q15 0 15 -14
l-0.5 -4t-4 -22t-9.5 -62q-2 -17 -20 -17h-47zM342 808q-14 0 -14 14q0 1 0.5 5t3.5 22l10 60q2 18 20 18h46q15 0 15 -14l-0.5 -4t-4 -22t-9.5 -62q-2 -17 -20 -17h-47zM356 981l10 60h270l-10 -60h-270z" />
    <glyph glyph-name="uni022B" unicode="&#x22b;" horiz-adv-x="569" 
d="M284 -6q-63 0 -108.5 19t-69.5 59t-24 105q0 26 2 50t6 49q13 80 35 131.5t55 80.5t79.5 41t110.5 12q77 0 121 -21t61.5 -63.5t17.5 -105.5q0 -24 -2.5 -51t-6.5 -56q-15 -98 -48.5 -152.5t-89 -76t-139.5 -21.5zM295 76q37 0 64 7.5t46 27t32.5 56t23.5 93.5
q4 28 6.5 51.5t2.5 43.5q0 58 -26.5 82t-88.5 24q-38 0 -65 -9t-46 -30.5t-32 -61t-23 -100.5q-4 -23 -5.5 -42.5t-1.5 -36.5q0 -43 14 -65.5t39.5 -31t59.5 -8.5zM450 639q-14 0 -14 14q0 1 0.5 5t3.5 22l10 60q2 18 20 18h46q15 0 15 -14l-0.5 -4t-4 -22t-9.5 -62
q-2 -17 -20 -17h-47zM247 639q-14 0 -14 14q0 1 0.5 5t3.5 22l10 60q2 18 20 18h46q15 0 15 -14l-0.5 -4t-4 -22t-9.5 -62q-2 -17 -20 -17h-47zM262 818l10 60h270l-10 -60h-270z" />
    <glyph glyph-name="uni022C" unicode="&#x22c;" horiz-adv-x="690" 
d="M342 -6q-55 0 -100 9t-77 33t-49 68t-17 113q0 35 4 76.5t11 88.5q18 108 45.5 178.5t69.5 110t99.5 56t134.5 16.5q54 0 98.5 -9.5t77 -35.5t50 -71.5t17.5 -116.5q0 -33 -4 -75.5t-12 -88.5q-17 -110 -45.5 -179t-70 -107t-99 -52t-133.5 -14zM359 85q52 0 90 12.5
t64.5 43t45 84t31.5 136.5q7 45 11 83t4 65q0 61 -18 91.5t-53 41.5t-86 11q-50 0 -88 -12t-65.5 -43t-46.5 -87t-33 -145q-7 -43 -11.5 -80.5t-4.5 -63.5q0 -56 17 -86t52.5 -40.5t90.5 -10.5zM354 972l10 60h270l-10 -60h-270zM296 805q14 62 46.5 86t69.5 24
q23 0 42.5 -8t36.5 -18.5t34 -18.5t34 -8q24 0 40.5 15t20.5 42h51q-12 -57 -40 -85t-74 -28q-22 0 -41 8t-37 18.5t-35.5 18.5t-34.5 8q-23 0 -40 -14t-22 -40h-51z" />
    <glyph glyph-name="uni022D" unicode="&#x22d;" horiz-adv-x="569" 
d="M284 -6q-63 0 -108.5 19t-69.5 59t-24 105q0 26 2 50t6 49q13 80 35 131.5t55 80.5t79.5 41t110.5 12q77 0 121 -21t61.5 -63.5t17.5 -105.5q0 -24 -2.5 -51t-6.5 -56q-15 -98 -48.5 -152.5t-89 -76t-139.5 -21.5zM295 76q37 0 64 7.5t46 27t32.5 56t23.5 93.5
q4 28 6.5 51.5t2.5 43.5q0 58 -26.5 82t-88.5 24q-38 0 -65 -9t-46 -30.5t-32 -61t-23 -100.5q-4 -23 -5.5 -42.5t-1.5 -36.5q0 -43 14 -65.5t39.5 -31t59.5 -8.5zM256 809l10 60h270l-10 -60h-270zM192 636q14 62 46.5 86t69.5 24q23 0 42.5 -8t36.5 -18.5t34 -18.5t34 -8
q24 0 40.5 15t20.5 42h51q-12 -57 -40 -85t-74 -28q-22 0 -41 8t-37 18.5t-35.5 18.5t-34.5 8q-23 0 -40 -14t-22 -40h-51z" />
    <glyph glyph-name="uni0230" unicode="&#x230;" horiz-adv-x="690" 
d="M342 -6q-55 0 -100 9t-77 33t-49 68t-17 113q0 35 4 76.5t11 88.5q18 108 45.5 178.5t69.5 110t99.5 56t134.5 16.5q54 0 98.5 -9.5t77 -35.5t50 -71.5t17.5 -116.5q0 -33 -4 -75.5t-12 -88.5q-17 -110 -45.5 -179t-70 -107t-99 -52t-133.5 -14zM359 85q52 0 90 12.5
t64.5 43t45 84t31.5 136.5q7 45 11 83t4 65q0 61 -18 91.5t-53 41.5t-86 11q-50 0 -88 -12t-65.5 -43t-46.5 -87t-33 -145q-7 -43 -11.5 -80.5t-4.5 -63.5q0 -56 17 -86t52.5 -40.5t90.5 -10.5zM450 815q-14 0 -14 14v1.5v1.5l13 84q3 18 20 18h47q14 0 14 -14v-1.5v-2.5
l-13 -84q-2 -17 -20 -17h-47zM362 997l10 60h270l-10 -60h-270z" />
    <glyph glyph-name="uni0231" unicode="&#x231;" horiz-adv-x="569" 
d="M284 -6q-63 0 -108.5 19t-69.5 59t-24 105q0 26 2 50t6 49q13 80 35 131.5t55 80.5t79.5 41t110.5 12q77 0 121 -21t61.5 -63.5t17.5 -105.5q0 -24 -2.5 -51t-6.5 -56q-15 -98 -48.5 -152.5t-89 -76t-139.5 -21.5zM295 76q37 0 64 7.5t46 27t32.5 56t23.5 93.5
q4 28 6.5 51.5t2.5 43.5q0 58 -26.5 82t-88.5 24q-38 0 -65 -9t-46 -30.5t-32 -61t-23 -100.5q-4 -23 -5.5 -42.5t-1.5 -36.5q0 -43 14 -65.5t39.5 -31t59.5 -8.5zM355 641q-14 0 -14 14v1.5v1.5l13 84q3 18 20 18h47q14 0 14 -14v-1.5v-2.5l-13 -84q-2 -17 -20 -17h-47z
M269 818l10 60h270l-10 -60h-270z" />
    <glyph glyph-name="uni0232" unicode="&#x232;" horiz-adv-x="622" 
d="M252 0l37 233l-151 504h110l108 -393l247 393h114l-327 -504l-37 -233h-101zM295 824l10 60h270l-10 -60h-270z" />
    <glyph glyph-name="uni0233" unicode="&#x233;" horiz-adv-x="563" 
d="M97 -237v73q52 12 100.5 48.5t86.5 115.5q-37 4 -63 16.5t-42 40t-23 74.5l-60 404h103l47 -383q4 -27 14.5 -41.5t25.5 -19.5t31 -7l151 343q10 25 19.5 55t11.5 61h91q0 -42 -10 -86.5t-34 -95.5l-170 -356q-40 -85 -83 -135.5t-91 -75t-105 -31.5zM235 664l10 60h270
l-10 -60h-270z" />
    <glyph glyph-name="uni0237" unicode="&#x237;" horiz-adv-x="228" 
d="M26 -237l123 772h100l-85 -539q-10 -60 -27 -120t-37 -113h-74z" />
    <glyph glyph-name="uni0259" unicode="&#x259;" horiz-adv-x="549" 
d="M338 542q77 0 124.5 -22t69 -65t21.5 -104q0 -30 -3 -57t-7 -53q-13 -83 -46.5 -138t-90 -82.5t-137.5 -27.5q-42 0 -77.5 7.5t-61.5 24.5t-41.5 46t-15.5 73q0 54 20 89t54.5 54t78.5 26.5t91 7.5q44 0 79.5 -4.5t54.5 -9.5q2 13 2.5 27t0.5 27q0 55 -35.5 80t-117.5 25
h-165l9 60q34 6 85.5 11t107.5 5zM348 261q-57 0 -97 -9.5t-61.5 -33t-21.5 -64.5q0 -44 26.5 -63.5t81.5 -19.5q54 0 88 21.5t53 62t27 98.5q-19 3 -44.5 5.5t-51.5 2.5z" />
    <glyph glyph-name="uni02B9" unicode="&#x2b9;" horiz-adv-x="147" 
d="M93 457l68 306h92l-90 -306h-70z" />
    <glyph glyph-name="uni02BA" unicode="&#x2ba;" horiz-adv-x="290" 
d="M93 457l68 306h92l-90 -306h-70zM236 457l68 306h92l-90 -306h-70z" />
    <glyph glyph-name="uni02BB" unicode="&#x2bb;" horiz-adv-x="178" 
d="M206 748q13 0 22 -2.5l9 -2.5l-5 -31q-12 0 -18 -4t-7 -14l-6 -34h9q15 0 15 -15q0 -2 -0.5 -5t-1.5 -7l-11 -68q-2 -20 -21 -20h-55q-15 0 -15 14q0 2 0.5 6t1.5 8l19 118q4 24 14.5 36.5t23.5 16.5t26 4z" />
    <glyph glyph-name="uni02BC" unicode="&#x2bc;" horiz-adv-x="205" 
d="M157 515q-8 0 -13 0.5t-10 2.5l6 36q16 0 21.5 8t6.5 16l7 44h-9q-16 0 -16 16v2t1 2l13 86q3 21 22 21h61q13 0 13 -14v-3v-4l-23 -146q-5 -28 -18.5 -42.5t-30.5 -19.5t-31 -5z" />
    <glyph glyph-name="uni02BE" unicode="&#x2be;" horiz-adv-x="201" 
d="M110 585l7 45q53 0 77 22t24 56q0 32 -19.5 44.5t-60.5 12.5l7 45q64 0 97.5 -23t33.5 -74q0 -33 -18 -62.5t-55.5 -47.5t-92.5 -18z" />
    <glyph glyph-name="uni02BF" unicode="&#x2bf;" horiz-adv-x="201" 
d="M252 585q-63 0 -97 22.5t-34 71.5q0 36 18.5 65.5t55 47.5t92.5 18l-7 -45q-54 0 -77.5 -22t-23.5 -56q0 -31 19.5 -44t60.5 -13z" />
    <glyph glyph-name="circumflex" unicode="&#x2c6;" horiz-adv-x="394" 
d="M150 631l139 137h70l86 -137h-60l-70 91l-105 -91h-60z" />
    <glyph glyph-name="caron" unicode="&#x2c7;" horiz-adv-x="394" 
d="M257 631l-85 137h60l68 -90l106 90h60l-139 -137h-70z" />
    <glyph glyph-name="uni02C8" unicode="&#x2c8;" horiz-adv-x="141" 
d="M110 503l41 260h81l-41 -260h-81z" />
    <glyph glyph-name="uni02C9" unicode="&#x2c9;" horiz-adv-x="328" 
d="M134 664l10 60h270l-10 -60h-270z" />
    <glyph glyph-name="uni02CA" unicode="&#x2ca;" horiz-adv-x="222" 
d="M120 631l114 138h88l-139 -138h-63z" />
    <glyph glyph-name="uni02CB" unicode="&#x2cb;" horiz-adv-x="222" 
d="M233 631l-100 138h83l76 -138h-59z" />
    <glyph glyph-name="uni02CC" unicode="&#x2cc;" horiz-adv-x="141" 
d="M-7 -237l41 260h81l-41 -260h-81z" />
    <glyph glyph-name="breve" unicode="&#x2d8;" horiz-adv-x="355" 
d="M277 627q-33 0 -58.5 11t-40.5 34.5t-15 61.5q0 9 1 18.5t2 19.5h48q-1 -7 -1.5 -13.5t-0.5 -12.5q0 -39 21 -55.5t50 -16.5q36 0 65.5 21.5t37.5 76.5h48q-8 -54 -31 -85.5t-55.5 -45.5t-70.5 -14z" />
    <glyph glyph-name="dotaccent" unicode="&#x2d9;" horiz-adv-x="180" 
d="M166 648q-14 0 -14 14v1.5v1.5l13 84q3 18 20 18h47q14 0 14 -14v-1.5v-2.5l-13 -84q-2 -17 -20 -17h-47z" />
    <glyph glyph-name="ring" unicode="&#x2da;" horiz-adv-x="329" 
d="M262 591q-45 0 -74 20t-29 72q0 34 15.5 62.5t45 46.5t72.5 18q45 0 73 -21t28 -71q0 -52 -33 -89.5t-98 -37.5zM266 631q41 0 59.5 25.5t18.5 59.5q0 31 -17 42.5t-39 11.5q-42 0 -61.5 -26t-19.5 -60q0 -30 17.5 -41.5t41.5 -11.5z" />
    <glyph glyph-name="ogonek" unicode="&#x2db;" horiz-adv-x="231" 
d="M124 -188q-47 0 -70 21.5t-23 52.5q0 32 22 62.5t67 51.5h38q-38 -20 -55 -45t-17 -42q0 -24 17.5 -37t49.5 -13h7l-8 -49q-5 -1 -12.5 -1.5t-15.5 -0.5z" />
    <glyph glyph-name="tilde" unicode="&#x2dc;" horiz-adv-x="442" 
d="M147 645q14 62 46.5 86t69.5 24q23 0 42.5 -8t36.5 -18.5t34 -18.5t34 -8q24 0 40.5 15t20.5 42h51q-12 -57 -40 -85t-74 -28q-22 0 -41 8t-37 18.5t-35.5 18.5t-34.5 8q-23 0 -40 -14t-22 -40h-51z" />
    <glyph glyph-name="hungarumlaut" unicode="&#x2dd;" horiz-adv-x="378" 
d="M274 631l115 138h79l-135 -138h-59zM120 631l114 138h79l-134 -138h-59z" />
    <glyph glyph-name="gravecomb" unicode="&#x300;" 
d="M-277 631l-100 138h83l76 -138h-59z" />
    <glyph glyph-name="acutecomb" unicode="&#x301;" 
d="M-304 631l114 138h88l-139 -138h-63z" />
    <glyph glyph-name="uni0302" unicode="&#x302;" 
d="M-415 631l139 137h70l86 -137h-60l-70 91l-105 -91h-60z" />
    <glyph glyph-name="tildecomb" unicode="&#x303;" 
d="M-438 645q14 62 46.5 86t69.5 24q23 0 42.5 -8t36.5 -18.5t34 -18.5t34 -8q24 0 40.5 15t20.5 42h51q-12 -57 -40 -85t-74 -28q-22 0 -41 8t-37 18.5t-35.5 18.5t-34.5 8q-23 0 -40 -14t-22 -40h-51z" />
    <glyph glyph-name="uni0304" unicode="&#x304;" 
d="M-395 664l10 60h270l-10 -60h-270z" />
    <glyph glyph-name="uni0306" unicode="&#x306;" 
d="M-266 627q-33 0 -58.5 11t-40.5 34.5t-15 61.5q0 9 1 18.5t2 19.5h48q-1 -7 -1.5 -13.5t-0.5 -12.5q0 -39 21 -55.5t50 -16.5q36 0 65.5 21.5t37.5 76.5h48q-8 -54 -31 -85.5t-55.5 -45.5t-70.5 -14z" />
    <glyph glyph-name="uni0307" unicode="&#x307;" 
d="M-289 655q-14 0 -14 14v1.5v1.5l13 84q3 18 20 18h47q14 0 14 -14v-1.5v-2.5l-13 -84q-2 -17 -20 -17h-47z" />
    <glyph glyph-name="uni0308" unicode="&#x308;" 
d="M-196 648q-14 0 -14 14q0 1 0.5 5t3.5 22l10 60q2 18 20 18h46q15 0 15 -14l-0.5 -4t-4 -22t-9.5 -62q-2 -17 -20 -17h-47zM-399 648q-14 0 -14 14q0 1 0.5 5t3.5 22l10 60q2 18 20 18h46q15 0 15 -14l-0.5 -4t-4 -22t-9.5 -62q-2 -17 -20 -17h-47z" />
    <glyph glyph-name="hookabovecomb" unicode="&#x309;" 
d="M-297 600l8 46q36 10 48 27.5t12 34.5q0 14 -8.5 22t-28.5 8q-8 0 -18 -1.5t-18 -4.5l6 41q12 4 24.5 5.5t25.5 1.5q38 0 55 -16t17 -47q0 -35 -27 -66.5t-96 -50.5z" />
    <glyph glyph-name="uni030A" unicode="&#x30a;" 
d="M-262 591q-45 0 -74 20t-29 72q0 34 15.5 62.5t45 46.5t72.5 18q45 0 73 -21t28 -71q0 -52 -33 -89.5t-98 -37.5zM-258 631q41 0 59.5 25.5t18.5 59.5q0 31 -17 42.5t-39 11.5q-42 0 -61.5 -26t-19.5 -60q0 -30 17.5 -41.5t41.5 -11.5z" />
    <glyph glyph-name="uni030B" unicode="&#x30b;" 
d="M-234 631l115 138h79l-135 -138h-59zM-388 631l114 138h79l-134 -138h-59z" />
    <glyph glyph-name="uni030C" unicode="&#x30c;" 
d="M-295 631l-85 137h60l68 -90l106 90h60l-139 -137h-70z" />
    <glyph glyph-name="uni030F" unicode="&#x30f;" 
d="M-226 631l-100 138h83l76 -138h-59zM-382 631l-100 138h83l76 -138h-59z" />
    <glyph glyph-name="uni0311" unicode="&#x311;" 
d="M-406 628q8 54 31 85.5t55.5 45.5t70.5 14q34 0 59 -11t40 -34.5t15 -61.5q0 -9 -1 -18.5t-2 -19.5h-48q1 7 1.5 13.5t0.5 12.5q0 39 -21 55.5t-51 16.5q-23 0 -44 -9t-36.5 -30.5t-21.5 -58.5h-48z" />
    <glyph glyph-name="uni0312" unicode="&#x312;" 
d="M-273 621q8 50 22.5 81t41 45t70.5 14h43l-7 -41l-30 -6q-22 -3 -37.5 -10.5t-25 -26t-15.5 -56.5h-62z" />
    <glyph glyph-name="uni031B" unicode="&#x31b;" 
d="M-249 479l8 56h90q34 0 59 24.5t34 87.5h72q-9 -60 -32.5 -97t-55.5 -54t-69 -17h-106z" />
    <glyph glyph-name="dotbelowcomb" unicode="&#x323;" 
d="M-300 -215q-14 0 -14 14v1.5v1.5l13 84q3 18 20 18h47q14 0 14 -14v-1.5v-2.5l-13 -84q-2 -17 -20 -17h-47z" />
    <glyph glyph-name="uni0324" unicode="&#x324;" 
d="M-200 -202q-14 0 -14 14q0 1 0.5 5t3.5 22l10 60q2 18 20 18h46q15 0 15 -14l-0.5 -4t-4 -22t-9.5 -62q-2 -17 -20 -17h-47zM-403 -202q-14 0 -14 14q0 1 0.5 5t3.5 22l10 60q2 18 20 18h46q15 0 15 -14l-0.5 -4t-4 -22t-9.5 -62q-2 -17 -20 -17h-47z" />
    <glyph glyph-name="uni0326" unicode="&#x326;" 
d="M-415 -206l7 41l29 5q23 5 38 12t25 25.5t15 56.5h62q-8 -50 -22.5 -81t-41 -45t-70.5 -14h-42z" />
    <glyph glyph-name="uni0327" unicode="&#x327;" 
d="M-359 -197l6 41l22 3q20 2 33 10.5t19 19t6 19.5q0 13 -11 22.5t-43 11.5l44 12q35 0 54 -13.5t19 -42.5q0 -18 -12 -37.5t-36.5 -32.5t-63.5 -13h-37zM-327 -70l64 80h47l-65 -80h-46z" />
    <glyph glyph-name="uni0328" unicode="&#x328;" 
d="M-276 -188q-47 0 -70 21.5t-23 52.5q0 32 22 62.5t67 51.5h38q-38 -20 -55 -45t-17 -42q0 -24 17.5 -37t49.5 -13h7l-8 -49q-5 -1 -12.5 -1.5t-15.5 -0.5z" />
    <glyph glyph-name="uni032E" unicode="&#x32e;" 
d="M-272 -223q-33 0 -58.5 11t-40 34.5t-14.5 61.5q0 9 0.5 18.5t1.5 19.5h48q-1 -7 -1.5 -13.5t-0.5 -12.5q0 -39 21 -55.5t50 -16.5q37 0 66 21.5t37 76.5h49q-8 -54 -31.5 -85.5t-56 -45.5t-70.5 -14z" />
    <glyph glyph-name="uni0331" unicode="&#x331;" 
d="M-401 -196l10 60h270l-10 -60h-270z" />
    <glyph glyph-name="uni0335" unicode="&#x335;" 
d="M-315 284l7 48h285l-7 -48h-285z" />
    <glyph glyph-name="uni03A9" unicode="&#x3a9;" horiz-adv-x="774" 
d="M53 0l13 80l167 9q-50 47 -81 112t-31 137q0 54 12.5 110t39.5 108t70.5 93t106 65.5t144.5 24.5q102 0 164.5 -35t91 -93.5t28.5 -129.5q0 -51 -12.5 -104t-38 -105.5t-64 -99.5t-90.5 -84l164 -9l-13 -79h-265l14 88q55 38 94 83.5t63 95t35 99.5t11 97q0 49 -19 91
t-61 68.5t-114 26.5q-73 0 -123.5 -29.5t-81 -77.5t-44 -104.5t-13.5 -111.5q0 -68 30.5 -126.5t81.5 -111.5l-14 -88h-265z" />
    <glyph glyph-name="uni03BC" unicode="&#x3bc;" horiz-adv-x="590" 
d="M259 -6q-34 0 -64 10t-52.5 29.5t-35 47.5t-12.5 63q0 11 1 20.5t2 19.5l55 351h101l-55 -350l-2 -14t-1 -14q0 -43 25.5 -58.5t65.5 -15.5q44 0 80.5 12.5t74.5 34.5l64 405h101l-85 -535h-80l-6 57q-37 -28 -81.5 -45.5t-95.5 -17.5zM26 -269l80 504h101l-80 -504h-101
z" />
    <glyph glyph-name="pi" unicode="&#x3c0;" horiz-adv-x="624" 
d="M480 -6q-51 0 -77.5 24.5t-26.5 76.5q0 10 1 21t2 23l49 304h-144l-70 -443h-101l70 443h-93l14 92h541l-15 -92h-102l-47 -300q-1 -7 -1.5 -13t-0.5 -11q0 -25 12 -35t37 -10h52l-9 -59q-16 -8 -38.5 -14.5t-52.5 -6.5z" />
    <glyph glyph-name="uni1E02" unicode="&#x1e02;" horiz-adv-x="620" 
d="M70 0l116 737h266q67 0 107 -18t57 -50.5t17 -76.5q0 -13 -1 -25.5t-3 -25.5q-10 -63 -47 -103.5t-89 -52.5q27 -7 51.5 -25t40 -48t15.5 -76q0 -10 -0.5 -24t-5.5 -35q-16 -90 -77.5 -133.5t-171.5 -43.5h-275zM184 90h175q46 0 74.5 14t44.5 41t24 65q2 10 2.5 19
t0.5 16q0 46 -28.5 71t-78.5 25h-174zM236 420h173q52 0 80.5 28t38.5 75q3 13 4.5 23.5t1.5 20.5q0 43 -26.5 61.5t-76.5 18.5h-159zM378 815q-14 0 -14 14v1.5v1.5l13 84q3 18 20 18h47q14 0 14 -14v-1.5v-2.5l-13 -84q-2 -17 -20 -17h-47z" />
    <glyph glyph-name="uni1E03" unicode="&#x1e03;" horiz-adv-x="574" 
d="M345 -6q-32 0 -64 8t-59.5 21.5t-48.5 29.5l-22 -53h-87l121 763h100l-43 -272q42 24 89.5 37t80.5 13q74 0 119.5 -46.5t45.5 -135.5q0 -23 -3.5 -54t-8.5 -65q-12 -76 -41.5 -131t-74 -85t-104.5 -30zM317 76q64 0 100.5 47t51.5 143q3 23 5 42t2 36q0 63 -27 89
t-68 26q-36 0 -75 -11t-75 -28l-47 -303q25 -16 57 -28.5t76 -12.5zM229 855q-14 0 -14 14v1.5v1.5l13 84q3 18 20 18h47q14 0 14 -14v-1.5v-2.5l-13 -84q-2 -17 -20 -17h-47z" />
    <glyph glyph-name="uni1E08" unicode="&#x1e08;" horiz-adv-x="590" 
d="M323 -6q-115 0 -168.5 62t-53.5 176q0 36 4.5 76.5t10.5 77.5q18 116 54 195.5t97 120.5t152 41q80 0 136 -11.5t93 -22.5l-13 -78q-46 9 -96.5 15.5t-104.5 6.5q-46 0 -81 -14.5t-61 -47.5t-44.5 -88t-32.5 -137q-5 -35 -9 -71t-4 -64q0 -77 33 -112t114 -35
q72 0 115.5 3.5t85.5 9.5l-13 -78q-49 -14 -105.5 -19.5t-108.5 -5.5zM210 -197l6 41l22 3q20 2 33 10.5t19 19t6 19.5q0 13 -11 22.5t-43 11.5l44 12q35 0 54 -13.5t19 -42.5q0 -18 -12 -37.5t-36.5 -32.5t-63.5 -13h-37zM242 -70l64 80h47l-65 -80h-46zM398 791l114 138
h88l-139 -138h-63z" />
    <glyph glyph-name="uni1E09" unicode="&#x1e09;" horiz-adv-x="479" 
d="M273 -6q-57 0 -100 17.5t-67 59.5t-24 120q0 18 3 42.5t7 51.5q14 93 48 149t85 81.5t115 25.5q40 0 88 -6t89 -14l-10 -59h-147q-46 0 -79.5 -18.5t-56.5 -61.5t-35 -116q-3 -22 -5 -38.5t-2 -28.5q0 -49 14 -77t41 -39.5t67 -11.5h152l-9 -57q-33 -9 -75.5 -14.5
t-98.5 -5.5zM140 -197l6 41l22 3q20 2 33 10.5t19 19t6 19.5q0 13 -11 22.5t-43 11.5l44 12q35 0 54 -13.5t19 -42.5q0 -18 -12 -37.5t-36.5 -32.5t-63.5 -13h-37zM172 -70l64 80h47l-65 -80h-46zM321 631l114 138h88l-139 -138h-63z" />
    <glyph glyph-name="uni1E0A" unicode="&#x1e0a;" horiz-adv-x="678" 
d="M69 0l117 737h269q91 0 142 -30.5t72 -88t21 -138.5q0 -31 -3 -64t-8 -66q-13 -83 -39.5 -148t-67.5 -110t-99 -68.5t-134 -23.5h-270zM184 90h164q53 0 92 20.5t66.5 57.5t45 88t27.5 113q5 33 8 61t3 48q0 57 -14.5 94.5t-49 56t-95.5 18.5h-160zM407 815q-14 0 -14 14
v1.5v1.5l13 84q3 18 20 18h47q14 0 14 -14v-1.5v-2.5l-13 -84q-2 -17 -20 -17h-47z" />
    <glyph glyph-name="uni1E0B" unicode="&#x1e0b;" horiz-adv-x="569" 
d="M236 -6q-71 0 -112.5 46.5t-41.5 133.5q0 56 11 111q15 79 41.5 136t80 88.5t145.5 31.5q36 0 67 -5.5t59 -18.5l39 246h101l-121 -763h-87l-5 56q-21 -16 -49.5 -30t-61 -23t-66.5 -9zM276 76q43 0 79 13.5t68 31.5l50 313q-22 12 -48 18.5t-61 6.5q-53 0 -87 -18.5
t-54.5 -60.5t-32.5 -113q-4 -21 -6 -39.5t-2 -35.5q0 -43 13 -68.5t34 -36.5t47 -11zM569 855q-14 0 -14 14v1.5v1.5l13 84q3 18 20 18h47q14 0 14 -14v-1.5v-2.5l-13 -84q-2 -17 -20 -17h-47z" />
    <glyph glyph-name="uni1E0C" unicode="&#x1e0c;" horiz-adv-x="678" 
d="M69 0l117 737h269q91 0 142 -30.5t72 -88t21 -138.5q0 -31 -3 -64t-8 -66q-13 -83 -39.5 -148t-67.5 -110t-99 -68.5t-134 -23.5h-270zM184 90h164q53 0 92 20.5t66.5 57.5t45 88t27.5 113q5 33 8 61t3 48q0 57 -14.5 94.5t-49 56t-95.5 18.5h-160zM239 -215
q-14 0 -14 14v1.5v1.5l13 84q3 18 20 18h47q14 0 14 -14v-1.5v-2.5l-13 -84q-2 -17 -20 -17h-47z" />
    <glyph glyph-name="uni1E0D" unicode="&#x1e0d;" horiz-adv-x="569" 
d="M236 -6q-71 0 -112.5 46.5t-41.5 133.5q0 56 11 111q15 79 41.5 136t80 88.5t145.5 31.5q36 0 67 -5.5t59 -18.5l39 246h101l-121 -763h-87l-5 56q-21 -16 -49.5 -30t-61 -23t-66.5 -9zM276 76q43 0 79 13.5t68 31.5l50 313q-22 12 -48 18.5t-61 6.5q-53 0 -87 -18.5
t-54.5 -60.5t-32.5 -113q-4 -21 -6 -39.5t-2 -35.5q0 -43 13 -68.5t34 -36.5t47 -11zM229 -215q-14 0 -14 14v1.5v1.5l13 84q3 18 20 18h47q14 0 14 -14v-1.5v-2.5l-13 -84q-2 -17 -20 -17h-47z" />
    <glyph glyph-name="uni1E0E" unicode="&#x1e0e;" horiz-adv-x="678" 
d="M69 0l117 737h269q91 0 142 -30.5t72 -88t21 -138.5q0 -31 -3 -64t-8 -66q-13 -83 -39.5 -148t-67.5 -110t-99 -68.5t-134 -23.5h-270zM184 90h164q53 0 92 20.5t66.5 57.5t45 88t27.5 113q5 33 8 61t3 48q0 57 -14.5 94.5t-49 56t-95.5 18.5h-160zM128 -196l10 60h270
l-10 -60h-270z" />
    <glyph glyph-name="uni1E0F" unicode="&#x1e0f;" horiz-adv-x="569" 
d="M236 -6q-71 0 -112.5 46.5t-41.5 133.5q0 56 11 111q15 79 41.5 136t80 88.5t145.5 31.5q36 0 67 -5.5t59 -18.5l39 246h101l-121 -763h-87l-5 56q-21 -16 -49.5 -30t-61 -23t-66.5 -9zM276 76q43 0 79 13.5t68 31.5l50 313q-22 12 -48 18.5t-61 6.5q-53 0 -87 -18.5
t-54.5 -60.5t-32.5 -113q-4 -21 -6 -39.5t-2 -35.5q0 -43 13 -68.5t34 -36.5t47 -11zM130 -196l10 60h270l-10 -60h-270z" />
    <glyph glyph-name="uni1E14" unicode="&#x1e14;" horiz-adv-x="583" 
d="M232 -6q-27 0 -54.5 5.5t-49.5 22t-33 47.5t-3 79l69 436q9 59 35.5 92.5t63.5 47.5t79 13q75 -1 149.5 -3.5t150.5 -6.5l-13 -83h-275q-39 0 -62.5 -19.5t-30.5 -65.5l-23 -146l308 -8l-13 -78l-310 -5l-24 -152q-4 -32 4 -50t26 -25t44 -7h269l-13 -83
q-71 -3 -144 -6.5t-150 -4.5zM293 824l10 60h270l-10 -60h-270zM412 929l-100 138h83l76 -138h-59z" />
    <glyph glyph-name="uni1E15" unicode="&#x1e15;" horiz-adv-x="548" 
d="M298 -6q-77 0 -124.5 22t-69 65t-21.5 104q0 30 3 57t7 53q13 83 46.5 138t90 82.5t137.5 27.5q42 0 77.5 -7.5t61.5 -24.5t41.5 -46t15.5 -73q0 -54 -20 -89t-54.5 -54t-78.5 -26.5t-91 -7.5q-44 0 -79.5 4.5t-54.5 9.5q-2 -13 -2.5 -27t-0.5 -27q0 -55 35.5 -80
t117.5 -25h165l-9 -60q-34 -6 -85.5 -11t-107.5 -5zM288 275q57 0 97 9.5t61.5 33t21.5 64.5q0 44 -26.5 63.5t-81.5 19.5q-54 0 -88 -21.5t-53 -62t-27 -98.5q19 -3 44.5 -5.5t51.5 -2.5zM254 664l10 60h270l-10 -60h-270zM372 769l-100 138h83l76 -138h-59z" />
    <glyph glyph-name="uni1E16" unicode="&#x1e16;" horiz-adv-x="583" 
d="M232 -6q-27 0 -54.5 5.5t-49.5 22t-33 47.5t-3 79l69 436q9 59 35.5 92.5t63.5 47.5t79 13q75 -1 149.5 -3.5t150.5 -6.5l-13 -83h-275q-39 0 -62.5 -19.5t-30.5 -65.5l-23 -146l308 -8l-13 -78l-310 -5l-24 -152q-4 -32 4 -50t26 -25t44 -7h269l-13 -83
q-71 -3 -144 -6.5t-150 -4.5zM293 824l10 60h270l-10 -60h-270zM400 929l114 138h88l-139 -138h-63z" />
    <glyph glyph-name="uni1E17" unicode="&#x1e17;" horiz-adv-x="548" 
d="M298 -6q-77 0 -124.5 22t-69 65t-21.5 104q0 30 3 57t7 53q13 83 46.5 138t90 82.5t137.5 27.5q42 0 77.5 -7.5t61.5 -24.5t41.5 -46t15.5 -73q0 -54 -20 -89t-54.5 -54t-78.5 -26.5t-91 -7.5q-44 0 -79.5 4.5t-54.5 9.5q-2 -13 -2.5 -27t-0.5 -27q0 -55 35.5 -80
t117.5 -25h165l-9 -60q-34 -6 -85.5 -11t-107.5 -5zM288 275q57 0 97 9.5t61.5 33t21.5 64.5q0 44 -26.5 63.5t-81.5 19.5q-54 0 -88 -21.5t-53 -62t-27 -98.5q19 -3 44.5 -5.5t51.5 -2.5zM254 664l10 60h270l-10 -60h-270zM365 769l114 138h88l-139 -138h-63z" />
    <glyph glyph-name="uni1E1C" unicode="&#x1e1c;" horiz-adv-x="583" 
d="M232 -6q-27 0 -54.5 5.5t-49.5 22t-33 47.5t-3 79l69 436q9 59 35.5 92.5t63.5 47.5t79 13q75 -1 149.5 -3.5t150.5 -6.5l-13 -83h-275q-39 0 -62.5 -19.5t-30.5 -65.5l-23 -146l308 -8l-13 -78l-310 -5l-24 -152q-4 -32 4 -50t26 -25t44 -7h269l-13 -83
q-71 -3 -144 -6.5t-150 -4.5zM185 -197l6 41l22 3q20 2 33 10.5t19 19t6 19.5q0 13 -11 22.5t-43 11.5l44 12q35 0 54 -13.5t19 -42.5q0 -18 -12 -37.5t-36.5 -32.5t-63.5 -13h-37zM217 -70l64 80h47l-65 -80h-46zM422 787q-33 0 -58.5 11t-40.5 34.5t-15 61.5q0 9 1 18.5
t2 19.5h48q-1 -7 -1.5 -13.5t-0.5 -12.5q0 -39 21 -55.5t50 -16.5q36 0 65.5 21.5t37.5 76.5h48q-8 -54 -31 -85.5t-55.5 -45.5t-70.5 -14z" />
    <glyph glyph-name="uni1E1D" unicode="&#x1e1d;" horiz-adv-x="548" 
d="M298 -6q-77 0 -124.5 22t-69 65t-21.5 104q0 30 3 57t7 53q13 83 46.5 138t90 82.5t137.5 27.5q42 0 77.5 -7.5t61.5 -24.5t41.5 -46t15.5 -73q0 -54 -20 -89t-54.5 -54t-78.5 -26.5t-91 -7.5q-44 0 -79.5 4.5t-54.5 9.5q-2 -13 -2.5 -27t-0.5 -27q0 -55 35.5 -80
t117.5 -25h165l-9 -60q-34 -6 -85.5 -11t-107.5 -5zM288 275q57 0 97 9.5t61.5 33t21.5 64.5q0 44 -26.5 63.5t-81.5 19.5q-54 0 -88 -21.5t-53 -62t-27 -98.5q19 -3 44.5 -5.5t51.5 -2.5zM184 -197l6 41l22 3q20 2 33 10.5t19 19t6 19.5q0 13 -11 22.5t-43 11.5l44 12
q35 0 54 -13.5t19 -42.5q0 -18 -12 -37.5t-36.5 -32.5t-63.5 -13h-37zM216 -70l64 80h47l-65 -80h-46zM383 627q-33 0 -58.5 11t-40.5 34.5t-15 61.5q0 9 1 18.5t2 19.5h48q-1 -7 -1.5 -13.5t-0.5 -12.5q0 -39 21 -55.5t50 -16.5q36 0 65.5 21.5t37.5 76.5h48
q-8 -54 -31 -85.5t-55.5 -45.5t-70.5 -14z" />
    <glyph glyph-name="uni1E1E" unicode="&#x1e1e;" horiz-adv-x="557" 
d="M69 0l92 582q10 64 37.5 97.5t64 46t75.5 11.5q81 -1 154.5 -3.5t145.5 -7.5l-13 -82h-276q-41 0 -62.5 -20t-28.5 -64l-26 -161l309 -7l-13 -78l-309 -6l-50 -308h-100zM402 815q-14 0 -14 14v1.5v1.5l13 84q3 18 20 18h47q14 0 14 -14v-1.5v-2.5l-13 -84
q-2 -17 -20 -17h-47z" />
    <glyph glyph-name="uni1E1F" unicode="&#x1e1f;" horiz-adv-x="378" 
d="M102 0l71 452h-79l10 65l82 18l14 81q5 31 15.5 58.5t30 49t50.5 33.5t77 12q32 0 64 -2t55 -6l-11 -73h-92q-33 0 -51.5 -11t-28 -32.5t-13.5 -53.5l-9 -56h152l-13 -83h-152l-71 -452h-101zM340 855q-14 0 -14 14v1.5v1.5l13 84q3 18 20 18h47q14 0 14 -14v-1.5v-2.5
l-13 -84q-2 -17 -20 -17h-47z" />
    <glyph glyph-name="uni1E20" unicode="&#x1e20;" horiz-adv-x="650" 
d="M291 -6q-104 0 -147.5 55.5t-43.5 173.5q0 40 4.5 82.5t11.5 86.5q18 111 56 190t101 120.5t156 41.5q86 0 142 -9.5t101 -23.5l-12 -77q-38 8 -93.5 14t-128.5 6q-71 0 -115 -31.5t-68.5 -94.5t-39.5 -160q-13 -85 -13 -141q0 -71 28.5 -105.5t94.5 -34.5q22 0 48.5 3.5
t52.5 8.5t47.5 11t33.5 10l31 196h-164l13 79q26 3 68 5t100 2q14 0 31.5 -0.5t34 -1t28.5 -0.5l-64 -400h-74l-7 51q-14 -7 -38.5 -17t-55 -19t-61.5 -15t-58 -6zM313 824l10 60h270l-10 -60h-270z" />
    <glyph glyph-name="uni1E21" unicode="&#x1e21;" horiz-adv-x="569" 
d="M188 -235l-142 8l11 69h165q43 0 80 10.5t62 35t32 65.5l17 103q-27 -19 -59.5 -33t-65.5 -21.5t-62 -7.5q-44 0 -76.5 22.5t-50.5 63t-18 93.5q0 26 4 58t8 61q11 67 33.5 114.5t57 76.5t81.5 43.5t106 14.5q71 0 127 -8.5t88 -17.5l-92 -577q-9 -54 -35.5 -89.5
t-67.5 -55t-93 -26t-110 -2.5zM273 76q40 0 75 11.5t75 33.5l52 331q-27 3 -54.5 4.5t-54.5 2.5q-51 2 -86 -16.5t-56.5 -58.5t-32.5 -104q-4 -30 -6.5 -50.5t-2.5 -40.5q0 -58 26 -85.5t65 -27.5zM256 664l10 60h270l-10 -60h-270z" />
    <glyph glyph-name="uni1E24" unicode="&#x1e24;" horiz-adv-x="674" 
d="M69 0l117 737h100l-52 -331h339l53 331h101l-117 -737h-101l50 316h-340l-50 -316h-100zM271 -215q-14 0 -14 14v1.5v1.5l13 84q3 18 20 18h47q14 0 14 -14v-1.5v-2.5l-13 -84q-2 -17 -20 -17h-47z" />
    <glyph glyph-name="uni1E25" unicode="&#x1e25;" horiz-adv-x="580" 
d="M64 0l121 763h100l-45 -286q38 27 90 46t114 19q65 0 99.5 -32t34.5 -99q0 -24 -4 -55l-57 -356h-100l54 343q1 9 1.5 16.5t0.5 15.5q0 43 -22.5 60t-61.5 17q-47 0 -84 -13.5t-77 -39.5l-64 -399h-100zM228 -215q-14 0 -14 14v1.5v1.5l13 84q3 18 20 18h47q14 0 14 -14
v-1.5v-2.5l-13 -84q-2 -17 -20 -17h-47z" />
    <glyph glyph-name="uni1E2A" unicode="&#x1e2a;" horiz-adv-x="674" 
d="M69 0l117 737h100l-52 -331h339l53 331h101l-117 -737h-101l50 316h-340l-50 -316h-100zM292 -223q-33 0 -58.5 11t-40 34.5t-14.5 61.5q0 9 0.5 18.5t1.5 19.5h48q-1 -7 -1.5 -13.5t-0.5 -12.5q0 -39 21 -55.5t50 -16.5q37 0 66 21.5t37 76.5h49q-8 -54 -31.5 -85.5
t-56 -45.5t-70.5 -14z" />
    <glyph glyph-name="uni1E2B" unicode="&#x1e2b;" horiz-adv-x="580" 
d="M64 0l121 763h100l-45 -286q38 27 90 46t114 19q65 0 99.5 -32t34.5 -99q0 -24 -4 -55l-57 -356h-100l54 343q1 9 1.5 16.5t0.5 15.5q0 43 -22.5 60t-61.5 17q-47 0 -84 -13.5t-77 -39.5l-64 -399h-100zM258 -223q-33 0 -58.5 11t-40 34.5t-14.5 61.5q0 9 0.5 18.5
t1.5 19.5h48q-1 -7 -1.5 -13.5t-0.5 -12.5q0 -39 21 -55.5t50 -16.5q37 0 66 21.5t37 76.5h49q-8 -54 -31.5 -85.5t-56 -45.5t-70.5 -14z" />
    <glyph glyph-name="uni1E2E" unicode="&#x1e2e;" horiz-adv-x="238" 
d="M69 0l117 737h100l-117 -737h-100zM311 808q-14 0 -14 14q0 1 0.5 5t3.5 22l10 60q2 18 20 18h46q15 0 15 -14l-0.5 -4t-4 -22t-9.5 -62q-2 -17 -20 -17h-47zM108 808q-14 0 -14 14q0 1 0.5 5t3.5 22l10 60q2 18 20 18h46q15 0 15 -14l-0.5 -4t-4 -22t-9.5 -62
q-2 -17 -20 -17h-47zM217 960l114 138h88l-139 -138h-63z" />
    <glyph glyph-name="uni1E2F" unicode="&#x1e2f;" horiz-adv-x="228" 
d="M64 0l85 535h100l-84 -535h-101zM290 648q-14 0 -14 14q0 1 0.5 5t3.5 22l10 60q2 18 20 18h46q15 0 15 -14l-0.5 -4t-4 -22t-9.5 -62q-2 -17 -20 -17h-47zM87 648q-14 0 -14 14q0 1 0.5 5t3.5 22l10 60q2 18 20 18h46q15 0 15 -14l-0.5 -4t-4 -22t-9.5 -62
q-2 -17 -20 -17h-47zM196 809l114 138h88l-139 -138h-63z" />
    <glyph glyph-name="uni1E36" unicode="&#x1e36;" horiz-adv-x="526" 
d="M225 0q-61 0 -97.5 26.5t-36.5 91.5q0 10 1 20.5t2 20.5l92 578h100l-90 -566q-1 -7 -1.5 -12.5t-0.5 -12.5q0 -33 19.5 -44.5t50.5 -11.5h254l-15 -90h-278zM211 -215q-14 0 -14 14v1.5v1.5l13 84q3 18 20 18h47q14 0 14 -14v-1.5v-2.5l-13 -84q-2 -17 -20 -17h-47z" />
    <glyph glyph-name="uni1E37" unicode="&#x1e37;" horiz-adv-x="302" 
d="M222 0q-66 0 -101 30t-35 81q0 20 2 38.5t5 34.5l92 579h100l-87 -548q-1 -9 -3 -22.5t-3.5 -27.5t-1.5 -27q0 -32 15 -44.5t42 -15.5l48 -6l-12 -72h-61zM124 -215q-14 0 -14 14v1.5v1.5l13 84q3 18 20 18h47q14 0 14 -14v-1.5v-2.5l-13 -84q-2 -17 -20 -17h-47z" />
    <glyph glyph-name="uni1E3A" unicode="&#x1e3a;" horiz-adv-x="526" 
d="M225 0q-61 0 -97.5 26.5t-36.5 91.5q0 10 1 20.5t2 20.5l92 578h100l-90 -566q-1 -7 -1.5 -12.5t-0.5 -12.5q0 -33 19.5 -44.5t50.5 -11.5h254l-15 -90h-278zM100 -196l10 60h270l-10 -60h-270z" />
    <glyph glyph-name="uni1E3B" unicode="&#x1e3b;" horiz-adv-x="302" 
d="M222 0q-66 0 -101 30t-35 81q0 20 2 38.5t5 34.5l92 579h100l-87 -548q-1 -9 -3 -22.5t-3.5 -27.5t-1.5 -27q0 -32 15 -44.5t42 -15.5l48 -6l-12 -72h-61zM25 -196l10 60h270l-10 -60h-270z" />
    <glyph glyph-name="uni1E40" unicode="&#x1e40;" horiz-adv-x="831" 
d="M53 0l203 737h94l96 -610l290 610h93l-30 -737h-98l25 555l-253 -555h-94l-78 551l-148 -551h-100zM516 815q-14 0 -14 14v1.5v1.5l13 84q3 18 20 18h47q14 0 14 -14v-1.5v-2.5l-13 -84q-2 -17 -20 -17h-47z" />
    <glyph glyph-name="uni1E41" unicode="&#x1e41;" horiz-adv-x="933" 
d="M64 0l84 535h82l10 -58q41 27 91 46t111 19q55 0 85 -20t47 -60q47 39 104.5 59.5t110.5 20.5q72 0 107 -32.5t35 -96.5q0 -16 -1.5 -33t-4.5 -32l-55 -348h-101l55 346q2 6 2.5 13.5t0.5 14.5q0 78 -87 78q-47 0 -86.5 -16t-79.5 -43q1 -10 0.5 -23.5t-3.5 -30.5
l-54 -339h-100l54 340q1 11 2 18t1 17q0 36 -20 56.5t-66 20.5q-49 0 -85 -15t-75 -38l-64 -399h-100zM547 655q-14 0 -14 14v1.5v1.5l13 84q3 18 20 18h47q14 0 14 -14v-1.5v-2.5l-13 -84q-2 -17 -20 -17h-47z" />
    <glyph glyph-name="uni1E42" unicode="&#x1e42;" horiz-adv-x="831" 
d="M53 0l203 737h94l96 -610l290 610h93l-30 -737h-98l25 555l-253 -555h-94l-78 551l-148 -551h-100zM348 -215q-14 0 -14 14v1.5v1.5l13 84q3 18 20 18h47q14 0 14 -14v-1.5v-2.5l-13 -84q-2 -17 -20 -17h-47z" />
    <glyph glyph-name="uni1E43" unicode="&#x1e43;" horiz-adv-x="933" 
d="M64 0l84 535h82l10 -58q41 27 91 46t111 19q55 0 85 -20t47 -60q47 39 104.5 59.5t110.5 20.5q72 0 107 -32.5t35 -96.5q0 -16 -1.5 -33t-4.5 -32l-55 -348h-101l55 346q2 6 2.5 13.5t0.5 14.5q0 78 -87 78q-47 0 -86.5 -16t-79.5 -43q1 -10 0.5 -23.5t-3.5 -30.5
l-54 -339h-100l54 340q1 11 2 18t1 17q0 36 -20 56.5t-66 20.5q-49 0 -85 -15t-75 -38l-64 -399h-100zM408 -215q-14 0 -14 14v1.5v1.5l13 84q3 18 20 18h47q14 0 14 -14v-1.5v-2.5l-13 -84q-2 -17 -20 -17h-47z" />
    <glyph glyph-name="uni1E44" unicode="&#x1e44;" horiz-adv-x="676" 
d="M69 0l117 737h81l271 -566l90 566h101l-117 -737h-82l-271 567l-90 -567h-100zM261 -215q-14 0 -14 14v1.5v1.5l13 84q3 18 20 18h47q14 0 14 -14v-1.5v-2.5l-13 -84q-2 -17 -20 -17h-47z" />
    <glyph glyph-name="uni1E45" unicode="&#x1e45;" horiz-adv-x="580" 
d="M64 0l84 535h82l10 -58q40 28 91.5 46.5t109.5 18.5q48 0 78.5 -16t44.5 -44t14 -64q0 -14 -1.5 -33t-8.5 -66l-51 -319h-100l50 316q4 28 5.5 39.5t1.5 19.5q0 34 -19 55.5t-67 21.5q-47 0 -83.5 -14t-76.5 -39l-64 -399h-100zM229 -215q-14 0 -14 14v1.5v1.5l13 84
q3 18 20 18h47q14 0 14 -14v-1.5v-2.5l-13 -84q-2 -17 -20 -17h-47z" />
    <glyph glyph-name="uni1E46" unicode="&#x1e46;" horiz-adv-x="676" 
d="M69 0l117 737h81l271 -566l90 566h101l-117 -737h-82l-271 567l-90 -567h-100zM261 -215q-14 0 -14 14v1.5v1.5l13 84q3 18 20 18h47q14 0 14 -14v-1.5v-2.5l-13 -84q-2 -17 -20 -17h-47z" />
    <glyph glyph-name="uni1E47" unicode="&#x1e47;" horiz-adv-x="580" 
d="M64 0l84 535h82l10 -58q40 28 91.5 46.5t109.5 18.5q48 0 78.5 -16t44.5 -44t14 -64q0 -14 -1.5 -33t-8.5 -66l-51 -319h-100l50 316q4 28 5.5 39.5t1.5 19.5q0 34 -19 55.5t-67 21.5q-47 0 -83.5 -14t-76.5 -39l-64 -399h-100zM229 -215q-14 0 -14 14v1.5v1.5l13 84
q3 18 20 18h47q14 0 14 -14v-1.5v-2.5l-13 -84q-2 -17 -20 -17h-47z" />
    <glyph glyph-name="uni1E48" unicode="&#x1e48;" horiz-adv-x="676" 
d="M69 0l117 737h81l271 -566l90 566h101l-117 -737h-82l-271 567l-90 -567h-100zM161 -196l10 60h270l-10 -60h-270z" />
    <glyph glyph-name="uni1E49" unicode="&#x1e49;" horiz-adv-x="580" 
d="M64 0l84 535h82l10 -58q40 28 91.5 46.5t109.5 18.5q48 0 78.5 -16t44.5 -44t14 -64q0 -14 -1.5 -33t-8.5 -66l-51 -319h-100l50 316q4 28 5.5 39.5t1.5 19.5q0 34 -19 55.5t-67 21.5q-47 0 -83.5 -14t-76.5 -39l-64 -399h-100zM130 -196l10 60h270l-10 -60h-270z" />
    <glyph glyph-name="uni1E4C" unicode="&#x1e4c;" horiz-adv-x="690" 
d="M342 -6q-55 0 -100 9t-77 33t-49 68t-17 113q0 35 4 76.5t11 88.5q18 108 45.5 178.5t69.5 110t99.5 56t134.5 16.5q54 0 98.5 -9.5t77 -35.5t50 -71.5t17.5 -116.5q0 -33 -4 -75.5t-12 -88.5q-17 -110 -45.5 -179t-70 -107t-99 -52t-133.5 -14zM359 85q52 0 90 12.5
t64.5 43t45 84t31.5 136.5q7 45 11 83t4 65q0 61 -18 91.5t-53 41.5t-86 11q-50 0 -88 -12t-65.5 -43t-46.5 -87t-33 -145q-7 -43 -11.5 -80.5t-4.5 -63.5q0 -56 17 -86t52.5 -40.5t90.5 -10.5zM307 805q14 62 46.5 86t69.5 24q23 0 42.5 -8t36.5 -18.5t34 -18.5t34 -8
q24 0 40.5 15t20.5 42h51q-12 -57 -40 -85t-74 -28q-22 0 -41 8t-37 18.5t-35.5 18.5t-34.5 8q-23 0 -40 -14t-22 -40h-51zM456 956l114 138h88l-139 -138h-63z" />
    <glyph glyph-name="uni1E4D" unicode="&#x1e4d;" horiz-adv-x="569" 
d="M284 -6q-63 0 -108.5 19t-69.5 59t-24 105q0 26 2 50t6 49q13 80 35 131.5t55 80.5t79.5 41t110.5 12q77 0 121 -21t61.5 -63.5t17.5 -105.5q0 -24 -2.5 -51t-6.5 -56q-15 -98 -48.5 -152.5t-89 -76t-139.5 -21.5zM295 76q37 0 64 7.5t46 27t32.5 56t23.5 93.5
q4 28 6.5 51.5t2.5 43.5q0 58 -26.5 82t-88.5 24q-38 0 -65 -9t-46 -30.5t-32 -61t-23 -100.5q-4 -23 -5.5 -42.5t-1.5 -36.5q0 -43 14 -65.5t39.5 -31t59.5 -8.5zM209 645q14 62 46.5 86t69.5 24q23 0 42.5 -8t36.5 -18.5t34 -18.5t34 -8q24 0 40.5 15t20.5 42h51
q-12 -57 -40 -85t-74 -28q-22 0 -41 8t-37 18.5t-35.5 18.5t-34.5 8q-23 0 -40 -14t-22 -40h-51zM358 791l114 138h88l-139 -138h-63z" />
    <glyph glyph-name="uni1E4E" unicode="&#x1e4e;" horiz-adv-x="690" 
d="M342 -6q-55 0 -100 9t-77 33t-49 68t-17 113q0 35 4 76.5t11 88.5q18 108 45.5 178.5t69.5 110t99.5 56t134.5 16.5q54 0 98.5 -9.5t77 -35.5t50 -71.5t17.5 -116.5q0 -33 -4 -75.5t-12 -88.5q-17 -110 -45.5 -179t-70 -107t-99 -52t-133.5 -14zM359 85q52 0 90 12.5
t64.5 43t45 84t31.5 136.5q7 45 11 83t4 65q0 61 -18 91.5t-53 41.5t-86 11q-50 0 -88 -12t-65.5 -43t-46.5 -87t-33 -145q-7 -43 -11.5 -80.5t-4.5 -63.5q0 -56 17 -86t52.5 -40.5t90.5 -10.5zM296 805q14 62 46.5 86t69.5 24q23 0 42.5 -8t36.5 -18.5t34 -18.5t34 -8
q24 0 40.5 15t20.5 42h51q-12 -57 -40 -85t-74 -28q-22 0 -41 8t-37 18.5t-35.5 18.5t-34.5 8q-23 0 -40 -14t-22 -40h-51zM570 966q-14 0 -14 14q0 1 0.5 5t3.5 22l10 60q2 18 20 18h46q15 0 15 -14l-0.5 -4t-4 -22t-9.5 -62q-2 -17 -20 -17h-47zM367 966q-14 0 -14 14
q0 1 0.5 5t3.5 22l10 60q2 18 20 18h46q15 0 15 -14l-0.5 -4t-4 -22t-9.5 -62q-2 -17 -20 -17h-47z" />
    <glyph glyph-name="uni1E4F" unicode="&#x1e4f;" horiz-adv-x="569" 
d="M284 -6q-63 0 -108.5 19t-69.5 59t-24 105q0 26 2 50t6 49q13 80 35 131.5t55 80.5t79.5 41t110.5 12q77 0 121 -21t61.5 -63.5t17.5 -105.5q0 -24 -2.5 -51t-6.5 -56q-15 -98 -48.5 -152.5t-89 -76t-139.5 -21.5zM295 76q37 0 64 7.5t46 27t32.5 56t23.5 93.5
q4 28 6.5 51.5t2.5 43.5q0 58 -26.5 82t-88.5 24q-38 0 -65 -9t-46 -30.5t-32 -61t-23 -100.5q-4 -23 -5.5 -42.5t-1.5 -36.5q0 -43 14 -65.5t39.5 -31t59.5 -8.5zM209 645q14 62 46.5 86t69.5 24q23 0 42.5 -8t36.5 -18.5t34 -18.5t34 -8q24 0 40.5 15t20.5 42h51
q-12 -57 -40 -85t-74 -28q-22 0 -41 8t-37 18.5t-35.5 18.5t-34.5 8q-23 0 -40 -14t-22 -40h-51zM478 806q-14 0 -14 14q0 1 0.5 5t3.5 22l10 60q2 18 20 18h46q15 0 15 -14l-0.5 -4t-4 -22t-9.5 -62q-2 -17 -20 -17h-47zM275 806q-14 0 -14 14q0 1 0.5 5t3.5 22l10 60
q2 18 20 18h46q15 0 15 -14l-0.5 -4t-4 -22t-9.5 -62q-2 -17 -20 -17h-47z" />
    <glyph glyph-name="uni1E50" unicode="&#x1e50;" horiz-adv-x="690" 
d="M342 -6q-55 0 -100 9t-77 33t-49 68t-17 113q0 35 4 76.5t11 88.5q18 108 45.5 178.5t69.5 110t99.5 56t134.5 16.5q54 0 98.5 -9.5t77 -35.5t50 -71.5t17.5 -116.5q0 -33 -4 -75.5t-12 -88.5q-17 -110 -45.5 -179t-70 -107t-99 -52t-133.5 -14zM359 85q52 0 90 12.5
t64.5 43t45 84t31.5 136.5q7 45 11 83t4 65q0 61 -18 91.5t-53 41.5t-86 11q-50 0 -88 -12t-65.5 -43t-46.5 -87t-33 -145q-7 -43 -11.5 -80.5t-4.5 -63.5q0 -56 17 -86t52.5 -40.5t90.5 -10.5zM340 824l10 60h270l-10 -60h-270zM458 929l-100 138h83l76 -138h-59z" />
    <glyph glyph-name="uni1E51" unicode="&#x1e51;" horiz-adv-x="569" 
d="M284 -6q-63 0 -108.5 19t-69.5 59t-24 105q0 26 2 50t6 49q13 80 35 131.5t55 80.5t79.5 41t110.5 12q77 0 121 -21t61.5 -63.5t17.5 -105.5q0 -24 -2.5 -51t-6.5 -56q-15 -98 -48.5 -152.5t-89 -76t-139.5 -21.5zM295 76q37 0 64 7.5t46 27t32.5 56t23.5 93.5
q4 28 6.5 51.5t2.5 43.5q0 58 -26.5 82t-88.5 24q-38 0 -65 -9t-46 -30.5t-32 -61t-23 -100.5q-4 -23 -5.5 -42.5t-1.5 -36.5q0 -43 14 -65.5t39.5 -31t59.5 -8.5zM252 664l10 60h270l-10 -60h-270zM370 769l-100 138h83l76 -138h-59z" />
    <glyph glyph-name="uni1E52" unicode="&#x1e52;" horiz-adv-x="690" 
d="M342 -6q-55 0 -100 9t-77 33t-49 68t-17 113q0 35 4 76.5t11 88.5q18 108 45.5 178.5t69.5 110t99.5 56t134.5 16.5q54 0 98.5 -9.5t77 -35.5t50 -71.5t17.5 -116.5q0 -33 -4 -75.5t-12 -88.5q-17 -110 -45.5 -179t-70 -107t-99 -52t-133.5 -14zM359 85q52 0 90 12.5
t64.5 43t45 84t31.5 136.5q7 45 11 83t4 65q0 61 -18 91.5t-53 41.5t-86 11q-50 0 -88 -12t-65.5 -43t-46.5 -87t-33 -145q-7 -43 -11.5 -80.5t-4.5 -63.5q0 -56 17 -86t52.5 -40.5t90.5 -10.5zM340 824l10 60h270l-10 -60h-270zM451 929l114 138h88l-139 -138h-63z" />
    <glyph glyph-name="uni1E53" unicode="&#x1e53;" horiz-adv-x="569" 
d="M284 -6q-63 0 -108.5 19t-69.5 59t-24 105q0 26 2 50t6 49q13 80 35 131.5t55 80.5t79.5 41t110.5 12q77 0 121 -21t61.5 -63.5t17.5 -105.5q0 -24 -2.5 -51t-6.5 -56q-15 -98 -48.5 -152.5t-89 -76t-139.5 -21.5zM295 76q37 0 64 7.5t46 27t32.5 56t23.5 93.5
q4 28 6.5 51.5t2.5 43.5q0 58 -26.5 82t-88.5 24q-38 0 -65 -9t-46 -30.5t-32 -61t-23 -100.5q-4 -23 -5.5 -42.5t-1.5 -36.5q0 -43 14 -65.5t39.5 -31t59.5 -8.5zM252 664l10 60h270l-10 -60h-270zM367 769l114 138h88l-139 -138h-63z" />
    <glyph glyph-name="uni1E56" unicode="&#x1e56;" horiz-adv-x="603" 
d="M69 0l117 737h284q49 0 89 -16t63.5 -54.5t23.5 -107.5q0 -14 -2.5 -35t-5.5 -38q-10 -67 -33.5 -111t-55 -69.5t-68 -36.5t-72.5 -11q-49 0 -103 4.5t-94 9.5l-43 -272h-100zM224 349h173q34 0 63 14t49.5 47t28.5 86q2 14 4 30t2 24q0 53 -24.5 75t-69.5 22h-179z
M382 815q-14 0 -14 14v1.5v1.5l13 84q3 18 20 18h47q14 0 14 -14v-1.5v-2.5l-13 -84q-2 -17 -20 -17h-47z" />
    <glyph glyph-name="uni1E57" unicode="&#x1e57;" horiz-adv-x="567" 
d="M26 -237l120 758q55 9 116 14.5t135 5.5q89 0 131 -46t42 -140q0 -25 -2.5 -52t-7.5 -52q-13 -83 -44.5 -140t-82.5 -87t-122 -30q-41 0 -76.5 6.5t-66.5 21.5l-42 -259h-100zM301 80q50 0 82 21t51.5 63.5t29.5 106.5q2 15 4.5 33t2.5 35q0 60 -23.5 90t-76.5 30
l-135 -1l-57 -357q24 -7 42 -12t36.5 -7t43.5 -2zM362 655q-14 0 -14 14v1.5v1.5l13 84q3 18 20 18h47q14 0 14 -14v-1.5v-2.5l-13 -84q-2 -17 -20 -17h-47z" />
    <glyph glyph-name="uni1E5A" unicode="&#x1e5a;" horiz-adv-x="622" 
d="M69 0l117 737h272q37 0 70.5 -8.5t59 -28t40.5 -53t15 -84.5q0 -14 -1.5 -29t-4.5 -32q-9 -56 -27.5 -92t-42 -56.5t-47.5 -30t-43 -14.5l98 -309h-102l-89 294q-15 0 -36.5 0.5t-45.5 1t-46.5 1t-39.5 0.5l-47 -297h-100zM229 375h169q36 0 63.5 11t46.5 39.5t28 83.5
q2 12 2.5 22t0.5 19q0 39 -14.5 59.5t-37 29t-49.5 8.5h-167zM249 -215q-14 0 -14 14v1.5v1.5l13 84q3 18 20 18h47q14 0 14 -14v-1.5v-2.5l-13 -84q-2 -17 -20 -17h-47z" />
    <glyph glyph-name="uni1E5B" unicode="&#x1e5b;" horiz-adv-x="403" 
d="M64 0l85 535h87l3 -67q31 29 70.5 51t87.5 22q19 0 34.5 -1.5t27.5 -5.5l-15 -101q-15 3 -32 4t-35 1q-47 0 -84.5 -15t-66.5 -34l-61 -389h-101zM59 -215q-14 0 -14 14v1.5v1.5l13 84q3 18 20 18h47q14 0 14 -14v-1.5v-2.5l-13 -84q-2 -17 -20 -17h-47z" />
    <glyph glyph-name="uni1E5E" unicode="&#x1e5e;" horiz-adv-x="622" 
d="M69 0l117 737h272q37 0 70.5 -8.5t59 -28t40.5 -53t15 -84.5q0 -14 -1.5 -29t-4.5 -32q-9 -56 -27.5 -92t-42 -56.5t-47.5 -30t-43 -14.5l98 -309h-102l-89 294q-15 0 -36.5 0.5t-45.5 1t-46.5 1t-39.5 0.5l-47 -297h-100zM229 375h169q36 0 63.5 11t46.5 39.5t28 83.5
q2 12 2.5 22t0.5 19q0 39 -14.5 59.5t-37 29t-49.5 8.5h-167zM143 -196l10 60h270l-10 -60h-270z" />
    <glyph glyph-name="uni1E5F" unicode="&#x1e5f;" horiz-adv-x="403" 
d="M64 0l85 535h87l3 -67q31 29 70.5 51t87.5 22q19 0 34.5 -1.5t27.5 -5.5l-15 -101q-15 3 -32 4t-35 1q-47 0 -84.5 -15t-66.5 -34l-61 -389h-101zM-40 -196l10 60h270l-10 -60h-270z" />
    <glyph glyph-name="uni1E60" unicode="&#x1e60;" horiz-adv-x="570" 
d="M302 -6q-44 0 -88 3t-81 7t-64 10l12 78q43 -4 103.5 -6t118.5 -2q46 0 80 8t54.5 30t26.5 62l7 41q1 8 1.5 14.5t0.5 12.5q0 36 -23 52.5t-75 16.5h-80q-77 0 -118.5 35.5t-41.5 101.5q0 19 3 40l10 62q11 72 43.5 111.5t83.5 55.5t117 16q21 0 49 -1.5t58.5 -4.5
t59.5 -7t53 -9l-12 -78q-34 3 -74 4.5t-78.5 2.5t-65.5 1q-40 0 -69 -8t-46.5 -30t-24.5 -63l-6 -41q-1 -8 -2 -14.5t-1 -13.5q0 -36 21 -50.5t64 -14.5h82q86 0 128.5 -37.5t42.5 -103.5q0 -18 -3 -40l-10 -68q-10 -64 -41.5 -102t-85 -54.5t-129.5 -16.5zM385 815
q-14 0 -14 14v1.5v1.5l13 84q3 18 20 18h47q14 0 14 -14v-1.5v-2.5l-13 -84q-2 -17 -20 -17h-47z" />
    <glyph glyph-name="uni1E61" unicode="&#x1e61;" horiz-adv-x="508" 
d="M271 -6q-27 0 -57 1t-60 3.5t-55 6t-41 6.5l9 60h226q41 0 66.5 14t30.5 47l6 33q1 5 1 7.5v5.5q0 47 -61 47h-93q-44 0 -76 10t-49 31.5t-17 54.5q0 10 1 21t3 23l7 41q7 40 28 70.5t62.5 47.5t109.5 17q29 0 66.5 -2.5t74 -6.5t61.5 -9l-11 -60h-210q-44 0 -64.5 -15.5
t-26.5 -47.5l-5 -27q-2 -10 -2.5 -16.5t-0.5 -12.5q0 -19 15.5 -27.5t52.5 -8.5h98q59 0 95 -27t36 -77q0 -8 -0.5 -17t-1.5 -18l-8 -48q-11 -70 -66.5 -98.5t-143.5 -28.5zM337 655q-14 0 -14 14v1.5v1.5l13 84q3 18 20 18h47q14 0 14 -14v-1.5v-2.5l-13 -84
q-2 -17 -20 -17h-47z" />
    <glyph glyph-name="uni1E62" unicode="&#x1e62;" horiz-adv-x="570" 
d="M302 -6q-44 0 -88 3t-81 7t-64 10l12 78q43 -4 103.5 -6t118.5 -2q46 0 80 8t54.5 30t26.5 62l7 41q1 8 1.5 14.5t0.5 12.5q0 36 -23 52.5t-75 16.5h-80q-77 0 -118.5 35.5t-41.5 101.5q0 19 3 40l10 62q11 72 43.5 111.5t83.5 55.5t117 16q21 0 49 -1.5t58.5 -4.5
t59.5 -7t53 -9l-12 -78q-34 3 -74 4.5t-78.5 2.5t-65.5 1q-40 0 -69 -8t-46.5 -30t-24.5 -63l-6 -41q-1 -8 -2 -14.5t-1 -13.5q0 -36 21 -50.5t64 -14.5h82q86 0 128.5 -37.5t42.5 -103.5q0 -18 -3 -40l-10 -68q-10 -64 -41.5 -102t-85 -54.5t-129.5 -16.5zM217 -215
q-14 0 -14 14v1.5v1.5l13 84q3 18 20 18h47q14 0 14 -14v-1.5v-2.5l-13 -84q-2 -17 -20 -17h-47z" />
    <glyph glyph-name="uni1E63" unicode="&#x1e63;" horiz-adv-x="508" 
d="M271 -6q-27 0 -57 1t-60 3.5t-55 6t-41 6.5l9 60h226q41 0 66.5 14t30.5 47l6 33q1 5 1 7.5v5.5q0 47 -61 47h-93q-44 0 -76 10t-49 31.5t-17 54.5q0 10 1 21t3 23l7 41q7 40 28 70.5t62.5 47.5t109.5 17q29 0 66.5 -2.5t74 -6.5t61.5 -9l-11 -60h-210q-44 0 -64.5 -15.5
t-26.5 -47.5l-5 -27q-2 -10 -2.5 -16.5t-0.5 -12.5q0 -19 15.5 -27.5t52.5 -8.5h98q59 0 95 -27t36 -77q0 -8 -0.5 -17t-1.5 -18l-8 -48q-11 -70 -66.5 -98.5t-143.5 -28.5zM198 -215q-14 0 -14 14v1.5v1.5l13 84q3 18 20 18h47q14 0 14 -14v-1.5v-2.5l-13 -84
q-2 -17 -20 -17h-47z" />
    <glyph glyph-name="uni1E64" unicode="&#x1e64;" horiz-adv-x="570" 
d="M302 -6q-44 0 -88 3t-81 7t-64 10l12 78q43 -4 103.5 -6t118.5 -2q46 0 80 8t54.5 30t26.5 62l7 41q1 8 1.5 14.5t0.5 12.5q0 36 -23 52.5t-75 16.5h-80q-77 0 -118.5 35.5t-41.5 101.5q0 19 3 40l10 62q11 72 43.5 111.5t83.5 55.5t117 16q21 0 49 -1.5t58.5 -4.5
t59.5 -7t53 -9l-12 -78q-34 3 -74 4.5t-78.5 2.5t-65.5 1q-40 0 -69 -8t-46.5 -30t-24.5 -63l-6 -41q-1 -8 -2 -14.5t-1 -13.5q0 -36 21 -50.5t64 -14.5h82q86 0 128.5 -37.5t42.5 -103.5q0 -18 -3 -40l-10 -68q-10 -64 -41.5 -102t-85 -54.5t-129.5 -16.5zM336 791l114 138
h88l-139 -138h-63zM439 962q-14 0 -14 14v1.5v1.5l13 84q3 18 20 18h47q14 0 14 -14v-1.5v-2.5l-13 -84q-2 -17 -20 -17h-47z" />
    <glyph glyph-name="uni1E65" unicode="&#x1e65;" horiz-adv-x="508" 
d="M271 -6q-27 0 -57 1t-60 3.5t-55 6t-41 6.5l9 60h226q41 0 66.5 14t30.5 47l6 33q1 5 1 7.5v5.5q0 47 -61 47h-93q-44 0 -76 10t-49 31.5t-17 54.5q0 10 1 21t3 23l7 41q7 40 28 70.5t62.5 47.5t109.5 17q29 0 66.5 -2.5t74 -6.5t61.5 -9l-11 -60h-210q-44 0 -64.5 -15.5
t-26.5 -47.5l-5 -27q-2 -10 -2.5 -16.5t-0.5 -12.5q0 -19 15.5 -27.5t52.5 -8.5h98q59 0 95 -27t36 -77q0 -8 -0.5 -17t-1.5 -18l-8 -48q-11 -70 -66.5 -98.5t-143.5 -28.5zM272 631l114 138h88l-139 -138h-63zM367 802q-14 0 -14 14v1.5v1.5l13 84q3 18 20 18h47
q14 0 14 -14v-1.5v-2.5l-13 -84q-2 -17 -20 -17h-47z" />
    <glyph glyph-name="uni1E66" unicode="&#x1e66;" horiz-adv-x="570" 
d="M302 -6q-44 0 -88 3t-81 7t-64 10l12 78q43 -4 103.5 -6t118.5 -2q46 0 80 8t54.5 30t26.5 62l7 41q1 8 1.5 14.5t0.5 12.5q0 36 -23 52.5t-75 16.5h-80q-77 0 -118.5 35.5t-41.5 101.5q0 19 3 40l10 62q11 72 43.5 111.5t83.5 55.5t117 16q21 0 49 -1.5t58.5 -4.5
t59.5 -7t53 -9l-12 -78q-34 3 -74 4.5t-78.5 2.5t-65.5 1q-40 0 -69 -8t-46.5 -30t-24.5 -63l-6 -41q-1 -8 -2 -14.5t-1 -13.5q0 -36 21 -50.5t64 -14.5h82q86 0 128.5 -37.5t42.5 -103.5q0 -18 -3 -40l-10 -68q-10 -64 -41.5 -102t-85 -54.5t-129.5 -16.5zM385 791l-85 137
h60l68 -90l106 90h60l-139 -137h-70zM419 968q-14 0 -14 14v1.5v1.5l13 84q3 18 20 18h47q14 0 14 -14v-1.5v-2.5l-13 -84q-2 -17 -20 -17h-47z" />
    <glyph glyph-name="uni1E67" unicode="&#x1e67;" horiz-adv-x="508" 
d="M271 -6q-27 0 -57 1t-60 3.5t-55 6t-41 6.5l9 60h226q41 0 66.5 14t30.5 47l6 33q1 5 1 7.5v5.5q0 47 -61 47h-93q-44 0 -76 10t-49 31.5t-17 54.5q0 10 1 21t3 23l7 41q7 40 28 70.5t62.5 47.5t109.5 17q29 0 66.5 -2.5t74 -6.5t61.5 -9l-11 -60h-210q-44 0 -64.5 -15.5
t-26.5 -47.5l-5 -27q-2 -10 -2.5 -16.5t-0.5 -12.5q0 -19 15.5 -27.5t52.5 -8.5h98q59 0 95 -27t36 -77q0 -8 -0.5 -17t-1.5 -18l-8 -48q-11 -70 -66.5 -98.5t-143.5 -28.5zM331 631l-85 137h60l68 -90l106 90h60l-139 -137h-70zM357 813q-14 0 -14 14v1.5v1.5l13 84
q3 18 20 18h47q14 0 14 -14v-1.5v-2.5l-13 -84q-2 -17 -20 -17h-47z" />
    <glyph glyph-name="uni1E68" unicode="&#x1e68;" horiz-adv-x="570" 
d="M302 -6q-44 0 -88 3t-81 7t-64 10l12 78q43 -4 103.5 -6t118.5 -2q46 0 80 8t54.5 30t26.5 62l7 41q1 8 1.5 14.5t0.5 12.5q0 36 -23 52.5t-75 16.5h-80q-77 0 -118.5 35.5t-41.5 101.5q0 19 3 40l10 62q11 72 43.5 111.5t83.5 55.5t117 16q21 0 49 -1.5t58.5 -4.5
t59.5 -7t53 -9l-12 -78q-34 3 -74 4.5t-78.5 2.5t-65.5 1q-40 0 -69 -8t-46.5 -30t-24.5 -63l-6 -41q-1 -8 -2 -14.5t-1 -13.5q0 -36 21 -50.5t64 -14.5h82q86 0 128.5 -37.5t42.5 -103.5q0 -18 -3 -40l-10 -68q-10 -64 -41.5 -102t-85 -54.5t-129.5 -16.5zM217 -215
q-14 0 -14 14v1.5v1.5l13 84q3 18 20 18h47q14 0 14 -14v-1.5v-2.5l-13 -84q-2 -17 -20 -17h-47zM385 815q-14 0 -14 14v1.5v1.5l13 84q3 18 20 18h47q14 0 14 -14v-1.5v-2.5l-13 -84q-2 -17 -20 -17h-47z" />
    <glyph glyph-name="uni1E69" unicode="&#x1e69;" horiz-adv-x="508" 
d="M271 -6q-27 0 -57 1t-60 3.5t-55 6t-41 6.5l9 60h226q41 0 66.5 14t30.5 47l6 33q1 5 1 7.5v5.5q0 47 -61 47h-93q-44 0 -76 10t-49 31.5t-17 54.5q0 10 1 21t3 23l7 41q7 40 28 70.5t62.5 47.5t109.5 17q29 0 66.5 -2.5t74 -6.5t61.5 -9l-11 -60h-210q-44 0 -64.5 -15.5
t-26.5 -47.5l-5 -27q-2 -10 -2.5 -16.5t-0.5 -12.5q0 -19 15.5 -27.5t52.5 -8.5h98q59 0 95 -27t36 -77q0 -8 -0.5 -17t-1.5 -18l-8 -48q-11 -70 -66.5 -98.5t-143.5 -28.5zM198 -215q-14 0 -14 14v1.5v1.5l13 84q3 18 20 18h47q14 0 14 -14v-1.5v-2.5l-13 -84
q-2 -17 -20 -17h-47zM337 655q-14 0 -14 14v1.5v1.5l13 84q3 18 20 18h47q14 0 14 -14v-1.5v-2.5l-13 -84q-2 -17 -20 -17h-47z" />
    <glyph glyph-name="uni1E6A" unicode="&#x1e6a;" horiz-adv-x="607" 
d="M248 0l102 647h-222l14 90h546l-15 -90h-222l-102 -647h-101zM398 815q-14 0 -14 14v1.5v1.5l13 84q3 18 20 18h47q14 0 14 -14v-1.5v-2.5l-13 -84q-2 -17 -20 -17h-47z" />
    <glyph glyph-name="uni1E6B" unicode="&#x1e6b;" horiz-adv-x="392" 
d="M272 0q-71 0 -107 29.5t-36 86.5q0 20 2.5 42t6.5 47l43 248h-84l10 65l89 17l39 150h79l-24 -150h145l-13 -82h-145l-40 -249q-2 -13 -4.5 -30.5t-2.5 -32.5q0 -29 15.5 -43.5t47.5 -17.5l63 -6l-12 -74h-72zM266 755q-14 0 -14 14v1.5v1.5l13 84q3 18 20 18h47
q14 0 14 -14v-1.5v-2.5l-13 -84q-2 -17 -20 -17h-47z" />
    <glyph glyph-name="uni1E6C" unicode="&#x1e6c;" horiz-adv-x="607" 
d="M248 0l102 647h-222l14 90h546l-15 -90h-222l-102 -647h-101zM230 -215q-14 0 -14 14v1.5v1.5l13 84q3 18 20 18h47q14 0 14 -14v-1.5v-2.5l-13 -84q-2 -17 -20 -17h-47z" />
    <glyph glyph-name="uni1E6D" unicode="&#x1e6d;" horiz-adv-x="392" 
d="M272 0q-71 0 -107 29.5t-36 86.5q0 20 2.5 42t6.5 47l43 248h-84l10 65l89 17l39 150h79l-24 -150h145l-13 -82h-145l-40 -249q-2 -13 -4.5 -30.5t-2.5 -32.5q0 -29 15.5 -43.5t47.5 -17.5l63 -6l-12 -74h-72zM189 -215q-14 0 -14 14v1.5v1.5l13 84q3 18 20 18h47
q14 0 14 -14v-1.5v-2.5l-13 -84q-2 -17 -20 -17h-47z" />
    <glyph glyph-name="uni1E6E" unicode="&#x1e6e;" horiz-adv-x="607" 
d="M248 0l102 647h-222l14 90h546l-15 -90h-222l-102 -647h-101zM135 -196l10 60h270l-10 -60h-270z" />
    <glyph glyph-name="uni1E6F" unicode="&#x1e6f;" horiz-adv-x="392" 
d="M272 0q-71 0 -107 29.5t-36 86.5q0 20 2.5 42t6.5 47l43 248h-84l10 65l89 17l39 150h79l-24 -150h145l-13 -82h-145l-40 -249q-2 -13 -4.5 -30.5t-2.5 -32.5q0 -29 15.5 -43.5t47.5 -17.5l63 -6l-12 -74h-72zM90 -196l10 60h270l-10 -60h-270z" />
    <glyph glyph-name="uni1E78" unicode="&#x1e78;" horiz-adv-x="680" 
d="M341 -6q-114 0 -173 48.5t-59 162.5q0 26 3.5 60t9.5 69l64 403h100l-66 -417q-4 -30 -7.5 -58t-3.5 -50q0 -70 35.5 -99t107.5 -29q43 0 76.5 9t59 33.5t44 71t30.5 122.5l66 417h100l-68 -431q-16 -100 -44 -162t-68 -94.5t-91.5 -44t-115.5 -11.5zM290 805
q14 62 46.5 86t69.5 24q23 0 42.5 -8t36.5 -18.5t34 -18.5t34 -8q24 0 40.5 15t20.5 42h51q-12 -57 -40 -85t-74 -28q-22 0 -41 8t-37 18.5t-35.5 18.5t-34.5 8q-23 0 -40 -14t-22 -40h-51zM444 960l114 138h88l-139 -138h-63z" />
    <glyph glyph-name="uni1E79" unicode="&#x1e79;" horiz-adv-x="580" 
d="M222 -6q-70 0 -103 33.5t-33 91.5q0 18 1.5 32.5t3.5 26.5l56 357h101l-55 -348q-1 -7 -1.5 -14t-0.5 -15q0 -37 21 -55.5t64 -18.5q47 0 84 14t77 37l63 400h101l-85 -535h-87l-4 57q-30 -19 -60 -33t-64.5 -22t-78.5 -8zM223 645q14 62 46.5 86t69.5 24q23 0 42.5 -8
t36.5 -18.5t34 -18.5t34 -8q24 0 40.5 15t20.5 42h51q-12 -57 -40 -85t-74 -28q-22 0 -41 8t-37 18.5t-35.5 18.5t-34.5 8q-23 0 -40 -14t-22 -40h-51zM373 791l114 138h88l-139 -138h-63z" />
    <glyph glyph-name="uni1E7A" unicode="&#x1e7a;" horiz-adv-x="680" 
d="M341 -6q-114 0 -173 48.5t-59 162.5q0 26 3.5 60t9.5 69l64 403h100l-66 -417q-4 -30 -7.5 -58t-3.5 -50q0 -70 35.5 -99t107.5 -29q43 0 76.5 9t59 33.5t44 71t30.5 122.5l66 417h100l-68 -431q-16 -100 -44 -162t-68 -94.5t-91.5 -44t-115.5 -11.5zM323 824l10 60h270
l-10 -60h-270zM555 952q-14 0 -14 14q0 1 0.5 5t3.5 22l10 60q2 18 20 18h46q15 0 15 -14l-0.5 -4t-4 -22t-9.5 -62q-2 -17 -20 -17h-47zM352 952q-14 0 -14 14q0 1 0.5 5t3.5 22l10 60q2 18 20 18h46q15 0 15 -14l-0.5 -4t-4 -22t-9.5 -62q-2 -17 -20 -17h-47z" />
    <glyph glyph-name="uni1E7B" unicode="&#x1e7b;" horiz-adv-x="580" 
d="M222 -6q-70 0 -103 33.5t-33 91.5q0 18 1.5 32.5t3.5 26.5l56 357h101l-55 -348q-1 -7 -1.5 -14t-0.5 -15q0 -37 21 -55.5t64 -18.5q47 0 84 14t77 37l63 400h101l-85 -535h-87l-4 57q-30 -19 -60 -33t-64.5 -22t-78.5 -8zM266 664l10 60h270l-10 -60h-270zM496 786
q-14 0 -14 14q0 1 0.5 5t3.5 22l10 60q2 18 20 18h46q15 0 15 -14l-0.5 -4t-4 -22t-9.5 -62q-2 -17 -20 -17h-47zM293 786q-14 0 -14 14q0 1 0.5 5t3.5 22l10 60q2 18 20 18h46q15 0 15 -14l-0.5 -4t-4 -22t-9.5 -62q-2 -17 -20 -17h-47z" />
    <glyph glyph-name="Wgrave" unicode="&#x1e80;" horiz-adv-x="1012" 
d="M236 0l-88 737h105l70 -592l242 592h97l48 -592l265 592h104l-327 -737h-106l-55 590l-249 -590h-106zM620 791l-100 138h83l76 -138h-59z" />
    <glyph glyph-name="wgrave" unicode="&#x1e81;" horiz-adv-x="830" 
d="M187 0l-96 535h103l69 -437l181 437h70l77 -438l138 324q6 13 12.5 34t12.5 44.5t8 43.5h95q0 -26 -6.5 -55t-16 -56.5t-19.5 -49.5l-183 -382h-107l-68 374l-163 -374h-107zM489 631l-100 138h83l76 -138h-59z" />
    <glyph glyph-name="Wacute" unicode="&#x1e82;" horiz-adv-x="1012" 
d="M236 0l-88 737h105l70 -592l242 592h97l48 -592l265 592h104l-327 -737h-106l-55 590l-249 -590h-106zM588 791l114 138h88l-139 -138h-63z" />
    <glyph glyph-name="wacute" unicode="&#x1e83;" horiz-adv-x="830" 
d="M187 0l-96 535h103l69 -437l181 437h70l77 -438l138 324q6 13 12.5 34t12.5 44.5t8 43.5h95q0 -26 -6.5 -55t-16 -56.5t-19.5 -49.5l-183 -382h-107l-68 374l-163 -374h-107zM462 631l114 138h88l-139 -138h-63z" />
    <glyph glyph-name="Wdieresis" unicode="&#x1e84;" horiz-adv-x="1012" 
d="M236 0l-88 737h105l70 -592l242 592h97l48 -592l265 592h104l-327 -737h-106l-55 590l-249 -590h-106zM697 808q-14 0 -14 14q0 1 0.5 5t3.5 22l10 60q2 18 20 18h46q15 0 15 -14l-0.5 -4t-4 -22t-9.5 -62q-2 -17 -20 -17h-47zM494 808q-14 0 -14 14q0 1 0.5 5t3.5 22
l10 60q2 18 20 18h46q15 0 15 -14l-0.5 -4t-4 -22t-9.5 -62q-2 -17 -20 -17h-47z" />
    <glyph glyph-name="wdieresis" unicode="&#x1e85;" horiz-adv-x="830" 
d="M187 0l-96 535h103l69 -437l181 437h70l77 -438l138 324q6 13 12.5 34t12.5 44.5t8 43.5h95q0 -26 -6.5 -55t-16 -56.5t-19.5 -49.5l-183 -382h-107l-68 374l-163 -374h-107zM570 648q-14 0 -14 14q0 1 0.5 5t3.5 22l10 60q2 18 20 18h46q15 0 15 -14l-0.5 -4t-4 -22
t-9.5 -62q-2 -17 -20 -17h-47zM367 648q-14 0 -14 14q0 1 0.5 5t3.5 22l10 60q2 18 20 18h46q15 0 15 -14l-0.5 -4t-4 -22t-9.5 -62q-2 -17 -20 -17h-47z" />
    <glyph glyph-name="uni1E8E" unicode="&#x1e8e;" horiz-adv-x="622" 
d="M252 0l37 233l-151 504h110l108 -393l247 393h114l-327 -504l-37 -233h-101zM237 -215q-14 0 -14 14v1.5v1.5l13 84q3 18 20 18h47q14 0 14 -14v-1.5v-2.5l-13 -84q-2 -17 -20 -17h-47z" />
    <glyph glyph-name="uni1E8F" unicode="&#x1e8f;" horiz-adv-x="563" 
d="M97 -237v73q52 12 100.5 48.5t86.5 115.5q-37 4 -63 16.5t-42 40t-23 74.5l-60 404h103l47 -383q4 -27 14.5 -41.5t25.5 -19.5t31 -7l151 343q10 25 19.5 55t11.5 61h91q0 -42 -10 -86.5t-34 -95.5l-170 -356q-40 -85 -83 -135.5t-91 -75t-105 -31.5zM418 -215
q-14 0 -14 14v1.5v1.5l13 84q3 18 20 18h47q14 0 14 -14v-1.5v-2.5l-13 -84q-2 -17 -20 -17h-47z" />
    <glyph glyph-name="uni1E92" unicode="&#x1e92;" horiz-adv-x="562" 
d="M38 0l14 86l449 561h-361l15 90h476l-14 -86l-449 -561h370l-14 -90h-486zM208 -215q-14 0 -14 14v1.5v1.5l13 84q3 18 20 18h47q14 0 14 -14v-1.5v-2.5l-13 -84q-2 -17 -20 -17h-47z" />
    <glyph glyph-name="uni1E93" unicode="&#x1e93;" horiz-adv-x="499" 
d="M50 1l11 73l342 379h-295l13 82h410l-11 -75l-342 -378h293l-1 -8.5t-3.5 -20.5t-4 -24t-3 -20l-1.5 -8h-408zM178 -215q-14 0 -14 14v1.5v1.5l13 84q3 18 20 18h47q14 0 14 -14v-1.5v-2.5l-13 -84q-2 -17 -20 -17h-47z" />
    <glyph glyph-name="uni1E97" unicode="&#x1e97;" horiz-adv-x="392" 
d="M272 0q-71 0 -107 29.5t-36 86.5q0 20 2.5 42t6.5 47l43 248h-84l10 65l89 17l39 150h79l-24 -150h145l-13 -82h-145l-40 -249q-2 -13 -4.5 -30.5t-2.5 -32.5q0 -29 15.5 -43.5t47.5 -17.5l63 -6l-12 -74h-72zM355 748q-14 0 -14 14q0 1 0.5 5t3.5 22l10 60q2 18 20 18
h46q15 0 15 -14l-0.5 -4t-4 -22t-9.5 -62q-2 -17 -20 -17h-47zM152 748q-14 0 -14 14q0 1 0.5 5t3.5 22l10 60q2 18 20 18h46q15 0 15 -14l-0.5 -4t-4 -22t-9.5 -62q-2 -17 -20 -17h-47z" />
    <glyph glyph-name="uni1E9E" unicode="&#x1e9e;" horiz-adv-x="687" 
d="M73 0l89 565q11 63 40.5 100.5t73 55t93.5 16.5q95 -1 176 -3.5t156 -4.5l-56 -82h-287q-40 0 -64 -20.5t-31 -60.5l-89 -566h-101zM404 -6q-20 0 -47.5 2t-55 6t-45.5 8l14 87q24 -5 61.5 -9t73.5 -4q40 0 73 8t54.5 29.5t27.5 62.5q4 24 5.5 36t2 18t0.5 10
q0 33 -20.5 51.5t-69.5 18.5h-125l12 82h142q52 0 89 -15t57 -44.5t20 -73.5q0 -6 -1 -16t-3.5 -28t-7.5 -49q-13 -73 -49.5 -112t-90 -53.5t-117.5 -14.5zM440 379l78 202l75 78l107 60l-164 -249z" />
    <glyph glyph-name="uni1EA0" unicode="&#x1ea0;" horiz-adv-x="682" 
d="M31 0l367 737h128l126 -737h-104l-33 193h-284l-96 -193h-104zM270 283h234l-57 365zM274 -215q-14 0 -14 14v1.5v1.5l13 84q3 18 20 18h47q14 0 14 -14v-1.5v-2.5l-13 -84q-2 -17 -20 -17h-47z" />
    <glyph glyph-name="uni1EA1" unicode="&#x1ea1;" horiz-adv-x="566" 
d="M234 -6q-43 0 -78 18.5t-55.5 59t-20.5 104.5q0 27 3.5 56t7.5 50q13 88 46 145.5t89.5 85.5t141.5 28q39 0 79 -7t74.5 -20.5t57.5 -33.5l-76 -480h-87l-4 56q-14 -11 -43.5 -25.5t-65 -25.5t-69.5 -11zM278 76q43 0 77.5 14.5t66.5 30.5l49 313q-13 8 -41 16.5t-67 8.5
q-56 0 -90.5 -20.5t-54 -62t-29.5 -104.5q-4 -25 -6.5 -45t-2.5 -34q0 -57 26 -87t72 -30zM223 -215q-14 0 -14 14v1.5v1.5l13 84q3 18 20 18h47q14 0 14 -14v-1.5v-2.5l-13 -84q-2 -17 -20 -17h-47z" />
    <glyph glyph-name="uni1EA2" unicode="&#x1ea2;" horiz-adv-x="682" 
d="M31 0l367 737h128l126 -737h-104l-33 193h-284l-96 -193h-104zM270 283h234l-57 365zM432 770l8 46q36 10 48 27.5t12 34.5q0 14 -8.5 22t-28.5 8q-8 0 -18 -1.5t-18 -4.5l6 41q12 4 24.5 5.5t25.5 1.5q38 0 55 -16t17 -47q0 -35 -27 -66.5t-96 -50.5z" />
    <glyph glyph-name="uni1EA3" unicode="&#x1ea3;" horiz-adv-x="566" 
d="M234 -6q-43 0 -78 18.5t-55.5 59t-20.5 104.5q0 27 3.5 56t7.5 50q13 88 46 145.5t89.5 85.5t141.5 28q39 0 79 -7t74.5 -20.5t57.5 -33.5l-76 -480h-87l-4 56q-14 -11 -43.5 -25.5t-65 -25.5t-69.5 -11zM278 76q43 0 77.5 14.5t66.5 30.5l49 313q-13 8 -41 16.5t-67 8.5
q-56 0 -90.5 -20.5t-54 -62t-29.5 -104.5q-4 -25 -6.5 -45t-2.5 -34q0 -57 26 -87t72 -30zM352 600l8 46q36 10 48 27.5t12 34.5q0 14 -8.5 22t-28.5 8q-8 0 -18 -1.5t-18 -4.5l6 41q12 4 24.5 5.5t25.5 1.5q38 0 55 -16t17 -47q0 -35 -27 -66.5t-96 -50.5z" />
    <glyph glyph-name="uni1EA4" unicode="&#x1ea4;" horiz-adv-x="682" 
d="M31 0l367 737h128l126 -737h-104l-33 193h-284l-96 -193h-104zM270 283h234l-57 365zM314 791l133 102h70l91 -102h-60l-75 55l-99 -55h-60zM566 870l95 129h79l-120 -129h-54z" />
    <glyph glyph-name="uni1EA5" unicode="&#x1ea5;" horiz-adv-x="566" 
d="M234 -6q-43 0 -78 18.5t-55.5 59t-20.5 104.5q0 27 3.5 56t7.5 50q13 88 46 145.5t89.5 85.5t141.5 28q39 0 79 -7t74.5 -20.5t57.5 -33.5l-76 -480h-87l-4 56q-14 -11 -43.5 -25.5t-65 -25.5t-69.5 -11zM278 76q43 0 77.5 14.5t66.5 30.5l49 313q-13 8 -41 16.5t-67 8.5
q-56 0 -90.5 -20.5t-54 -62t-29.5 -104.5q-4 -25 -6.5 -45t-2.5 -34q0 -57 26 -87t72 -30zM227 631l133 102h70l91 -102h-60l-75 55l-99 -55h-60zM479 710l95 129h79l-120 -129h-54z" />
    <glyph glyph-name="uni1EA6" unicode="&#x1ea6;" horiz-adv-x="682" 
d="M31 0l367 737h128l126 -737h-104l-33 193h-284l-96 -193h-104zM270 283h234l-57 365zM309 791l134 102h70l91 -102h-60l-75 55l-99 -55h-61zM334 870l-79 129h79l54 -129h-54z" />
    <glyph glyph-name="uni1EA7" unicode="&#x1ea7;" horiz-adv-x="566" 
d="M234 -6q-43 0 -78 18.5t-55.5 59t-20.5 104.5q0 27 3.5 56t7.5 50q13 88 46 145.5t89.5 85.5t141.5 28q39 0 79 -7t74.5 -20.5t57.5 -33.5l-76 -480h-87l-4 56q-14 -11 -43.5 -25.5t-65 -25.5t-69.5 -11zM278 76q43 0 77.5 14.5t66.5 30.5l49 313q-13 8 -41 16.5t-67 8.5
q-56 0 -90.5 -20.5t-54 -62t-29.5 -104.5q-4 -25 -6.5 -45t-2.5 -34q0 -57 26 -87t72 -30zM222 631l134 102h70l91 -102h-60l-75 55l-99 -55h-61zM247 710l-79 129h79l54 -129h-54z" />
    <glyph glyph-name="uni1EA8" unicode="&#x1ea8;" horiz-adv-x="682" 
d="M31 0l367 737h128l126 -737h-104l-33 193h-284l-96 -193h-104zM270 283h234l-57 365zM315 791l134 102h70l91 -102h-60l-75 55l-99 -55h-61zM584 844l6 41q31 10 41.5 24.5t10.5 29.5q0 23 -31 23q-8 0 -18 -1.5t-18 -4.5l6 41q12 4 24 6t25 2q32 0 48 -14t16 -41
q0 -33 -25 -61.5t-85 -44.5z" />
    <glyph glyph-name="uni1EA9" unicode="&#x1ea9;" horiz-adv-x="566" 
d="M234 -6q-43 0 -78 18.5t-55.5 59t-20.5 104.5q0 27 3.5 56t7.5 50q13 88 46 145.5t89.5 85.5t141.5 28q39 0 79 -7t74.5 -20.5t57.5 -33.5l-76 -480h-87l-4 56q-14 -11 -43.5 -25.5t-65 -25.5t-69.5 -11zM278 76q43 0 77.5 14.5t66.5 30.5l49 313q-13 8 -41 16.5t-67 8.5
q-56 0 -90.5 -20.5t-54 -62t-29.5 -104.5q-4 -25 -6.5 -45t-2.5 -34q0 -57 26 -87t72 -30zM228 631l134 102h70l91 -102h-60l-75 55l-99 -55h-61zM497 684l6 41q31 10 41.5 24.5t10.5 29.5q0 23 -31 23q-8 0 -18 -1.5t-18 -4.5l6 41q12 4 24 6t25 2q32 0 48 -14t16 -41
q0 -33 -25 -61.5t-85 -44.5z" />
    <glyph glyph-name="uni1EAA" unicode="&#x1eaa;" horiz-adv-x="682" 
d="M31 0l367 737h128l126 -737h-104l-33 193h-284l-96 -193h-104zM270 283h234l-57 365zM316 791l134 102h70l90 -102h-60l-74 55l-100 -55h-60zM322 937q8 36 24.5 55t38 26.5t43.5 7.5q28 0 49 -9.5t40.5 -19t40.5 -9.5t36.5 10.5t18.5 30.5h51q-7 -33 -21.5 -52.5
t-35.5 -29t-50 -9.5q-25 0 -47 10t-42 19t-41 9t-35.5 -10t-18.5 -29h-51z" />
    <glyph glyph-name="uni1EAB" unicode="&#x1eab;" horiz-adv-x="566" 
d="M234 -6q-43 0 -78 18.5t-55.5 59t-20.5 104.5q0 27 3.5 56t7.5 50q13 88 46 145.5t89.5 85.5t141.5 28q39 0 79 -7t74.5 -20.5t57.5 -33.5l-76 -480h-87l-4 56q-14 -11 -43.5 -25.5t-65 -25.5t-69.5 -11zM278 76q43 0 77.5 14.5t66.5 30.5l49 313q-13 8 -41 16.5t-67 8.5
q-56 0 -90.5 -20.5t-54 -62t-29.5 -104.5q-4 -25 -6.5 -45t-2.5 -34q0 -57 26 -87t72 -30zM229 631l134 102h70l90 -102h-60l-74 55l-100 -55h-60zM235 777q8 36 24.5 55t38 26.5t43.5 7.5q28 0 49 -9.5t40.5 -19t40.5 -9.5t36.5 10.5t18.5 30.5h51q-7 -33 -21.5 -52.5
t-35.5 -29t-50 -9.5q-25 0 -47 10t-42 19t-41 9t-35.5 -10t-18.5 -29h-51z" />
    <glyph glyph-name="uni1EAC" unicode="&#x1eac;" horiz-adv-x="682" 
d="M31 0l367 737h128l126 -737h-104l-33 193h-284l-96 -193h-104zM270 283h234l-57 365zM307 791l139 137h70l86 -137h-60l-70 91l-105 -91h-60zM274 -215q-14 0 -14 14v1.5v1.5l13 84q3 18 20 18h47q14 0 14 -14v-1.5v-2.5l-13 -84q-2 -17 -20 -17h-47z" />
    <glyph glyph-name="uni1EAD" unicode="&#x1ead;" horiz-adv-x="566" 
d="M234 -6q-43 0 -78 18.5t-55.5 59t-20.5 104.5q0 27 3.5 56t7.5 50q13 88 46 145.5t89.5 85.5t141.5 28q39 0 79 -7t74.5 -20.5t57.5 -33.5l-76 -480h-87l-4 56q-14 -11 -43.5 -25.5t-65 -25.5t-69.5 -11zM278 76q43 0 77.5 14.5t66.5 30.5l49 313q-13 8 -41 16.5t-67 8.5
q-56 0 -90.5 -20.5t-54 -62t-29.5 -104.5q-4 -25 -6.5 -45t-2.5 -34q0 -57 26 -87t72 -30zM236 631l139 137h70l86 -137h-60l-70 91l-105 -91h-60zM223 -215q-14 0 -14 14v1.5v1.5l13 84q3 18 20 18h47q14 0 14 -14v-1.5v-2.5l-13 -84q-2 -17 -20 -17h-47z" />
    <glyph glyph-name="uni1EAE" unicode="&#x1eae;" horiz-adv-x="682" 
d="M31 0l367 737h128l126 -737h-104l-33 193h-284l-96 -193h-104zM270 283h234l-57 365zM452 778q-34 0 -60 9t-41.5 29t-15.5 52q0 6 0.5 12.5t1.5 11.5h48q-1 -3 -1 -6.5v-7.5q0 -31 21.5 -44t51.5 -13q19 0 40 5.5t38 21t21 44.5h49q-6 -42 -28 -66.5t-54 -36t-71 -11.5z
M433 905l115 137h88l-139 -137h-64z" />
    <glyph glyph-name="uni1EAF" unicode="&#x1eaf;" horiz-adv-x="566" 
d="M234 -6q-43 0 -78 18.5t-55.5 59t-20.5 104.5q0 27 3.5 56t7.5 50q13 88 46 145.5t89.5 85.5t141.5 28q39 0 79 -7t74.5 -20.5t57.5 -33.5l-76 -480h-87l-4 56q-14 -11 -43.5 -25.5t-65 -25.5t-69.5 -11zM278 76q43 0 77.5 14.5t66.5 30.5l49 313q-13 8 -41 16.5t-67 8.5
q-56 0 -90.5 -20.5t-54 -62t-29.5 -104.5q-4 -25 -6.5 -45t-2.5 -34q0 -57 26 -87t72 -30zM366 618q-34 0 -60 9t-41.5 29t-15.5 52q0 6 0.5 12.5t1.5 11.5h48q-1 -3 -1 -6.5v-7.5q0 -31 21.5 -44t51.5 -13q19 0 40 5.5t38 21t21 44.5h49q-6 -42 -28 -66.5t-54 -36
t-71 -11.5zM347 745l115 137h88l-139 -137h-64z" />
    <glyph glyph-name="uni1EB0" unicode="&#x1eb0;" horiz-adv-x="682" 
d="M31 0l367 737h128l126 -737h-104l-33 193h-284l-96 -193h-104zM270 283h234l-57 365zM452 778q-34 0 -60 9t-41.5 29t-15.5 52q0 6 0.5 12.5t1.5 11.5h48q-1 -3 -1 -6.5v-7.5q0 -31 21.5 -44t51.5 -13q21 0 42 5.5t37 21t20 44.5h49q-6 -42 -28 -66.5t-54 -36t-71 -11.5z
M455 905l-100 137h84l75 -137h-59z" />
    <glyph glyph-name="uni1EB1" unicode="&#x1eb1;" horiz-adv-x="566" 
d="M234 -6q-43 0 -78 18.5t-55.5 59t-20.5 104.5q0 27 3.5 56t7.5 50q13 88 46 145.5t89.5 85.5t141.5 28q39 0 79 -7t74.5 -20.5t57.5 -33.5l-76 -480h-87l-4 56q-14 -11 -43.5 -25.5t-65 -25.5t-69.5 -11zM278 76q43 0 77.5 14.5t66.5 30.5l49 313q-13 8 -41 16.5t-67 8.5
q-56 0 -90.5 -20.5t-54 -62t-29.5 -104.5q-4 -25 -6.5 -45t-2.5 -34q0 -57 26 -87t72 -30zM366 618q-34 0 -60 9t-41.5 29t-15.5 52q0 6 0.5 12.5t1.5 11.5h48q-1 -3 -1 -6.5v-7.5q0 -31 21.5 -44t51.5 -13q21 0 42 5.5t37 21t20 44.5h49q-6 -42 -28 -66.5t-54 -36
t-71 -11.5zM369 745l-100 137h84l75 -137h-59z" />
    </font>
</defs>
</svg>
